{
.appVersion = "3260";
.formatVersion = 3;
DisplayStrings = (
"нежнейший
/zhe-cy.001"
);
axes = (
{
name = Weight;
tag = wght;
},
{
name = Width;
tag = wdth;
}
);
classes = (
{
automatic = 1;

glyphs = (
{
category = Separator;
glyphname = .notdef;
layers = (
{
layerId = "84606D06-D269-45BD-896C-8402F9D7AD38";
shapes = (
{
closed = 1;
nodes = (
(505,0,l),
(505,714,l),
(95,714,l),
(95,0,l)
);
},
{
closed = 1;
nodes = (
(146,663,l),
(454,663,l),
(454,51,l),
(146,51,l)
);
}
);
width = 600;
}
);
script = "";
subCategory = Other;
},
{
category = Punctuation;
glyphname = exclam;
layers = (
{
layerId = "84606D06-D269-45BD-896C-8402F9D7AD38";
shapes = (
{
closed = 1;
nodes = (
(221,252,l),
(345,714,l),
(137,714,l),
(61,252,l)
);
},
{
closed = 1;
nodes = (
(165,-12,o),
(213,25,o),
(213,100,cs),
(213,148,o),
(181,176,o),
(125,176,cs),
(45,176,o),
(6,126,o),
(6,62,cs),
(6,24,o),
(28,-12,o),
(97,-12,cs)
);
}
);
width = 304;
}
);
script = "";
subCategory = Other;
unicode = 33;
},
{
category = Punctuation;
glyphname = quotedbl;
kernLeft = quote.right;
kernRight = quote.left;
layers = (
{
layerId = "84606D06-D269-45BD-896C-8402F9D7AD38";
shapes = (
{
closed = 1;
nodes = (
(430,456,l),
(507,714,l),
(340,714,l),
(304,456,l)
);
},
{
closed = 1;
nodes = (
(214,456,l),
(291,714,l),
(124,714,l),
(89,456,l)
);
}
);
width = 454;
}
);
script = "";
subCategory = Other;
unicode = 34;
},
{
category = Punctuation;
glyphname = numbersign;
layers = (
{
layerId = "84606D06-D269-45BD-896C-8402F9D7AD38";
shapes = (
{
closed = 1;
nodes = (
(191,0,l),
(246,192,l),
(328,192,l),
(273,0,l),
(405,0,l),
(459,192,l),
(602,192,l),
(612,308,l),
(493,308,l),
(521,406,l),
(653,406,l),
(663,524,l),
(555,524,l),
(609,714,l),
(477,714,l),
(423,524,l),
(341,524,l),
(395,714,l),
(263,714,l),
(209,524,l),
(70,524,l),
(60,406,l),
(175,406,l),
(147,308,l),
(17,308,l),
(7,192,l),
(114,192,l),
(59,0,l)
);
},
{
closed = 1;
nodes = (
(307,406,l),
(389,406,l),
(361,308,l),
(279,308,l)
);
}
);
width = 646;
}
);
script = "";
subCategory = Other;
unicode = 35;
},
{
category = Symbol;
glyphname = dollar;
layers = (
{
layerId = "84606D06-D269-45BD-896C-8402F9D7AD38";
shapes = (
{
closed = 1;
nodes = (
(179,-59,l),
(261,-59,l),
(280,32,l),
(420,40,o),
(525,115,o),
(525,240,cs),
(525,321,o),
(479,369,o),
(363,421,c),
(392,556,l),
(437,551,o),
(489,538,o),
(525,519,c),
(574,650,l),
(525,674,o),
(475,688,o),
(421,693,c),
(436,760,l),
(354,760,l),
(340,695,l),
(188,686,o),
(92,616,o),
(92,492,cs),
(92,400,o),
(156,347,o),
(258,308,c),
(229,172,l),
(169,177,o),
(96,196,o),
(27,228,c),
(30,79,l),
(64,58,o),
(118,40,o),
(199,34,c)
);
},
{
closed = 1;
nodes = (
(332,278,l),
(352,266,o),
(365,251,o),
(365,227,cs),
(365,203,o),
(350,184,o),
(310,175,c)
);
},
{
closed = 1;
nodes = (
(289,455,l),
(272,465,o),
(263,477,o),
(263,499,cs),
(263,525,o),
(273,546,o),
(311,554,c)
);
}
);
width = 580;
}
);
script = "";
subCategory = Currency;
unicode = 36;
},
{
category = Symbol;
glyphname = percent;
layers = (
{
layerId = "84606D06-D269-45BD-896C-8402F9D7AD38";
shapes = (
{
closed = 1;
nodes = (
(288,0,l),
(816,714,l),
(675,714,l),
(143,0,l)
);
},
{
closed = 1;
nodes = (
(377,276,o),
(427,441,o),
(427,556,cs),
(427,663,o),
(375,724,o),
(271,724,cs),
(112,724,o),
(56,561,o),
(56,444,cs),
(56,333,o),
(112,276,o),
(214,276,cs)
);
},
{
closed = 1;
nodes = (
(205,394,o),
(197,408,o),
(197,435,cs),
(197,506,o),
(226,606,o),
(262,606,cs),
(281,606,o),
(288,593,o),
(288,565,cs),
(288,500,o),
(262,394,o),
(223,394,cs)
);
},
{
closed = 1;
nodes = (
(857,-10,o),
(907,155,o),
(907,270,cs),
(907,377,o),
(855,438,o),
(751,438,cs),
(592,438,o),
(536,275,o),
(536,158,cs),
(536,47,o),
(592,-10,o),
(694,-10,cs)
);
},
{
closed = 1;
nodes = (
(685,108,o),
(677,122,o),
(677,149,cs),
(677,220,o),
(706,320,o),
(742,320,cs),
(761,320,o),
(768,307,o),
(768,279,cs),
(768,214,o),
(742,108,o),
(703,108,cs)
);
}
);
width = 930;
}
);
script = "";
subCategory = Math;
unicode = 37;
},
{
category = Symbol;
glyphname = ampersand;
layers = (
{
layerId = "84606D06-D269-45BD-896C-8402F9D7AD38";
shapes = (
{
closed = 1;
nodes = (
(325,-10,o),
(385,7,o),
(428,30,c),
(449,0,l),
(665,0,l),
(572,128,l),
(635,192,o),
(695,288,o),
(727,401,c),
(540,401,l),
(526,352,o),
(499,294,o),
(472,266,c),
(409,357,l),
(514,411,o),
(576,473,o),
(576,567,cs),
(576,670,o),
(488,725,o),
(373,725,cs),
(226,725,o),
(138,650,o),
(138,520,cs),
(138,489,o),
(152,432,o),
(179,398,c),
(67,362,o),
(4,297,o),
(4,188,cs),
(4,60,o),
(103,-10,o),
(258,-10,cs)
);
},
{
closed = 1;
nodes = (
(220,140,o),
(195,174,o),
(195,207,cs),
(195,239,o),
(208,270,o),
(252,289,c),
(346,153,l),
(329,146,o),
(306,140,o),
(279,140,cs)
);
},
{
closed = 1;
nodes = (
(315,489,o),
(310,519,o),
(310,533,cs),
(310,572,o),
(332,596,o),
(364,596,cs),
(388,596,o),
(404,577,o),
(404,554,cs),
(404,508,o),
(372,478,o),
(335,463,c)
);
}
);
width = 733;
}
);
script = "";
subCategory = Other;
unicode = 38;
},
{
category = Punctuation;
glyphname = quotesingle;
kernLeft = quote.right;
kernRight = quote.left;
layers = (
{
layerId = "84606D06-D269-45BD-896C-8402F9D7AD38";
shapes = (
{
closed = 1;
nodes = (
(214,456,l),
(291,714,l),
(124,714,l),
(89,456,l)
);
}
);
width = 238;
}
);
script = "";
subCategory = Other;
unicode = 39;
},
{
category = Punctuation;
glyphname = parenleft;
kernRight = paren.left;
layers = (
{
layerId = "84606D06-D269-45BD-896C-8402F9D7AD38";
shapes = (
{
closed = 1;
nodes = (
(250,-158,l),
(214,-66,o),
(193,58,o),
(193,151,cs),
(193,394,o),
(299,580,o),
(441,734,c),
(283,734,l),
(121,567,o),
(33,386,o),
(33,159,cs),
(33,55,o),
(60,-75,o),
(107,-158,c)
);
}
);
width = 374;
}
);
script = "";
subCategory = Parenthesis;
unicode = 40;
},
{
category = Punctuation;
glyphname = parenright;
kernLeft = Paren.right;
layers = (
{
layerId = "84606D06-D269-45BD-896C-8402F9D7AD38";
shapes = (
{
closed = 1;
nodes = (
(94,-158,l),
(256,9,o),
(339,190,o),
(339,417,cs),
(339,521,o),
(316,645,o),
(265,734,c),
(121,734,l),
(157,642,o),
(179,518,o),
(179,425,cs),
(179,182,o),
(77,-4,o),
(-65,-158,c)
);
}
);
width = 374;
}
);
script = "";
subCategory = Parenthesis;
unicode = 41;
},
{
category = Punctuation;
glyphname = asterisk;
layers = (
{
layerId = "84606D06-D269-45BD-896C-8402F9D7AD38";
shapes = (
{
closed = 1;
nodes = (
(477,311,l),
(405,463,l),
(556,443,l),
(567,590,l),
(387,575,l),
(444,737,l),
(294,767,l),
(279,596,l),
(123,677,l),
(74,541,l),
(220,500,l),
(96,388,l),
(218,298,l),
(299,417,l),
(338,269,l)
);
}
);
width = 542;
}
);
script = "";
subCategory = Other;
unicode = 42;
},
{
category = Symbol;
glyphname = plus;
layers = (
{
layerId = "84606D06-D269-45BD-896C-8402F9D7AD38";
shapes = (
{
closed = 1;
nodes = (
(358,597,l),
(227,597,l),
(227,418,l),
(45,418,l),
(45,287,l),
(227,287,l),
(227,111,l),
(358,111,l),
(358,287,l),
(540,287,l),
(540,418,l),
(358,418,l)
);
}
);
width = 586;
}
);
script = "";
subCategory = Math;
unicode = 43;
},
{
category = Punctuation;
glyphname = comma;
kernLeft = period.right;
kernRight = period.left;
layers = (
{
layerId = "84606D06-D269-45BD-896C-8402F9D7AD38";
shapes = (
{
closed = 1;
nodes = (
(90,-129,l),
(137,-56,o),
(184,34,o),
(215,105,c),
(211,116,l),
(41,116,l),
(16,47,o),
(-16,-50,o),
(-51,-129,c)
);
}
);
width = 306;
}
);
script = "";
subCategory = Other;
unicode = 44;
},
{
category = Punctuation;
glyphname = hyphen;
kernLeft = hyphen.right;
kernRight = hyphen.left;
layers = (
{
layerId = "84606D06-D269-45BD-896C-8402F9D7AD38";
shapes = (
{
closed = 1;
nodes = (
(281,192,l),
(312,344,l),
(42,344,l),
(11,192,l)
);
}
);
width = 329;
}
);
script = "";
subCategory = Dash;
unicode = 45;
},
{
category = Punctuation;
glyphname = period;
kernLeft = period.right;
kernRight = period.left;
layers = (
{
layerId = "84606D06-D269-45BD-896C-8402F9D7AD38";
shapes = (
{
closed = 1;
nodes = (
(159,-12,o),
(207,14,o),
(207,100,cs),
(207,152,o),
(171,176,o),
(119,176,cs),
(55,176,o),
(0,141,o),
(0,62,cs),
(0,11,o),
(34,-12,o),
(85,-12,cs)
);
}
);
width = 306;
}
);
script = "";
subCategory = Other;
unicode = 46;
},
{
category = Punctuation;
glyphname = slash;
layers = (
{
layerId = "84606D06-D269-45BD-896C-8402F9D7AD38";
shapes = (
{
closed = 1;
nodes = (
(124,-10,l),
(533,724,l),
(365,724,l),
(-44,-10,l)
);
}
);
width = 467;
}
);
script = "";
subCategory = Other;
unicode = 47;
},
{
category = Number;
glyphname = zero;
layers = (
{
layerId = "84606D06-D269-45BD-896C-8402F9D7AD38";
shapes = (
{
closed = 1;
nodes = (
(459,-10,o),
(565,221,o),
(565,480,cs),
(565,602,o),
(510,725,o),
(357,725,cs),
(128,725,o),
(31,469,o),
(31,227,cs),
(31,69,o),
(108,-10,o),
(239,-10,cs)
);
},
{
closed = 1;
nodes = (
(229,144,o),
(221,169,o),
(221,223,cs),
(221,367,o),
(276,571,o),
(335,571,cs),
(364,571,o),
(375,539,o),
(375,484,cs),
(375,345,o),
(325,144,o),
(258,144,cs)
);
}
);
width = 580;
}
);
script = "";
subCategory = "Decimal Digit";
unicode = 48;
},
{
category = Number;
glyphname = one;
layers = (
{
layerId = "84606D06-D269-45BD-896C-8402F9D7AD38";
shapes = (
{
closed = 1;
nodes = (
(188,0,l),
(378,0,l),
(528,714,l),
(376,714,l),
(73,527,l),
(147,404,l),
(246,465,ls),
(262,475,o),
(291,498,o),
(310,515,c),
(297,482,o),
(281,427,o),
(273,390,cs)
);
}
);
width = 580;
}
);
script = "";
subCategory = "Decimal Digit";
unicode = 49;
},
{
category = Number;
glyphname = two;
layers = (
{
layerId = "84606D06-D269-45BD-896C-8402F9D7AD38";
shapes = (
{
closed = 1;
nodes = (
(463,0,l),
(496,159,l),
(257,159,l),
(257,165,l),
(357,251,ls),
(503,377,o),
(545,451,o),
(545,544,cs),
(545,656,o),
(464,724,o),
(346,724,cs),
(238,724,o),
(152,682,o),
(82,616,c),
(173,490,l),
(224,537,o),
(268,562,o),
(310,562,cs),
(336,562,o),
(355,546,o),
(355,514,cs),
(355,478,o),
(329,423,o),
(234,338,cs),
(-2,125,l),
(-28,0,l)
);
}
);
width = 580;
}
);
script = "";
subCategory = "Decimal Digit";
unicode = 50;
},
{
category = Number;
glyphname = three;
layers = (
{
layerId = "84606D06-D269-45BD-896C-8402F9D7AD38";
shapes = (
{
closed = 1;
nodes = (
(370,-10,o),
(517,55,o),
(517,210,cs),
(517,288,o),
(471,351,o),
(383,368,c),
(383,372,l),
(480,392,o),
(550,450,o),
(550,555,cs),
(550,661,o),
(462,724,o),
(334,724,cs),
(224,724,o),
(158,696,o),
(89,652,c),
(166,531,l),
(211,555,o),
(254,572,o),
(298,572,cs),
(347,572,o),
(364,545,o),
(364,522,cs),
(364,468,o),
(305,437,o),
(212,437,cs),
(174,437,l),
(148,295,l),
(189,295,ls),
(303,295,o),
(325,272,o),
(325,230,cs),
(325,166,o),
(268,142,o),
(191,142,cs),
(128,142,o),
(65,156,o),
(7,191,c),
(7,29,l),
(50,4,o),
(124,-10,o),
(195,-10,cs)
);
}
);
width = 580;
}
);
script = "";
subCategory = "Decimal Digit";
unicode = 51;
},
{
category = Number;
glyphname = four;
layers = (
{
layerId = "84606D06-D269-45BD-896C-8402F9D7AD38";
shapes = (
{
closed = 1;
nodes = (
(418,0,l),
(447,138,l),
(520,138,l),
(550,282,l),
(477,282,l),
(568,714,l),
(392,714,l),
(20,263,l),
(-5,138,l),
(263,138,l),
(234,0,l)
);
},
{
closed = 1;
nodes = (
(286,396,ls),
(306,419,o),
(330,458,o),
(342,480,c),
(346,480,l),
(342,467,o),
(326,411,o),
(317,377,cs),
(293,282,l),
(191,282,l)
);
}
);
width = 580;
}
);
script = "";
subCategory = "Decimal Digit";
unicode = 52;
},
{
category = Number;
glyphname = five;
layers = (
{
layerId = "84606D06-D269-45BD-896C-8402F9D7AD38";
shapes = (
{
closed = 1;
nodes = (
(398,-10,o),
(518,76,o),
(518,256,cs),
(518,393,o),
(430,468,o),
(320,468,cs),
(312,468,o),
(300,468,o),
(283,466,c),
(312,556,l),
(542,556,l),
(575,714,l),
(178,714,l),
(73,348,l),
(133,303,l),
(157,312,o),
(198,319,o),
(232,319,cs),
(293,319,o),
(323,281,o),
(323,236,cs),
(323,170,o),
(274,142,o),
(188,142,cs),
(132,142,o),
(58,161,o),
(10,189,c),
(10,31,l),
(48,3,o),
(139,-10,o),
(212,-10,cs)
);
}
);
width = 580;
}
);
script = "";
subCategory = "Decimal Digit";
unicode = 53;
},
{
category = Number;
glyphname = six;
layers = (
{
layerId = "84606D06-D269-45BD-896C-8402F9D7AD38";
shapes = (
{
closed = 1;
nodes = (
(443,-10,o),
(540,115,o),
(540,281,cs),
(540,415,o),
(478,477,o),
(380,477,cs),
(298,477,o),
(256,436,o),
(230,394,c),
(226,394,l),
(265,517,o),
(314,573,o),
(468,573,cs),
(494,573,o),
(532,568,o),
(557,561,c),
(588,709,l),
(550,718,o),
(511,724,o),
(474,724,cs),
(341,724,o),
(262,708,o),
(176,628,cs),
(88,547,o),
(39,386,o),
(39,249,cs),
(39,95,o),
(109,-10,o),
(272,-10,cs)
);
},
{
closed = 1;
nodes = (
(245,140,o),
(226,162,o),
(226,205,cs),
(226,226,o),
(229,246,o),
(234,263,cs),
(247,303,o),
(272,329,o),
(303,329,cs),
(334,329,o),
(348,305,o),
(348,266,cs),
(348,203,o),
(323,140,o),
(274,140,cs)
);
}
);
width = 580;
}
);
script = "";
subCategory = "Decimal Digit";
unicode = 54;
},
{
category = Number;
glyphname = seven;
layers = (
{
layerId = "84606D06-D269-45BD-896C-8402F9D7AD38";
shapes = (
{
closed = 1;
nodes = (
(236,0,l),
(599,601,l),
(624,714,l),
(121,714,l),
(87,554,l),
(367,554,l),
(17,0,l)
);
}
);
width = 580;
}
);
script = "";
subCategory = "Decimal Digit";
unicode = 55;
},
{
category = Number;
glyphname = eight;
layers = (
{
layerId = "84606D06-D269-45BD-896C-8402F9D7AD38";
shapes = (
{
closed = 1;
nodes = (
(422,-10,o),
(520,70,o),
(520,205,cs),
(520,281,o),
(488,336,o),
(428,382,c),
(517,411,o),
(565,486,o),
(565,562,cs),
(565,655,o),
(490,725,o),
(354,725,cs),
(193,725,o),
(110,630,o),
(110,520,cs),
(110,443,o),
(146,401,o),
(186,369,c),
(81,332,o),
(24,264,o),
(24,165,cs),
(24,69,o),
(106,-10,o),
(262,-10,cs)
);
},
{
closed = 1;
nodes = (
(235,128,o),
(202,148,o),
(202,188,cs),
(202,236,o),
(238,272,o),
(285,297,c),
(321,273,o),
(343,241,o),
(343,202,cs),
(343,155,o),
(309,128,o),
(267,128,cs)
);
},
{
closed = 1;
nodes = (
(304,466,o),
(287,494,o),
(287,520,cs),
(287,558,o),
(314,587,o),
(345,587,cs),
(369,587,o),
(391,571,o),
(391,539,cs),
(391,508,o),
(371,470,o),
(329,454,c)
);
}
);
width = 580;
}
);
script = "";
subCategory = "Decimal Digit";
unicode = 56;
},
{
category = Number;
glyphname = nine;
layers = (
{
layerId = "84606D06-D269-45BD-896C-8402F9D7AD38";
shapes = (
{
closed = 1;
nodes = (
(270,-10,o),
(356,27,o),
(418,86,cs),
(517,180,o),
(555,328,o),
(555,465,cs),
(555,616,o),
(486,724,o),
(323,724,cs),
(136,724,o),
(53,587,o),
(53,433,cs),
(53,313,o),
(113,235,o),
(213,235,cs),
(295,235,o),
(334,278,o),
(360,320,c),
(364,320,l),
(338,201,o),
(274,146,o),
(151,140,cs),
(114,138,o),
(84,145,o),
(52,158,c),
(52,5,l),
(81,-4,o),
(114,-10,o),
(155,-10,cs)
);
},
{
closed = 1;
nodes = (
(260,385,o),
(245,408,o),
(245,455,cs),
(245,519,o),
(277,574,o),
(320,574,cs),
(351,574,o),
(368,543,o),
(368,503,cs),
(368,482,o),
(364,463,o),
(358,446,cs),
(345,410,o),
(320,385,o),
(290,385,cs)
);
}
);
width = 580;
}
);
script = "";
subCategory = "Decimal Digit";
unicode = 57;
},
{
category = Punctuation;
glyphname = colon;
kernLeft = colon;
layers = (
{
layerId = "84606D06-D269-45BD-896C-8402F9D7AD38";
shapes = (
{
closed = 1;
nodes = (
(254,372,o),
(302,398,o),
(302,485,cs),
(302,536,o),
(266,560,o),
(213,560,cs),
(149,560,o),
(95,526,o),
(95,447,cs),
(95,396,o),
(129,372,o),
(180,372,cs)
);
},
{
closed = 1;
nodes = (
(159,-12,o),
(207,14,o),
(207,100,cs),
(207,152,o),
(171,176,o),
(119,176,cs),
(55,176,o),
(0,141,o),
(0,62,cs),
(0,11,o),
(34,-12,o),
(85,-12,cs)
);
}
);
width = 306;
}
);
script = "";
subCategory = Other;
unicode = 58;
},
{
category = Punctuation;
glyphname = semicolon;
kernLeft = colon;
layers = (
{
layerId = "84606D06-D269-45BD-896C-8402F9D7AD38";
shapes = (
{
closed = 1;
nodes = (
(84,-129,l),
(131,-56,o),
(178,34,o),
(209,105,c),
(205,116,l),
(35,116,l),
(10,47,o),
(-22,-50,o),
(-57,-129,c)
);
},
{
closed = 1;
nodes = (
(254,372,o),
(302,398,o),
(302,485,cs),
(302,536,o),
(266,560,o),
(213,560,cs),
(149,560,o),
(95,526,o),
(95,447,cs),
(95,396,o),
(129,372,o),
(180,372,cs)
);
}
);
width = 306;
}
);
script = "";
subCategory = Other;
unicode = 59;
},
{
category = Symbol;
glyphname = less;
layers = (
{
layerId = "84606D06-D269-45BD-896C-8402F9D7AD38";
shapes = (
{
closed = 1;
nodes = (
(539,231,l),
(236,354,l),
(539,492,l),
(539,637,l),
(45,390,l),
(45,306,l),
(539,87,l)
);
}
);
width = 586;
}
);
script = "";
subCategory = Math;
unicode = 60;
},
{
category = Symbol;
glyphname = equal;
layers = (
{
layerId = "84606D06-D269-45BD-896C-8402F9D7AD38";
shapes = (
{
closed = 1;
nodes = (
(541,398,l),
(541,529,l),
(45,529,l),
(45,398,l)
);
},
{
closed = 1;
nodes = (
(541,175,l),
(541,307,l),
(45,307,l),
(45,175,l)
);
}
);
width = 586;
}
);
script = "";
subCategory = Math;
unicode = 61;
},
{
category = Symbol;
glyphname = greater;
layers = (
{
layerId = "84606D06-D269-45BD-896C-8402F9D7AD38";
shapes = (
{
closed = 1;
nodes = (
(45,87,l),
(539,306,l),
(539,390,l),
(45,637,l),
(45,492,l),
(348,354,l),
(45,231,l)
);
}
);
width = 586;
}
);
script = "";
subCategory = Math;
unicode = 62;
},
{
category = Punctuation;
glyphname = question;
layers = (
{
layerId = "84606D06-D269-45BD-896C-8402F9D7AD38";
shapes = (
{
closed = 1;
nodes = (
(282,252,l),
(299,303,o),
(307,317,o),
(383,363,cs),
(452,405,o),
(518,449,o),
(518,559,cs),
(518,661,o),
(436,724,o),
(304,724,cs),
(220,724,o),
(141,695,o),
(79,658,c),
(137,520,l),
(199,556,o),
(254,573,o),
(290,573,cs),
(324,573,o),
(334,559,o),
(334,539,cs),
(334,516,o),
(320,498,o),
(255,455,cs),
(170,397,o),
(142,361,o),
(122,252,c)
);
},
{
closed = 1;
nodes = (
(231,-12,o),
(279,25,o),
(279,100,cs),
(279,148,o),
(247,176,o),
(191,176,cs),
(111,176,o),
(72,126,o),
(72,62,cs),
(72,24,o),
(94,-12,o),
(163,-12,cs)
);
}
);
width = 488;
}
);
script = "";
subCategory = Other;
unicode = 63;
},
{
category = Symbol;
glyphname = at;
layers = (
{
layerId = "84606D06-D269-45BD-896C-8402F9D7AD38";
shapes = (
{
closed = 1;
nodes = (
(467,-91,o),
(558,-69,o),
(613,-43,c),
(613,67,l),
(535,36,o),
(443,21,o),
(379,21,cs),
(269,21,o),
(168,98,o),
(168,256,cs),
(168,473,o),
(303,612,o),
(486,612,cs),
(659,612,o),
(738,530,o),
(738,401,cs),
(738,269,o),
(681,209,o),
(627,209,cs),
(614,209,o),
(608,217,o),
(608,229,cs),
(608,248,o),
(612,267,o),
(619,296,cs),
(668,498,l),
(616,518,o),
(558,532,o),
(504,532,cs),
(322,532,o),
(237,376,o),
(237,250,cs),
(237,160,o),
(290,101,o),
(366,101,cs),
(427,101,o),
(466,122,o),
(497,164,c),
(502,164,l),
(519,120,o),
(557,101,o),
(609,101,cs),
(756,101,o),
(866,235,o),
(866,404,cs),
(866,607,o),
(726,724,o),
(498,724,cs),
(255,724,o),
(40,556,o),
(40,244,cs),
(40,34,o),
(179,-91,o),
(381,-91,cs)
);
},
{
closed = 1;
nodes = (
(387,209,o),
(373,224,o),
(373,260,cs),
(373,323,o),
(410,424,o),
(494,424,cs),
(504,424,o),
(512,422,o),
(519,419,c),
(496,326,ls),
(473,236,o),
(449,209,o),
(411,209,cs)
);
}
);
width = 897;
}
);
script = "";
subCategory = Other;
unicode = 64;
},
{
category = Letter;
glyphname = A;
kernLeft = A.right;
kernRight = A.left;
layers = (
{
anchors = (
{
name = bottom;
pos = (279,0);
},
{
name = center;
pos = (275,357);
},
{
name = top;
pos = (431,714);
},
{
name = topright;
pos = (749,714);
}
);
layerId = "84606D06-D269-45BD-896C-8402F9D7AD38";
shapes = (
{
closed = 1;
nodes = (
(139,0,l),
(200,134,l),
(419,134,l),
(424,0,l),
(610,0,l),
(550,714,l),
(304,714,l),
(-59,0,l)
);
},
{
closed = 1;
nodes = (
(367,495,ls),
(381,525,o),
(392,553,o),
(402,583,c),
(405,583,l),
(404,555,o),
(405,523,o),
(406,491,cs),
(413,286,l),
(270,286,l)
);
}
);
width = 676;
}
);
script = latin;
subCategory = Uppercase;
unicode = 65;
},
{
category = Letter;
glyphname = B;
layers = (
{
anchors = (
{
name = bottom;
pos = (292,0);
},
{
name = center;
pos = (318,357);
},
{
name = top;
pos = (410,714);
},
{
name = topright;
pos = (707,714);
}
);
layerId = "84606D06-D269-45BD-896C-8402F9D7AD38";
shapes = (
{
closed = 1;
nodes = (
(283,0,ls),
(442,0,o),
(569,67,o),
(569,234,cs),
(569,302,o),
(532,351,o),
(475,370,c),
(475,374,l),
(568,402,o),
(620,461,o),
(620,558,cs),
(620,649,o),
(558,714,o),
(405,714,cs),
(167,714,l),
(16,0,l)
);
},
{
closed = 1;
nodes = (
(239,149,l),
(271,299,l),
(304,299,ls),
(358,299,o),
(377,277,o),
(377,232,cs),
(377,186,o),
(337,149,o),
(279,149,cs)
);
},
{
closed = 1;
nodes = (
(300,440,l),
(329,568,l),
(360,568,ls),
(402,568,o),
(422,550,o),
(422,518,cs),
(422,472,o),
(402,440,o),
(335,440,cs)
);
}
);
width = 634;
}
);
script = latin;
subCategory = Uppercase;
unicode = 66;
},
{
category = Letter;
glyphname = C;
kernLeft = O.right;
kernRight = C.left;
layers = (
{
anchors = (
{
name = bottom;
pos = (328,0);
},
{
name = center;
pos = (358,357);
},
{
name = top;
pos = (430,714);
},
{
name = topright;
pos = (703,714);
}
);
layerId = "84606D06-D269-45BD-896C-8402F9D7AD38";
shapes = (
{
closed = 1;
nodes = (
(389,-10,o),
(460,3,o),
(530,34,c),
(530,192,l),
(459,162,o),
(408,148,o),
(350,148,cs),
(282,148,o),
(244,191,o),
(244,278,cs),
(244,425,o),
(314,566,o),
(430,566,cs),
(485,566,o),
(532,548,o),
(593,512,c),
(665,661,l),
(598,701,o),
(525,725,o),
(430,725,cs),
(162,725,o),
(51,481,o),
(51,268,cs),
(51,102,o),
(136,-10,o),
(315,-10,cs)
);
}
);
width = 630;
}
);
script = latin;
subCategory = Uppercase;
unicode = 67;
},
{
category = Letter;
glyphname = D;
kernRight = O.left;
layers = (
{
anchors = (
{
name = bottom;
pos = (284,0);
},
{
name = center;
pos = (384,357);
},
{
name = top;
pos = (425,714);
},
{
name = topright;
pos = (757,714);
}
);
layerId = "84606D06-D269-45BD-896C-8402F9D7AD38";
shapes = (
{
closed = 1;
nodes = (
(246,0,ls),
(501,0,o),
(653,167,o),
(653,444,cs),
(653,620,o),
(545,714,o),
(370,714,cs),
(167,714,l),
(16,0,l)
);
},
{
closed = 1;
nodes = (
(241,158,l),
(325,558,l),
(360,558,ls),
(423,558,o),
(460,515,o),
(460,434,cs),
(460,269,o),
(385,158,o),
(275,158,cs)
);
}
);
width = 684;
}
);
script = latin;
subCategory = Uppercase;
unicode = 68;
},
{
category = Letter;
glyphname = E;
kernRight = E.left;
layers = (
{
anchors = (
{
name = bottom;
pos = (262,0);
},
{
name = center;
pos = (303,357);
},
{
name = top;
pos = (384,714);
},
{
name = topright;
pos = (635,714);
}
);
layerId = "84606D06-D269-45BD-896C-8402F9D7AD38";
shapes = (
{
closed = 1;
nodes = (
(440,0,l),
(473,157,l),
(240,157,l),
(268,292,l),
(485,292,l),
(520,447,l),
(303,447,l),
(326,559,l),
(559,559,l),
(591,714,l),
(167,714,l),
(16,0,l)
);
}
);
width = 562;
}
);
script = latin;
subCategory = Uppercase;
unicode = 69;
},
{
category = Letter;
glyphname = F;
layers = (
{
anchors = (
{
name = bottom;
pos = (226,0);
},
{
name = center;
pos = (302,357);
},
{
name = top;
pos = (378,714);
},
{
name = topright;
pos = (642,714);
}
);
layerId = "84606D06-D269-45BD-896C-8402F9D7AD38";
shapes = (
{
closed = 1;
nodes = (
(207,0,l),
(262,267,l),
(476,267,l),
(510,423,l),
(297,423,l),
(325,559,l),
(555,559,l),
(588,714,l),
(167,714,l),
(16,0,l)
);
}
);
width = 569;
}
);
script = latin;
subCategory = Uppercase;
unicode = 70;
},
{
category = Letter;
glyphname = G;
kernLeft = O.right;
layers = (
{
anchors = (
{
name = bottom;
pos = (332,0);
},
{
name = center;
pos = (369,357);
},
{
name = top;
pos = (456,714);
},
{
name = topright;
pos = (771,714);
}
);
layerId = "84606D06-D269-45BD-896C-8402F9D7AD38";
shapes = (
{
closed = 1;
nodes = (
(426,-10,o),
(505,8,o),
(573,30,c),
(655,418,l),
(357,418,l),
(324,269,l),
(436,269,l),
(411,156,l),
(385,151,o),
(372,149,o),
(346,149,cs),
(280,149,o),
(244,188,o),
(244,278,cs),
(244,389,o),
(300,566,o),
(467,566,cs),
(524,566,o),
(575,546,o),
(616,522,c),
(688,673,l),
(630,707,o),
(552,725,o),
(469,725,cs),
(185,725,o),
(51,504,o),
(51,275,cs),
(51,86,o),
(157,-10,o),
(319,-10,cs)
);
}
);
width = 698;
}
);
script = latin;
subCategory = Uppercase;
unicode = 71;
},
{
category = Letter;
glyphname = H;
layers = (
{
anchors = (
{
name = bottom;
pos = (297,0);
},
{
name = center;
pos = (399,357);
},
{
name = top;
pos = (440,714);
},
{
name = topright;
pos = (787,714);
}
);
layerId = "84606D06-D269-45BD-896C-8402F9D7AD38";
shapes = (
{
closed = 1;
nodes = (
(207,0,l),
(269,291,l),
(438,291,l),
(377,0,l),
(568,0,l),
(719,714,l),
(528,714,l),
(473,449,l),
(303,449,l),
(358,714,l),
(167,714,l),
(16,0,l)
);
}
);
width = 714;
}
);
script = latin;
subCategory = Uppercase;
unicode = 72;
},
{
category = Letter;
glyphname = I;
layers = (
{
anchors = (
{
name = bottom;
pos = (154,0);
},
{
name = center;
pos = (222,357);
},
{
name = top;
pos = (297,714);
},
{
name = topright;
pos = (499,714);
}
);
layerId = "84606D06-D269-45BD-896C-8402F9D7AD38";
shapes = (
{
closed = 1;
nodes = (
(328,0,l),
(351,109,l),
(272,148,l),
(360,562,l),
(458,604,l),
(481,714,l),
(114,714,l),
(91,604,l),
(169,562,l),
(81,148,l),
(-13,109,l),
(-36,0,l)
);
}
);
width = 426;
}
);
script = latin;
subCategory = Uppercase;
unicode = 73;
},
{
category = Letter;
glyphname = J;
layers = (
{
anchors = (
{
name = bottom;
pos = (-56,-225);
},
{
name = center;
pos = (108,244);
},
{
name = top;
pos = (280,714);
},
{
name = topright;
pos = (446,714);
}
);
layerId = "84606D06-D269-45BD-896C-8402F9D7AD38";
shapes = (
{
closed = 1;
nodes = (
(116,-225,o),
(191,-155,o),
(231,33,cs),
(377,714,l),
(186,714,l),
(45,57,ls),
(24,-42,o),
(-14,-67,o),
(-75,-67,cs),
(-110,-67,o),
(-136,-61,o),
(-160,-55,c),
(-160,-211,l),
(-129,-219,o),
(-90,-225,o),
(-56,-225,cs)
);
}
);
width = 373;
}
);
script = latin;
subCategory = Uppercase;
unicode = 74;
},
{
category = Letter;
glyphname = K;
kernRight = K.left;
layers = (
{
anchors = (
{
name = bottom;
pos = (292,0);
},
{
name = center;
pos = (379,357);
},
{
name = top;
pos = (438,714);
},
{
name = topright;
pos = (742,714);
}
);
layerId = "84606D06-D269-45BD-896C-8402F9D7AD38";
shapes = (
{
closed = 1;
nodes = (
(207,0,l),
(260,255,l),
(307,282,l),
(392,0,l),
(606,0,l),
(474,385,l),
(743,714,l),
(519,714,l),
(363,509,l),
(292,409,l),
(358,714,l),
(167,714,l),
(16,0,l)
);
}
);
width = 669;
}
);
script = latin;
subCategory = Uppercase;
unicode = 75;
},
{
category = Letter;
glyphname = L;
kernRight = L.left;
layers = (
{
anchors = (
{
name = bottom;
pos = (234,0);
},
{
name = center;
pos = (306,357);
},
{
name = top;
pos = (288,714);
},
{
name = topright;
pos = (510,714);
}
);
layerId = "84606D06-D269-45BD-896C-8402F9D7AD38";
shapes = (
{
closed = 1;
nodes = (
(440,0,l),
(473,156,l),
(240,156,l),
(358,714,l),
(167,714,l),
(16,0,l)
);
}
);
width = 527;
}
);
script = latin;
subCategory = Uppercase;
unicode = 76;
},
{
category = Letter;
glyphname = M;
layers = (
{
anchors = (
{
name = bottom;
pos = (378,0);
},
{
name = center;
pos = (465,357);
},
{
name = top;
pos = (533,714);
},
{
name = topright;
pos = (982,714);
}
);
layerId = "84606D06-D269-45BD-896C-8402F9D7AD38";
shapes = (
{
closed = 1;
nodes = (
(186,0,l),
(241,262,ls),
(254,326,o),
(267,411,o),
(283,512,cs),
(287,512,l),
(287,0,l),
(468,0,l),
(703,512,l),
(707,512,l),
(700,479,o),
(679,417,o),
(647,268,cs),
(590,0,l),
(761,0,l),
(914,714,l),
(657,714,l),
(424,207,l),
(420,207,l),
(420,714,l),
(167,714,l),
(16,0,l)
);
}
);
width = 909;
}
);
script = latin;
subCategory = Uppercase;
unicode = 77;
},
{
category = Letter;
glyphname = N;
layers = (
{
anchors = (
{
name = bottom;
pos = (330,0);
},
{
name = center;
pos = (405,357);
},
{
name = top;
pos = (493,714);
},
{
name = topright;
pos = (863,714);
}
);
layerId = "84606D06-D269-45BD-896C-8402F9D7AD38";
shapes = (
{
closed = 1;
nodes = (
(186,0,l),
(249,298,ls),
(263,363,o),
(275,476,o),
(277,502,c),
(281,502,l),
(422,0,l),
(644,0,l),
(795,714,l),
(625,714,l),
(561,415,ls),
(551,365,o),
(538,277,o),
(533,234,cs),
(529,234,l),
(389,714,l),
(167,714,l),
(16,0,l)
);
}
);
width = 790;
}
);
script = latin;
subCategory = Uppercase;
unicode = 78;
},
{
category = Letter;
glyphname = O;
kernLeft = O.right;
kernRight = O.left;
layers = (
{
anchors = (
{
name = bottom;
pos = (326,0);
},
{
name = center;
pos = (411,357);
},
{
name = top;
pos = (455,714);
},
{
name = topright;
pos = (810,714);
}
);
layerId = "84606D06-D269-45BD-896C-8402F9D7AD38";
shapes = (
{
closed = 1;
nodes = (
(588,-10,o),
(706,228,o),
(706,450,cs),
(706,616,o),
(614,725,o),
(438,725,cs),
(173,725,o),
(51,487,o),
(51,265,cs),
(51,99,o),
(143,-10,o),
(325,-10,cs)
);
},
{
closed = 1;
nodes = (
(277,148,o),
(244,189,o),
(244,266,cs),
(244,410,o),
(315,567,o),
(422,567,cs),
(481,567,o),
(513,522,o),
(513,448,cs),
(513,284,o),
(438,148,o),
(342,148,cs)
);
}
);
width = 737;
}
);
script = latin;
subCategory = Uppercase;
unicode = 79;
},
{
category = Letter;
glyphname = P;
kernRight = P.left;
layers = (
{
anchors = (
{
name = bottom;
pos = (253,0);
},
{
name = center;
pos = (313,357);
},
{
name = top;
pos = (405,714);
},
{
name = topright;
pos = (696,714);
}
);
layerId = "84606D06-D269-45BD-896C-8402F9D7AD38";
shapes = (
{
closed = 1;
nodes = (
(207,0,l),
(256,237,l),
(298,237,ls),
(483,237,o),
(611,329,o),
(611,500,cs),
(611,620,o),
(538,714,o),
(349,714,cs),
(167,714,l),
(16,0,l)
);
},
{
closed = 1;
nodes = (
(290,393,l),
(325,558,l),
(354,558,ls),
(401,558,o),
(420,527,o),
(420,494,cs),
(420,436,o),
(381,393,o),
(321,393,cs)
);
}
);
width = 623;
}
);
script = latin;
subCategory = Uppercase;
unicode = 80;
},
{
category = Letter;
glyphname = Q;
kernLeft = O.right;
kernRight = O.left;
layers = (
{
anchors = (
{
name = bottom;
pos = (274,-170);
},
{
name = center;
pos = (378,277);
},
{
name = top;
pos = (462,714);
},
{
name = topright;
pos = (810,714);
}
);
layerId = "84606D06-D269-45BD-896C-8402F9D7AD38";
shapes = (
{
closed = 1;
nodes = (
(401,-170,l),
(615,-170,l),
(499,36,l),
(640,116,o),
(706,287,o),
(706,450,cs),
(706,616,o),
(614,725,o),
(441,725,cs),
(173,725,o),
(51,487,o),
(51,265,cs),
(51,99,o),
(143,-10,o),
(311,-10,cs),
(315,-10,o),
(318,-10,o),
(322,-10,c)
);
},
{
closed = 1;
nodes = (
(277,151,o),
(244,189,o),
(244,263,cs),
(244,427,o),
(320,565,o),
(425,565,cs),
(481,565,o),
(513,526,o),
(513,449,cs),
(513,288,o),
(438,151,o),
(333,151,cs)
);
}
);
width = 737;
}
);
script = latin;
subCategory = Uppercase;
unicode = 81;
},
{
category = Letter;
glyphname = R;
layers = (
{
anchors = (
{
name = bottom;
pos = (276,0);
},
{
name = center;
pos = (313,357);
},
{
name = top;
pos = (414,714);
},
{
name = topright;
pos = (723,714);
}
);
layerId = "84606D06-D269-45BD-896C-8402F9D7AD38";
shapes = (
{
closed = 1;
nodes = (
(207,0,l),
(262,260,l),
(298,260,l),
(393,0,l),
(601,0,l),
(472,299,l),
(534,326,o),
(610,387,o),
(610,518,cs),
(610,649,o),
(520,714,o),
(356,714,cs),
(167,714,l),
(16,0,l)
);
},
{
closed = 1;
nodes = (
(293,405,l),
(327,568,l),
(353,568,ls),
(402,568,o),
(419,540,o),
(419,506,cs),
(419,433,o),
(369,405,o),
(318,405,cs)
);
}
);
width = 650;
}
);
script = latin;
subCategory = Uppercase;
unicode = 82;
},
{
category = Letter;
glyphname = S;
layers = (
{
anchors = (
{
name = bottom;
pos = (213,0);
},
{
name = center;
pos = (289,357);
},
{
name = top;
pos = (359,714);
},
{
name = topright;
pos = (621,714);
}
);
layerId = "84606D06-D269-45BD-896C-8402F9D7AD38";
shapes = (
{
closed = 1;
nodes = (
(379,-10,o),
(477,77,o),
(477,219,cs),
(477,299,o),
(443,357,o),
(364,416,cs),
(301,463,o),
(285,486,o),
(285,516,cs),
(285,539,o),
(296,570,o),
(350,570,cs),
(394,570,o),
(447,550,o),
(492,527,c),
(558,672,l),
(499,705,o),
(425,724,o),
(348,724,cs),
(197,724,o),
(95,631,o),
(95,502,cs),
(95,415,o),
(138,357,o),
(204,303,cs),
(248,267,o),
(284,241,o),
(284,205,cs),
(284,168,o),
(259,147,o),
(211,147,cs),
(151,147,o),
(73,176,o),
(21,208,c),
(21,37,l),
(67,7,o),
(134,-10,o),
(205,-10,cs)
);
}
);
width = 548;
}
);
script = latin;
subCategory = Uppercase;
unicode = 83;
},
{
category = Letter;
glyphname = T;
kernLeft = T.right;
kernRight = T.left;
layers = (
{
anchors = (
{
name = bottom;
pos = (217,0);
},
{
name = center;
pos = (318,357);
},
{
name = top;
pos = (369,714);
},
{
name = topright;
pos = (625,714);
}
);
layerId = "84606D06-D269-45BD-896C-8402F9D7AD38";
shapes = (
{
closed = 1;
nodes = (
(306,0,l),
(422,556,l),
(577,556,l),
(612,714,l),
(110,714,l),
(76,556,l),
(231,556,l),
(115,0,l)
);
}
);
width = 552;
}
);
script = latin;
subCategory = Uppercase;
unicode = 84;
},
{
category = Letter;
glyphname = U;
kernLeft = U.right;
kernRight = U.left;
layers = (
{
anchors = (
{
name = bottom;
pos = (286,0);
},
{
name = center;
pos = (384,352);
},
{
name = top;
pos = (432,714);
},
{
name = topright;
pos = (774,714);
}
);
layerId = "84606D06-D269-45BD-896C-8402F9D7AD38";
shapes = (
{
closed = 1;
nodes = (
(489,-10,o),
(574,85,o),
(611,259,cs),
(708,714,l),
(517,714,l),
(424,278,ls),
(404,185,o),
(373,150,o),
(316,150,cs),
(275,150,o),
(253,173,o),
(253,212,cs),
(253,229,o),
(256,249,o),
(260,268,cs),
(355,714,l),
(164,714,l),
(67,263,ls),
(63,242,o),
(61,217,o),
(61,197,cs),
(61,77,o),
(149,-10,o),
(298,-10,cs)
);
}
);
width = 701;
}
);
script = latin;
subCategory = Uppercase;
unicode = 85;
},
{
category = Letter;
glyphname = V;
kernLeft = V.right;
kernRight = V.left;
layers = (
{
anchors = (
{
name = bottom;
pos = (228,0);
},
{
name = center;
pos = (382,357);
},
{
name = top;
pos = (375,714);
},
{
name = topright;
pos = (690,714);
}
);
layerId = "84606D06-D269-45BD-896C-8402F9D7AD38";
shapes = (
{
closed = 1;
nodes = (
(337,0,l),
(691,714,l),
(489,714,l),
(318,321,ls),
(304,291,o),
(281,225,o),
(269,173,c),
(265,173,l),
(272,213,o),
(274,302,o),
(272,354,cs),
(260,714,l),
(73,714,l),
(124,0,l)
);
}
);
width = 617;
}
);
script = latin;
subCategory = Uppercase;
unicode = 86;
},
{
category = Letter;
glyphname = W;
kernLeft = V.right;
kernRight = V.left;
layers = (
{
anchors = (
{
name = bottom;
pos = (400,0);
},
{
name = center;
pos = (547,357);
},
{
name = top;
pos = (546,714);
},
{
name = topright;
pos = (1008,714);
}
);
layerId = "84606D06-D269-45BD-896C-8402F9D7AD38";
shapes = (
{
closed = 1;
nodes = (
(310,0,l),
(420,259,ls),
(445,317,o),
(467,375,o),
(487,437,c),
(491,437,l),
(487,383,o),
(485,325,o),
(485,274,cs),
(485,0,l),
(710,0,l),
(1020,714,l),
(831,714,l),
(696,372,ls),
(674,316,o),
(645,232,o),
(630,180,c),
(626,180,l),
(630,227,o),
(631,294,o),
(631,327,cs),
(631,714,l),
(467,714,l),
(303,337,ls),
(282,289,o),
(259,232,o),
(245,188,c),
(241,188,l),
(246,232,o),
(249,299,o),
(250,356,cs),
(255,714,l),
(74,714,l),
(98,0,l)
);
}
);
width = 935;
}
);
script = latin;
subCategory = Uppercase;
unicode = 87;
},
{
category = Letter;
glyphname = X;
kernRight = K.left;
layers = (
{
anchors = (
{
name = bottom;
pos = (273,0);
},
{
name = center;
pos = (338,357);
},
{
name = top;
pos = (401,714);
},
{
name = topright;
pos = (736,714);
}
);
layerId = "84606D06-D269-45BD-896C-8402F9D7AD38";
shapes = (
{
closed = 1;
nodes = (
(156,0,l),
(321,243,l),
(392,0,l),
(603,0,l),
(475,360,l),
(738,714,l),
(519,714,l),
(368,485,l),
(308,714,l),
(105,714,l),
(214,379,l),
(-61,0,l)
);
}
);
width = 663;
}
);
script = latin;
subCategory = Uppercase;
unicode = 88;
},
{
category = Letter;
glyphname = Y;
kernLeft = Y.right;
kernRight = Y.left;
layers = (
{
anchors = (
{
name = bottom;
pos = (243,0);
},
{
name = center;
pos = (383,357);
},
{
name = top;
pos = (371,714);
},
{
name = topright;
pos = (677,714);
}
);
layerId = "84606D06-D269-45BD-896C-8402F9D7AD38";
shapes = (
{
closed = 1;
nodes = (
(328,0,l),
(387,277,l),
(686,714,l),
(473,714,l),
(321,449,l),
(277,714,l),
(80,714,l),
(196,277,l),
(137,0,l)
);
}
);
width = 604;
}
);
script = latin;
subCategory = Uppercase;
unicode = 89;
},
{
category = Letter;
glyphname = Z;
kernLeft = Z.right;
kernRight = Z.left;
layers = (
{
anchors = (
{
name = bottom;
pos = (199,0);
},
{
name = center;
pos = (275,357);
},
{
name = top;
pos = (367,714);
},
{
name = topright;
pos = (612,714);
}
);
layerId = "84606D06-D269-45BD-896C-8402F9D7AD38";
shapes = (
{
closed = 1;
nodes = (
(460,0,l),
(493,156,l),
(228,156,l),
(570,594,l),
(595,714,l),
(114,714,l),
(81,558,l),
(315,558,l),
(-22,118,l),
(-45,0,l)
);
}
);
width = 539;
}
);
script = latin;
subCategory = Uppercase;
unicode = 90;
},
{
category = Punctuation;
glyphname = bracketleft;
kernRight = paren.left;
layers = (
{
layerId = "84606D06-D269-45BD-896C-8402F9D7AD38";
shapes = (
{
closed = 1;
nodes = (
(233,-168,l),
(259,-44,l),
(154,-44,l),
(293,610,l),
(398,610,l),
(425,734,l),
(166,734,l),
(-26,-168,l)
);
}
);
width = 360;
}
);
script = "";
subCategory = Parenthesis;
unicode = 91;
},
{
category = Punctuation;
glyphname = backslash;
layers = (
{
layerId = "84606D06-D269-45BD-896C-8402F9D7AD38";
shapes = (
{
closed = 1;
nodes = (
(380,-10,l),
(259,724,l),
(108,724,l),
(224,-10,l)
);
}
);
width = 467;
}
);
script = "";
subCategory = Other;
unicode = 92;
},
{
category = Punctuation;
glyphname = bracketright;
kernLeft = Paren.right;
layers = (
{
layerId = "84606D06-D269-45BD-896C-8402F9D7AD38";
shapes = (
{
closed = 1;
nodes = (
(192,-168,l),
(384,734,l),
(126,734,l),
(99,610,l),
(204,610,l),
(65,-44,l),
(-39,-44,l),
(-65,-168,l)
);
}
);
width = 360;
}
);
script = "";
subCategory = Parenthesis;
unicode = 93;
},
{
category = Symbol;
glyphname = asciicircum;
layers = (
{
layerId = "84606D06-D269-45BD-896C-8402F9D7AD38";
shapes = (
{
closed = 1;
nodes = (
(142,245,l),
(318,523,l),
(394,245,l),
(528,245,l),
(389,714,l),
(305,714,l),
(-3,245,l)
);
}
);
width = 535;
}
);
script = "";
subCategory = Other;
unicode = 94;
},
{
category = Punctuation;
glyphname = underscore;
layers = (
{
layerId = "84606D06-D269-45BD-896C-8402F9D7AD38";
shapes = (
{
closed = 1;
nodes = (
(364,-185,l),
(392,-65,l),
(-62,-65,l),
(-90,-185,l)
);
}
);
width = 450;
}
);
script = "";
subCategory = Other;
unicode = 95;
},
{
category = Mark;
glyphname = grave;
layers = (
{
anchors = (
{
name = _top;
pos = (282,553);
}
);
layerId = "84606D06-D269-45BD-896C-8402F9D7AD38";
shapes = (
{
closed = 1;
nodes = (
(383,606,l),
(383,618,l),
(360,669,o),
(345,723,o),
(337,766,c),
(144,766,l),
(144,756,l),
(168,707,o),
(224,647,o),
(268,606,c)
);
}
);
width = 353;
}
);
script = "";
subCategory = Spacing;
unicode = 96;
},
{
category = Letter;
glyphname = a;
kernLeft = a.right;
kernRight = n.left;
layers = (
{
anchors = (
{
name = bottom;
pos = (245,0);
},
{
name = center;
pos = (318,276);
},
{
name = top;
pos = (363,553);
},
{
name = topright;
pos = (646,553);
}
);
layerId = "84606D06-D269-45BD-896C-8402F9D7AD38";
shapes = (
{
closed = 1;
nodes = (
(263,-10,o),
(300,19,o),
(329,60,c),
(333,60,l),
(328,0,l),
(479,0,l),
(596,553,l),
(445,553,l),
(419,485,l),
(415,485,l),
(388,532,o),
(350,563,o),
(287,563,cs),
(119,563,o),
(41,336,o),
(41,201,cs),
(41,44,o),
(113,-10,o),
(198,-10,cs)
);
},
{
closed = 1;
nodes = (
(248,142,o),
(234,167,o),
(234,212,cs),
(234,307,o),
(279,411,o),
(331,411,cs),
(358,411,o),
(371,383,o),
(371,341,cs),
(371,321,o),
(368,300,o),
(365,280,cs),
(353,209,o),
(319,142,o),
(276,142,cs)
);
}
);
width = 607;
}
);
script = latin;
subCategory = Lowercase;
unicode = 97;
},
{
category = Letter;
glyphname = b;
kernLeft = b;
kernRight = o.left;
layers = (
{
anchors = (
{
name = bottom;
pos = (250,0);
},
{
name = center;
pos = (288,375);
},
{
name = top;
pos = (427,760);
},
{
name = topright;
pos = (690,760);
}
);
layerId = "84606D06-D269-45BD-896C-8402F9D7AD38";
shapes = (
{
closed = 1;
nodes = (
(489,-10,o),
(566,217,o),
(566,352,cs),
(566,509,o),
(494,563,o),
(409,563,c),
(347,563,o),
(323,532,o),
(297,500,c),
(293,500,l),
(305,528,o),
(325,586,o),
(337,647,cs),
(361,760,l),
(172,760,l),
(11,0,l),
(161,0,l),
(185,61,l),
(189,61,l),
(228,10,o),
(265,-10,o),
(321,-10,cs)
);
},
{
closed = 1;
nodes = (
(249,142,o),
(237,170,o),
(237,212,cs),
(237,294,o),
(272,411,o),
(331,411,cs),
(359,411,o),
(373,386,o),
(373,341,cs),
(373,246,o),
(327,142,o),
(275,142,c)
);
}
);
width = 607;
}
);
script = latin;
subCategory = Lowercase;
unicode = 98;
},
{
category = Letter;
glyphname = c;
kernLeft = o.right;
layers = (
{
anchors = (
{
name = bottom;
pos = (230,0);
},
{
name = center;
pos = (278,276);
},
{
name = top;
pos = (322,553);
},
{
name = topright;
pos = (543,553);
}
);
layerId = "84606D06-D269-45BD-896C-8402F9D7AD38";
shapes = (
{
closed = 1;
nodes = (
(324,-10,o),
(378,6,o),
(430,34,c),
(430,184,l),
(381,158,o),
(339,142,o),
(292,142,cs),
(254,142,o),
(231,163,o),
(231,228,cs),
(231,300,o),
(268,413,o),
(346,413,cs),
(382,413,o),
(423,399,o),
(456,384,c),
(516,524,l),
(460,550,o),
(406,563,o),
(337,563,cs),
(157,563,o),
(41,411,o),
(41,216,cs),
(41,55,o),
(135,-10,o),
(247,-10,cs)
);
}
);
width = 504;
}
);
script = latin;
subCategory = Lowercase;
unicode = 99;
},
{
category = Letter;
glyphname = d;
kernLeft = o.right;
layers = (
{
anchors = (
{
name = bottom;
pos = (247,0);
},
{
name = center;
pos = (361,277);
},
{
name = top;
pos = (405,760);
},
{
name = topright;
pos = (684,760);
}
);
layerId = "84606D06-D269-45BD-896C-8402F9D7AD38";
shapes = (
{
closed = 1;
nodes = (
(268,-10,o),
(302,22,o),
(329,60,c),
(333,60,l),
(328,0,l),
(479,0,l),
(640,760,l),
(449,760,l),
(419,613,ls),
(409,567,o),
(406,501,o),
(406,489,c),
(402,489,l),
(372,534,o),
(346,563,o),
(286,563,cs),
(118,563,o),
(41,336,o),
(41,201,cs),
(41,44,o),
(113,-10,o),
(198,-10,cs)
);
},
{
closed = 1;
nodes = (
(248,142,o),
(234,167,o),
(234,212,cs),
(234,307,o),
(280,411,o),
(332,411,cs),
(359,411,o),
(371,383,o),
(371,341,cs),
(371,260,o),
(334,142,o),
(276,142,cs)
);
}
);
width = 604;
}
);
script = latin;
subCategory = Lowercase;
unicode = 100;
},
{
category = Letter;
glyphname = e;
kernLeft = o.right;
kernRight = o.left;
layers = (
{
anchors = (
{
name = bottom;
pos = (260,0);
},
{
name = center;
pos = (299,276);
},
{
name = top;
pos = (352,553);
},
{
name = topright;
pos = (618,553);
}
);
layerId = "84606D06-D269-45BD-896C-8402F9D7AD38";
shapes = (
{
closed = 1;
nodes = (
(356,-10,o),
(412,10,o),
(471,40,c),
(471,174,l),
(414,144,o),
(367,126,o),
(311,126,cs),
(258,126,o),
(231,149,o),
(231,198,cs),
(231,201,o),
(231,203,o),
(231,206,c),
(260,206,ls),
(466,206,o),
(557,287,o),
(557,409,cs),
(557,502,o),
(482,563,o),
(358,563,cs),
(143,563,o),
(41,390,o),
(41,209,cs),
(41,73,o),
(120,-10,o),
(260,-10,cs)
);
},
{
closed = 1;
nodes = (
(250,324,l),
(257,375,o),
(293,435,o),
(337,435,cs),
(365,435,o),
(378,419,o),
(378,398,cs),
(378,364,o),
(349,324,o),
(264,324,cs)
);
}
);
width = 579;
}
);
script = latin;
subCategory = Lowercase;
unicode = 101;
},
{
category = Letter;
glyphname = f;
kernLeft = f.right;
kernRight = f.left;
layers = (
{
anchors = (
{
name = bottom;
pos = (-1,-240);
},
{
name = center;
pos = (205,262);
},
{
name = top;
pos = (366,765);
},
{
name = topright;
pos = (534,765);
}
);
layerId = "84606D06-D269-45BD-896C-8402F9D7AD38";
shapes = (
{
closed = 1;
nodes = (
(134,-240,o),
(194,-163,o),
(217,-57,cs),
(317,411,l),
(419,411,l),
(451,553,l),
(348,553,l),
(356,588,ls),
(361,611,o),
(378,623,o),
(401,623,cs),
(422,623,o),
(445,617,o),
(464,608,c),
(512,737,l),
(478,754,o),
(426,765,o),
(374,765,cs),
(262,765,o),
(196,712,o),
(168,587,cs),
(160,551,l),
(68,504,l),
(47,411,l),
(128,411,l),
(35,-27,ls),
(26,-69,o),
(3,-88,o),
(-45,-88,cs),
(-63,-88,o),
(-84,-84,o),
(-102,-79,c),
(-102,-227,l),
(-79,-234,o),
(-36,-240,o),
(-1,-240,cs)
);
}
);
width = 410;
}
);
script = latin;
subCategory = Lowercase;
unicode = 102;
},
{
category = Letter;
glyphname = g;
kernLeft = g.right;
layers = (
{
anchors = (
{
name = bottom;
pos = (194,-240);
},
{
name = center;
pos = (304,161);
},
{
name = top;
pos = (357,553);
},
{
name = topright;
pos = (646,553);
}
);
layerId = "84606D06-D269-45BD-896C-8402F9D7AD38";
shapes = (
{
closed = 1;
nodes = (
(326,-240,o),
(439,-185,o),
(476,-13,c),
(596,553,l),
(445,553,l),
(419,485,l),
(415,485,l),
(379,540,o),
(349,563,o),
(286,563,cs),
(118,563,o),
(41,336,o),
(41,199,cs),
(41,48,o),
(104,-5,o),
(187,-5,cs),
(250,-5,o),
(282,21,o),
(308,54,c),
(312,54,l),
(307,38,o),
(302,19,o),
(299,4,cs),
(294,-18,l),
(282,-64,o),
(247,-96,o),
(186,-96,cs),
(123,-96,o),
(64,-81,o),
(13,-54,c),
(13,-209,l),
(60,-226,o),
(109,-240,o),
(191,-240,cs)
);
},
{
closed = 1;
nodes = (
(248,142,o),
(234,167,o),
(234,212,cs),
(234,307,o),
(280,411,o),
(332,411,cs),
(359,411,o),
(371,383,o),
(371,341,cs),
(371,260,o),
(334,142,o),
(276,142,cs)
);
}
);
width = 607;
}
);
script = latin;
subCategory = Lowercase;
unicode = 103;
},
{
category = Letter;
glyphname = h;
kernLeft = b;
layers = (
{
anchors = (
{
name = bottom;
pos = (259,0);
},
{
name = center;
pos = (370,277);
},
{
name = top;
pos = (265,760);
},
{
name = topright;
pos = (665,760);
}
);
layerId = "84606D06-D269-45BD-896C-8402F9D7AD38";
shapes = (
{
closed = 1;
nodes = (
(200,0,l),
(257,270,ls),
(278,372,o),
(310,413,o),
(347,413,cs),
(367,413,o),
(384,399,o),
(384,371,cs),
(384,348,o),
(379,319,o),
(375,302,cs),
(312,0,l),
(501,0,l),
(563,294,ls),
(570,329,o),
(575,369,o),
(575,406,cs),
(575,491,o),
(532,563,o),
(429,563,cs),
(374,563,o),
(330,544,o),
(296,500,c),
(292,500,l),
(306,534,o),
(325,591,o),
(335,638,cs),
(361,760,l),
(172,760,l),
(11,0,l)
);
}
);
width = 622;
}
);
script = latin;
subCategory = Lowercase;
unicode = 104;
},
{
category = Letter;
glyphname = i;
layers = (
{
anchors = (
{
name = bottom;
pos = (104,0);
},
{
name = center;
pos = (182,388);
},
{
name = top;
pos = (270,777);
},
{
name = topright;
pos = (412,777);
}
);
layerId = "84606D06-D269-45BD-896C-8402F9D7AD38";
shapes = (
{
closed = 1;
nodes = (
(200,0,l),
(318,553,l),
(128,553,l),
(11,0,l)
);
},
{
closed = 1;
nodes = (
(319,606,o),
(354,647,o),
(354,708,cs),
(354,759,o),
(311,777,o),
(261,777,cs),
(192,777,o),
(151,741,o),
(151,675,cs),
(151,624,o),
(191,606,o),
(244,606,cs)
);
}
);
width = 325;
}
);
script = latin;
subCategory = Lowercase;
unicode = 105;
},
{
category = Letter;
glyphname = j;
layers = (
{
anchors = (
{
name = bottom;
pos = (-28,-240);
},
{
name = center;
pos = (114,268);
},
{
name = top;
pos = (270,777);
},
{
name = topright;
pos = (412,777);
}
);
layerId = "84606D06-D269-45BD-896C-8402F9D7AD38";
shapes = (
{
closed = 1;
nodes = (
(112,-240,o),
(173,-146,o),
(194,-46,cs),
(321,553,l),
(132,553,l),
(11,-16,ls),
(0,-68,o),
(-34,-88,o),
(-74,-88,cs),
(-91,-88,o),
(-105,-87,o),
(-129,-79,c),
(-129,-227,l),
(-106,-234,o),
(-63,-240,o),
(-28,-240,cs)
);
},
{
closed = 1;
nodes = (
(323,606,o),
(358,647,o),
(358,708,cs),
(358,759,o),
(315,777,o),
(265,777,cs),
(196,777,o),
(155,741,o),
(155,675,cs),
(155,624,o),
(195,606,o),
(248,606,cs)
);
}
);
width = 325;
}
);
script = latin;
subCategory = Lowercase;
unicode = 106;
},
{
category = Letter;
glyphname = k;
kernLeft = b;
kernRight = k.left;
layers = (
{
anchors = (
{
name = bottom;
pos = (262,0);
},
{
name = center;
pos = (341,380);
},
{
name = top;
pos = (261,760);
},
{
name = topright;
pos = (600,890);
}
);
layerId = "84606D06-D269-45BD-896C-8402F9D7AD38";
shapes = (
{
closed = 1;
nodes = (
(200,0,l),
(234,165,l),
(283,191,l),
(351,0,l),
(565,0,l),
(431,303,l),
(671,553,l),
(455,553,l),
(264,326,l),
(260,326,l),
(268,348,o),
(283,400,o),
(291,436,cs),
(359,760,l),
(170,760,l),
(11,0,l)
);
}
);
width = 617;
}
);
script = latin;
subCategory = Lowercase;
unicode = 107;
},
{
category = Letter;
glyphname = l;
kernLeft = b;
layers = (
{
anchors = (
{
name = bottom;
pos = (104,0);
},
{
name = center;
pos = (222,277);
},
{
name = top;
pos = (267,760);
},
{
name = topright;
pos = (379,760);
}
);
layerId = "84606D06-D269-45BD-896C-8402F9D7AD38";
shapes = (
{
closed = 1;
nodes = (
(200,0,l),
(361,760,l),
(172,760,l),
(11,0,l)
);
}
);
width = 325;
}
);
script = latin;
subCategory = Lowercase;
unicode = 108;
},
{
category = Letter;
glyphname = m;
kernLeft = n.right;
kernRight = m;
layers = (
{
anchors = (
{
name = bottom;
pos = (413,0);
},
{
name = center;
pos = (445,281);
},
{
name = top;
pos = (539,553);
},
{
name = topright;
pos = (965,553);
}
);
layerId = "84606D06-D269-45BD-896C-8402F9D7AD38";
shapes = (
{
closed = 1;
nodes = (
(200,0,l),
(258,269,ls),
(283,383,o),
(314,413,o),
(351,413,cs),
(371,413,o),
(386,400,o),
(386,367,cs),
(386,351,o),
(382,323,o),
(379,308,cs),
(315,0,l),
(504,0,l),
(558,265,ls),
(578,363,o),
(606,413,o),
(654,413,cs),
(675,413,o),
(688,399,o),
(688,373,cs),
(688,345,o),
(684,321,o),
(681,308,cs),
(618,0,l),
(807,0,l),
(868,300,ls),
(875,335,o),
(879,370,o),
(879,400,cs),
(879,507,o),
(830,563,o),
(739,563,cs),
(667,563,o),
(613,531,o),
(571,462,c),
(567,462,l),
(550,527,o),
(511,563,o),
(435,563,cs),
(359,563,o),
(314,535,o),
(275,462,c),
(271,462,l),
(279,553,l),
(128,553,l),
(11,0,l)
);
}
);
width = 926;
}
);
script = latin;
subCategory = Lowercase;
unicode = 109;
},
{
category = Letter;
glyphname = n;
kernLeft = n.right;
kernRight = m;
layers = (
{
anchors = (
{
name = bottom;
pos = (256,0);
},
{
name = center;
pos = (293,281);
},
{
name = top;
pos = (376,553);
},
{
name = topright;
pos = (661,553);
}
);
layerId = "84606D06-D269-45BD-896C-8402F9D7AD38";
shapes = (
{
closed = 1;
nodes = (
(200,0,l),
(257,270,ls),
(277,368,o),
(310,413,o),
(347,413,cs),
(367,413,o),
(384,399,o),
(384,371,cs),
(384,348,o),
(379,319,o),
(375,302,cs),
(312,0,l),
(501,0,l),
(563,294,ls),
(570,329,o),
(575,369,o),
(575,406,cs),
(575,491,o),
(532,563,o),
(429,563,cs),
(359,563,o),
(313,538,o),
(277,476,c),
(273,476,l),
(279,553,l),
(128,553,l),
(11,0,l)
);
}
);
width = 622;
}
);
script = latin;
subCategory = Lowercase;
unicode = 110;
},
{
category = Letter;
glyphname = o;
kernLeft = o.right;
kernRight = o.left;
layers = (
{
anchors = (
{
name = bottom;
pos = (253,0);
},
{
name = center;
pos = (363,277);
},
{
name = top;
pos = (358,553);
},
{
name = topright;
pos = (646,553);
}
);
layerId = "84606D06-D269-45BD-896C-8402F9D7AD38";
shapes = (
{
closed = 1;
nodes = (
(459,-10,o),
(566,161,o),
(566,350,cs),
(566,486,o),
(489,563,o),
(353,563,cs),
(148,563,o),
(41,392,o),
(41,203,cs),
(41,67,o),
(118,-10,o),
(254,-10,cs)
);
},
{
closed = 1;
nodes = (
(249,132,o),
(234,154,o),
(234,197,cs),
(234,306,o),
(275,421,o),
(331,421,cs),
(357,421,o),
(373,399,o),
(373,356,cs),
(373,247,o),
(331,132,o),
(275,132,cs)
);
}
);
width = 607;
}
);
script = latin;
subCategory = Lowercase;
unicode = 111;
},
{
category = Letter;
glyphname = p;
kernLeft = n.right;
kernRight = o.left;
layers = (
{
anchors = (
{
name = bottom;
pos = (194,-240);
},
{
name = center;
pos = (263,161);
},
{
name = top;
pos = (363,553);
},
{
name = topright;
pos = (646,553);
}
);
layerId = "84606D06-D269-45BD-896C-8402F9D7AD38";
shapes = (
{
closed = 1;
nodes = (
(149,-240,l),
(174,-120,ls),
(192,-34,o),
(197,9,o),
(201,61,c),
(205,61,l),
(231,18,o),
(268,-10,o),
(318,-10,cs),
(470,-10,o),
(566,176,o),
(566,359,cs),
(566,489,o),
(502,563,o),
(403,563,cs),
(347,563,o),
(307,538,o),
(277,491,c),
(273,491,l),
(279,553,l),
(128,553,l),
(-40,-240,l)
);
},
{
closed = 1;
nodes = (
(253,142,o),
(237,170,o),
(237,212,cs),
(237,297,o),
(273,411,o),
(331,411,cs),
(359,411,o),
(373,386,o),
(373,341,cs),
(373,246,o),
(332,142,o),
(280,142,cs)
);
}
);
width = 607;
}
);
script = latin;
subCategory = Lowercase;
unicode = 112;
},
{
category = Letter;
glyphname = q;
kernLeft = o.right;
layers = (
{
anchors = (
{
name = bottom;
pos = (194,-240);
},
{
name = center;
pos = (318,161);
},
{
name = top;
pos = (363,553);
},
{
name = topright;
pos = (646,553);
}
);
layerId = "84606D06-D269-45BD-896C-8402F9D7AD38";
shapes = (
{
closed = 1;
nodes = (
(237,-240,l),
(428,-240,l),
(596,553,l),
(445,553,l),
(419,485,l),
(415,485,l),
(379,540,o),
(349,563,o),
(286,563,cs),
(118,563,o),
(41,336,o),
(41,199,cs),
(41,48,o),
(116,-10,o),
(189,-10,cs),
(252,-10,o),
(284,19,o),
(310,54,c),
(314,54,l),
(303,25,o),
(284,-36,o),
(270,-97,cs)
);
},
{
closed = 1;
nodes = (
(248,142,o),
(234,167,o),
(234,212,cs),
(234,307,o),
(280,411,o),
(332,411,cs),
(359,411,o),
(371,383,o),
(371,341,cs),
(371,260,o),
(334,142,o),
(276,142,cs)
);
}
);
width = 607;
}
);
script = latin;
subCategory = Lowercase;
unicode = 113;
},
{
category = Letter;
glyphname = r;
kernLeft = n.right;
kernRight = r.left;
layers = (
{
anchors = (
{
name = bottom;
pos = (111,0);
},
{
name = center;
pos = (245,281);
},
{
name = top;
pos = (303,553);
},
{
name = topright;
pos = (476,553);
}
);
layerId = "84606D06-D269-45BD-896C-8402F9D7AD38";
shapes = (
{
closed = 1;
nodes = (
(200,0,l),
(252,243,ls),
(275,349,o),
(319,383,o),
(378,383,cs),
(402,383,o),
(424,378,o),
(438,372,c),
(479,559,l),
(473,561,o),
(454,563,o),
(440,563,cs),
(365,563,o),
(320,539,o),
(274,461,c),
(270,461,l),
(279,553,l),
(128,553,l),
(11,0,l)
);
}
);
width = 437;
}
);
script = latin;
subCategory = Lowercase;
unicode = 114;
},
{
category = Letter;
glyphname = s;
kernLeft = s.right;
kernRight = s;
layers = (
{
anchors = (
{
name = bottom;
pos = (192,0);
},
{
name = center;
pos = (248,276);
},
{
name = top;
pos = (290,553);
},
{
name = topright;
pos = (541,553);
}
);
layerId = "84606D06-D269-45BD-896C-8402F9D7AD38";
shapes = (
{
closed = 1;
nodes = (
(339,-10,o),
(435,55,o),
(435,192,cs),
(435,260,o),
(400,311,o),
(325,348,cs),
(279,371,o),
(260,382,o),
(260,401,cs),
(260,423,o),
(274,434,o),
(297,434,cs),
(335,434,o),
(386,412,o),
(423,388,c),
(482,511,l),
(426,546,o),
(367,563,o),
(295,563,cs),
(140,563,o),
(68,492,o),
(68,388,cs),
(68,318,o),
(98,272,o),
(167,234,cs),
(234,197,o),
(243,185,o),
(243,163,cs),
(243,133,o),
(200,129,o),
(177,129,cs),
(124,129,o),
(75,140,o),
(15,173,c),
(15,21,l),
(58,1,o),
(115,-10,o),
(189,-10,cs)
);
}
);
width = 502;
}
);
script = latin;
subCategory = Lowercase;
unicode = 115;
},
{
category = Letter;
glyphname = t;
kernLeft = t.right;
kernRight = t.left;
layers = (
{
anchors = (
{
name = bottom;
pos = (198,0);
},
{
name = center;
pos = (218,277);
},
{
name = top;
pos = (312,664);
},
{
name = topright;
pos = (449,890);
}
);
layerId = "84606D06-D269-45BD-896C-8402F9D7AD38";
shapes = (
{
closed = 1;
nodes = (
(272,-10,o),
(325,3,o),
(366,23,c),
(366,165,l),
(334,152,o),
(302,142,o),
(277,142,cs),
(259,142,o),
(246,151,o),
(246,173,cs),
(246,184,o),
(250,205,o),
(254,224,cs),
(295,411,l),
(436,411,l),
(467,553,l),
(326,553,l),
(350,664,l),
(224,664,l),
(157,547,l),
(51,504,l),
(31,411,l),
(106,411,l),
(65,215,ls),
(59,188,o),
(53,150,o),
(53,123,cs),
(53,29,o),
(104,-10,o),
(200,-10,cs)
);
}
);
width = 457;
}
);
script = latin;
subCategory = Lowercase;
unicode = 116;
},
{
category = Letter;
glyphname = u;
kernLeft = n.right;
kernRight = u;
layers = (
{
anchors = (
{
name = bottom;
pos = (248,0);
},
{
name = center;
pos = (329,271);
},
{
name = top;
pos = (363,553);
},
{
name = topright;
pos = (661,553);
}
);
layerId = "84606D06-D269-45BD-896C-8402F9D7AD38";
shapes = (
{
closed = 1;
nodes = (
(263,-10,o),
(309,15,o),
(345,77,c),
(349,77,l),
(343,0,l),
(494,0,l),
(611,553,l),
(422,553,l),
(365,284,ls),
(344,185,o),
(308,141,o),
(275,141,cs),
(255,141,o),
(238,155,o),
(238,183,cs),
(238,206,o),
(243,235,o),
(247,252,cs),
(310,553,l),
(121,553,l),
(59,259,ls),
(52,224,o),
(47,184,o),
(47,147,cs),
(47,62,o),
(90,-10,o),
(193,-10,cs)
);
}
);
width = 622;
}
);
script = latin;
subCategory = Lowercase;
unicode = 117;
},
{
category = Letter;
glyphname = v;
kernLeft = v.right;
kernRight = v.left;
layers = (
{
anchors = (
{
name = bottom;
pos = (212,0);
},
{
name = center;
pos = (322,276);
},
{
name = top;
pos = (315,553);
},
{
name = topright;
pos = (583,553);
}
);
layerId = "84606D06-D269-45BD-896C-8402F9D7AD38";
shapes = (
{
closed = 1;
nodes = (
(303,0,l),
(602,553,l),
(400,553,l),
(269,267,ls),
(261,250,o),
(249,220,o),
(244,201,c),
(240,201,l),
(242,222,o),
(242,249,o),
(241,275,cs),
(231,553,l),
(43,553,l),
(114,0,l)
);
}
);
width = 544;
}
);
script = latin;
subCategory = Lowercase;
unicode = 118;
},
{
category = Letter;
glyphname = w;
kernLeft = v.right;
kernRight = v.left;
layers = (
{
anchors = (
{
name = bottom;
pos = (348,0);
},
{
name = center;
pos = (464,276);
},
{
name = top;
pos = (455,553);
},
{
name = topright;
pos = (862,553);
}
);
layerId = "84606D06-D269-45BD-896C-8402F9D7AD38";
shapes = (
{
closed = 1;
nodes = (
(281,0,l),
(372,237,ls),
(387,277,o),
(411,345,o),
(425,400,c),
(429,400,l),
(423,347,o),
(419,270,o),
(417,219,cs),
(410,0,l),
(616,0,l),
(879,553,l),
(691,553,l),
(580,284,ls),
(565,247,o),
(555,217,o),
(543,177,c),
(539,177,l),
(544,221,o),
(545,261,o),
(546,281,cs),
(560,553,l),
(361,553,l),
(255,271,ls),
(245,243,o),
(234,209,o),
(226,177,c),
(222,177,l),
(225,208,o),
(228,247,o),
(228,283,cs),
(228,553,l),
(50,553,l),
(82,0,l)
);
}
);
width = 823;
}
);
script = latin;
subCategory = Lowercase;
unicode = 119;
},
{
category = Letter;
glyphname = x;
kernRight = k.left;
layers = (
{
anchors = (
{
name = bottom;
pos = (224,0);
},
{
name = center;
pos = (286,276);
},
{
name = top;
pos = (340,553);
},
{
name = topright;
pos = (605,553);
}
);
layerId = "84606D06-D269-45BD-896C-8402F9D7AD38";
shapes = (
{
closed = 1;
nodes = (
(163,0,l),
(266,160,l),
(305,0,l),
(514,0,l),
(403,272,l),
(630,553,l),
(406,553,l),
(315,400,l),
(278,553,l),
(72,553,l),
(173,282,l),
(-58,0,l)
);
}
);
width = 566;
}
);
script = latin;
subCategory = Lowercase;
unicode = 120;
},
{
category = Letter;
glyphname = y;
kernLeft = v.right;
kernRight = v.left;
layers = (
{
anchors = (
{
name = bottom;
pos = (162,-240);
},
{
name = center;
pos = (268,156);
},
{
name = top;
pos = (314,553);
},
{
name = topright;
pos = (583,553);
}
);
layerId = "84606D06-D269-45BD-896C-8402F9D7AD38";
shapes = (
{
closed = 1;
nodes = (
(138,-240,o),
(213,-185,o),
(273,-70,cs),
(600,553,l),
(397,553,l),
(288,301,ls),
(278,277,o),
(263,236,o),
(254,206,c),
(250,206,l),
(251,235,o),
(252,265,o),
(249,299,cs),
(230,553,l),
(40,553,l),
(119,6,l),
(108,-14,ls),
(80,-64,o),
(48,-88,o),
(-10,-88,cs),
(-32,-88,o),
(-51,-85,o),
(-63,-82,c),
(-63,-232,l),
(-49,-236,o),
(-26,-240,o),
(12,-240,cs)
);
}
);
width = 544;
}
);
script = latin;
subCategory = Lowercase;
unicode = 121;
},
{
category = Letter;
glyphname = z;
kernLeft = z.right;
layers = (
{
anchors = (
{
name = bottom;
pos = (191,0);
},
{
name = center;
pos = (242,276);
},
{
name = top;
pos = (303,553);
},
{
name = topright;
pos = (524,553);
}
);
layerId = "84606D06-D269-45BD-896C-8402F9D7AD38";
shapes = (
{
closed = 1;
nodes = (
(392,0,l),
(424,146,l),
(237,146,l),
(479,435,l),
(505,553,l),
(109,553,l),
(76,407,l),
(246,407,l),
(1,108,l),
(-20,0,l)
);
}
);
width = 485;
}
);
script = latin;
subCategory = Lowercase;
unicode = 122;
},
{
category = Punctuation;
glyphname = braceleft;
kernRight = paren.left;
layers = (
{
layerId = "84606D06-D269-45BD-896C-8402F9D7AD38";
shapes = (
{
closed = 1;
nodes = (
(266,-158,l),
(266,-21,l),
(231,-21,o),
(211,-9,o),
(211,22,cs),
(211,29,o),
(212,36,o),
(214,46,cs),
(231,126,ls),
(233,137,o),
(236,150,o),
(236,162,cs),
(236,219,o),
(211,257,o),
(153,276,c),
(153,280,l),
(220,287,o),
(273,313,o),
(289,388,cs),
(315,514,ls),
(326,564,o),
(353,576,o),
(401,577,c),
(431,714,l),
(368,714,ls),
(235,714,o),
(190,654,o),
(168,556,cs),
(141,436,ls),
(128,376,o),
(98,352,o),
(18,352,c),
(-8,212,l),
(59,212,o),
(78,188,o),
(78,145,cs),
(78,139,o),
(77,132,o),
(75,124,cs),
(57,39,ls),
(52,17,o),
(50,-2,o),
(50,-23,cs),
(50,-107,o),
(98,-158,o),
(226,-158,cs)
);
}
);
width = 359;
}
);
script = "";
subCategory = Parenthesis;
unicode = 123;
},
{
category = Symbol;
glyphname = bar;
layers = (
{
layerId = "84606D06-D269-45BD-896C-8402F9D7AD38";
shapes = (
{
closed = 1;
nodes = (
(348,-227,l),
(348,756,l),
(216,756,l),
(216,-227,l)
);
}
);
width = 566;
}
);
script = "";
subCategory = Other;
unicode = 124;
},
{
category = Punctuation;
glyphname = braceright;
kernLeft = Paren.right;
layers = (
{
layerId = "84606D06-D269-45BD-896C-8402F9D7AD38";
shapes = (
{
closed = 1;
nodes = (
(-60,-158,l),
(-24,-158,ls),
(109,-158,o),
(160,-98,o),
(181,0,cs),
(208,120,ls),
(221,180,o),
(257,205,o),
(337,205,c),
(365,345,l),
(298,345,o),
(271,368,o),
(271,411,cs),
(271,417,o),
(272,424,o),
(274,432,cs),
(292,517,ls),
(297,539,o),
(299,559,o),
(299,580,cs),
(299,653,o),
(255,714,o),
(128,714,cs),
(98,714,l),
(72,577,l),
(118,577,o),
(138,562,o),
(138,534,cs),
(138,527,o),
(137,520,o),
(135,510,cs),
(118,430,ls),
(116,419,o),
(113,406,o),
(113,394,cs),
(113,337,o),
(138,299,o),
(196,280,c),
(196,276,l),
(128,269,o),
(76,243,o),
(60,168,cs),
(34,42,ls),
(24,-7,o),
(11,-18,o),
(-60,-21,c)
);
}
);
width = 359;
}
);
script = "";
subCategory = Parenthesis;
unicode = 125;
},
{
category = Symbol;
glyphname = asciitilde;
layers = (
{
layerId = "84606D06-D269-45BD-896C-8402F9D7AD38";
shapes = (
{
closed = 1;
nodes = (
(339,263,o),
(372,258,o),
(411,258,cs),
(464,258,o),
(506,276,o),
(540,311,c),
(540,448,l),
(506,415,o),
(464,389,o),
(427,389,cs),
(397,389,o),
(360,395,o),
(311,416,cs),
(246,442,o),
(213,447,o),
(174,447,cs),
(120,447,o),
(79,429,o),
(45,394,c),
(45,257,l),
(79,290,o),
(120,316,o),
(159,316,cs),
(190,316,o),
(225,310,o),
(274,289,cs)
);
}
);
width = 586;
}
);
script = "";
subCategory = Math;
unicode = 126;
},
{
category = Punctuation;
glyphname = exclamdown;
layers = (
{
layerId = "84606D06-D269-45BD-896C-8402F9D7AD38";
shapes = (
{
closed = 1;
nodes = (
(155,-165,l),
(231,297,l),
(71,297,l),
(-53,-165,l)
);
},
{
closed = 1;
nodes = (
(247,375,o),
(286,425,o),
(286,489,cs),
(286,527,o),
(264,563,o),
(195,563,cs),
(127,563,o),
(79,526,o),
(79,451,cs),
(79,403,o),
(111,375,o),
(167,375,cs)
);
}
);
width = 304;
}
);
script = "";
subCategory = Other;
unicode = 161;
},
{
category = Symbol;
glyphname = cent;
layers = (
{
layerId = "84606D06-D269-45BD-896C-8402F9D7AD38";
shapes = (
{
closed = 1;
nodes = (
(182,-10,l),
(294,-10,l),
(314,82,l),
(374,87,o),
(419,102,o),
(464,126,c),
(464,278,l),
(416,252,o),
(373,234,o),
(326,234,cs),
(288,234,o),
(267,255,o),
(267,306,cs),
(267,391,o),
(302,503,o),
(380,503,cs),
(419,503,o),
(448,494,o),
(490,474,c),
(550,614,l),
(515,632,o),
(482,644,o),
(437,651,c),
(453,724,l),
(341,724,l),
(325,652,l),
(173,628,o),
(75,484,o),
(75,286,cs),
(75,168,o),
(132,113,o),
(207,92,c)
);
}
);
width = 580;
}
);
script = "";
subCategory = Currency;
unicode = 162;
},
{
category = Symbol;
glyphname = sterling;
layers = (
{
layerId = "84606D06-D269-45BD-896C-8402F9D7AD38";
shapes = (
{
closed = 1;
nodes = (
(-9,0,l),
(489,0,l),
(524,161,l),
(229,161,l),
(268,178,o),
(315,212,o),
(328,272,cs),
(338,318,l),
(461,318,l),
(489,454,l),
(366,454,l),
(378,510,ls),
(387,554,o),
(400,567,o),
(423,567,cs),
(456,567,o),
(484,556,o),
(527,536,c),
(597,682,l),
(544,705,o),
(490,724,o),
(415,724,cs),
(301,724,o),
(213,684,o),
(184,517,cs),
(173,454,l),
(81,454,l),
(53,318,l),
(145,318,l),
(135,271,ls),
(121,202,o),
(98,174,o),
(22,153,c)
);
}
);
width = 580;
}
);
script = "";
subCategory = Currency;
unicode = 163;
},
{
category = Symbol;
glyphname = currency;
layers = (
{
layerId = "84606D06-D269-45BD-896C-8402F9D7AD38";
shapes = (
{
closed = 1;
nodes = (
(444,113,l),
(533,202,l),
(473,262,l),
(487,291,o),
(494,319,o),
(494,353,cs),
(494,385,o),
(486,419,o),
(473,444,c),
(536,507,l),
(444,594,l),
(383,531,l),
(353,547,o),
(325,554,o),
(293,554,cs),
(265,554,o),
(230,545,o),
(204,533,c),
(142,594,l),
(52,504,l),
(115,443,l),
(102,417,o),
(93,386,o),
(93,353,cs),
(93,321,o),
(100,292,o),
(115,263,c),
(53,203,l),
(142,114,l),
(202,172,l),
(229,158,o),
(259,153,o),
(293,153,cs),
(325,153,o),
(357,162,o),
(383,173,c)
);
},
{
closed = 1;
nodes = (
(252,279,o),
(220,312,o),
(220,353,cs),
(220,395,o),
(252,427,o),
(293,427,cs),
(335,427,o),
(369,395,o),
(369,353,cs),
(369,312,o),
(335,279,o),
(293,279,cs)
);
}
);
width = 580;
}
);
script = "";
subCategory = Currency;
unicode = 164;
},
{
category = Symbol;
glyphname = yen;
layers = (
{
layerId = "84606D06-D269-45BD-896C-8402F9D7AD38";
shapes = (
{
closed = 1;
nodes = (
(313,0,l),
(333,93,l),
(442,93,l),
(463,193,l),
(354,193,l),
(367,256,l),
(476,256,l),
(498,356,l),
(408,356,l),
(647,714,l),
(455,714,l),
(312,476,l),
(277,714,l),
(89,714,l),
(180,356,l),
(93,356,l),
(71,256,l),
(181,256,l),
(169,193,l),
(58,193,l),
(37,93,l),
(148,93,l),
(128,0,l)
);
}
);
width = 580;
}
);
script = "";
subCategory = Currency;
unicode = 165;
},
{
category = Symbol;
glyphname = brokenbar;
layers = (
{
layerId = "84606D06-D269-45BD-896C-8402F9D7AD38";
shapes = (
{
closed = 1;
nodes = (
(349,344,l),
(349,755,l),
(217,755,l),
(217,344,l)
);
},
{
closed = 1;
nodes = (
(349,-217,l),
(349,193,l),
(217,193,l),
(217,-217,l)
);
}
);
width = 566;
}
);
script = "";
subCategory = Other;
unicode = 166;
},
{
category = Symbol;
glyphname = section;
layers = (
{
layerId = "84606D06-D269-45BD-896C-8402F9D7AD38";
shapes = (
{
closed = 1;
nodes = (
(339,-12,o),
(421,52,o),
(421,159,cs),
(421,196,o),
(408,232,o),
(387,257,c),
(432,282,o),
(469,319,o),
(469,401,cs),
(469,460,o),
(440,511,o),
(350,553,cs),
(285,583,o),
(277,601,o),
(277,624,cs),
(277,643,o),
(292,660,o),
(331,660,cs),
(391,660,o),
(438,635,o),
(474,611,c),
(523,720,l),
(469,751,o),
(414,770,o),
(347,770,cs),
(213,770,o),
(125,722,o),
(125,610,cs),
(125,577,o),
(139,541,o),
(164,516,c),
(101,478,o),
(77,426,o),
(77,379,cs),
(77,307,o),
(126,259,o),
(200,218,cs),
(248,192,o),
(266,173,o),
(266,148,cs),
(266,126,o),
(249,97,o),
(193,97,cs),
(130,97,o),
(73,122,o),
(18,156,c),
(18,34,l),
(54,6,o),
(113,-12,o),
(184,-12,cs)
);
},
{
closed = 1;
nodes = (
(253,338,o),
(216,364,o),
(216,399,cs),
(216,421,o),
(232,447,o),
(256,459,c),
(308,437,o),
(331,411,o),
(331,376,cs),
(331,347,o),
(314,327,o),
(295,314,c)
);
}
);
width = 506;
}
);
script = "";
subCategory = Other;
unicode = 167;
},
{
category = Mark;
glyphname = dieresis;
layers = (
{
layerId = "84606D06-D269-45BD-896C-8402F9D7AD38";
shapes = (
{
closed = 1;
nodes = (
(558,614,o),
(582,651,o),
(582,706,cs),
(582,757,o),
(540,767,o),
(500,767,cs),
(438,767,o),
(402,740,o),
(402,676,cs),
(402,627,o),
(437,614,o),
(485,614,cs)
);
},
{
closed = 1;
nodes = (
(320,614,o),
(345,651,o),
(345,706,cs),
(345,757,o),
(302,767,o),
(262,767,cs),
(200,767,o),
(164,740,o),
(164,676,cs),
(164,627,o),
(199,614,o),
(247,614,cs)
);
}
);
width = 554;
}
);
script = "";
subCategory = Spacing;
unicode = 168;
},
{
category = Symbol;
glyphname = copyright;
kernLeft = copyright;
kernRight = copyright;
layers = (
{
layerId = "84606D06-D269-45BD-896C-8402F9D7AD38";
shapes = (
{
closed = 1;
nodes = (
(625,-10,o),
(779,144,o),
(779,357,cs),
(779,570,o),
(625,724,o),
(412,724,cs),
(199,724,o),
(45,570,o),
(45,357,cs),
(45,144,o),
(199,-10,o),
(412,-10,cs)
);
},
{
closed = 1;
nodes = (
(465,128,o),
(505,138,o),
(546,159,c),
(546,272,l),
(506,249,o),
(462,239,o),
(420,239,cs),
(361,239,o),
(333,274,o),
(333,357,cs),
(333,433,o),
(365,474,o),
(417,474,cs),
(455,474,o),
(486,465,o),
(520,447,c),
(565,547,l),
(517,571,o),
(468,585,o),
(408,585,cs),
(267,585,o),
(196,495,o),
(196,359,cs),
(196,219,o),
(269,128,o),
(413,128,cs)
);
},
{
closed = 1;
nodes = (
(247,70,o),
(133,188,o),
(133,357,cs),
(133,526,o),
(247,644,o),
(412,644,cs),
(575,644,o),
(689,526,o),
(689,357,cs),
(689,188,o),
(575,70,o),
(412,70,cs)
);
}
);
width = 824;
}
);
script = "";
subCategory = Other;
unicode = 169;
},
{
category = Letter;
glyphname = ordfeminine;
layers = (
{
anchors = (
{
name = bottom;
pos = (210,358);
},
{
name = center;
pos = (263,538);
},
{
name = top;
pos = (284,719);
}
);
layerId = "84606D06-D269-45BD-896C-8402F9D7AD38";
shapes = (
{
closed = 1;
nodes = (
(221,356,o),
(256,377,o),
(281,404,c),
(285,404,l),
(281,362,l),
(376,362,l),
(459,714,l),
(362,714,l),
(344,672,l),
(340,672,l),
(314,701,o),
(288,720,o),
(236,720,cs),
(127,720,o),
(68,593,o),
(68,489,cs),
(68,386,o),
(129,356,o),
(172,356,cs)
);
},
{
closed = 1;
nodes = (
(215,445,o),
(201,463,o),
(201,494,cs),
(201,551,o),
(228,631,o),
(272,631,cs),
(297,631,o),
(307,604,o),
(307,575,cs),
(307,533,o),
(290,445,o),
(235,445,cs)
);
}
);
width = 404;
}
);
script = latin;
subCategory = Superscript;
unicode = 170;
},
{
category = Punctuation;
glyphname = guillemetleft;
kernLeft = guillemetleft;
kernRight = guillemetleft;
layers = (
{
layerId = "84606D06-D269-45BD-896C-8402F9D7AD38";
shapes = (
{
closed = 1;
nodes = (
(282,104,l),
(228,265,l),
(358,428,l),
(229,528,l),
(30,275,l),
(30,270,l),
(119,37,l)
);
},
{
closed = 1;
nodes = (
(555,104,l),
(495,279,l),
(631,428,l),
(504,531,l),
(297,289,l),
(297,284,l),
(392,37,l)
);
}
);
width = 623;
}
);
script = "";
subCategory = Quote;
unicode = 171;
},
{
category = Symbol;
glyphname = logicalnot;
layers = (
{
layerId = "84606D06-D269-45BD-896C-8402F9D7AD38";
shapes = (
{
closed = 1;
nodes = (
(45,418,l),
(45,287,l),
(408,287,l),
(408,116,l),
(540,116,l),
(540,418,l)
);
}
);
width = 586;
}
);
script = "";
subCategory = Math;
unicode = 172;
},
{
category = Symbol;
glyphname = registered;
kernLeft = copyright;
kernRight = copyright;
layers = (
{
layerId = "84606D06-D269-45BD-896C-8402F9D7AD38";
shapes = (
{
closed = 1;
nodes = (
(384,153,l),
(384,309,l),
(401,309,l),
(472,153,l),
(608,153,l),
(513,330,l),
(552,348,o),
(582,380,o),
(582,448,cs),
(582,532,o),
(528,580,o),
(389,580,cs),
(253,580,l),
(253,153,l)
);
},
{
closed = 1;
nodes = (
(384,395,l),
(384,485,l),
(390,485,ls),
(427,485,o),
(450,478,o),
(450,443,cs),
(450,407,o),
(427,395,o),
(389,395,cs)
);
},
{
closed = 1;
nodes = (
(625,-10,o),
(779,144,o),
(779,357,cs),
(779,570,o),
(625,724,o),
(412,724,cs),
(199,724,o),
(45,570,o),
(45,357,cs),
(45,144,o),
(199,-10,o),
(412,-10,cs)
);
},
{
closed = 1;
nodes = (
(247,70,o),
(133,188,o),
(133,357,cs),
(133,526,o),
(247,644,o),
(412,644,cs),
(575,644,o),
(689,526,o),
(689,357,cs),
(689,188,o),
(575,70,o),
(412,70,cs)
);
}
);
width = 824;
}
);
script = "";
subCategory = Other;
unicode = 174;
},
{
category = Mark;
glyphname = overscore;
layers = (
{
layerId = "84606D06-D269-45BD-896C-8402F9D7AD38";
shapes = (
{
closed = 1;
nodes = (
(555,759,l),
(583,879,l),
(129,879,l),
(101,759,l)
);
}
);
width = 450;
}
);
script = "";
subCategory = Spacing;
unicode = 175;
},
{
category = Symbol;
glyphname = degree;
layers = (
{
layerId = "84606D06-D269-45BD-896C-8402F9D7AD38";
shapes = (
{
closed = 1;
nodes = (
(316,366,o),
(391,439,o),
(391,544,cs),
(391,648,o),
(316,724,o),
(211,724,cs),
(106,724,o),
(31,648,o),
(31,544,cs),
(31,439,o),
(106,366,o),
(211,366,cs)
);
},
{
closed = 1;
nodes = (
(172,482,o),
(147,507,o),
(147,544,cs),
(147,583,o),
(172,609,o),
(211,609,cs),
(250,609,o),
(275,583,o),
(275,544,cs),
(275,507,o),
(250,482,o),
(211,482,cs)
);
}
);
width = 422;
}
);
script = "";
subCategory = Other;
unicode = 176;
},
{
category = Symbol;
glyphname = plusminus;
layers = (
{
layerId = "84606D06-D269-45BD-896C-8402F9D7AD38";
shapes = (
{
closed = 1;
nodes = (
(540,0,l),
(540,131,l),
(45,131,l),
(45,0,l)
);
},
{
alignment = -1;
pos = (0,43);
ref = plus;
}
);
width = 586;
}
);
metricWidth = "=plus";
script = "";
subCategory = Math;
unicode = 177;
},
{
category = Number;
glyphname = twosuperior;
layers = (
{
layerId = "84606D06-D269-45BD-896C-8402F9D7AD38";
shapes = (
{
closed = 1;
nodes = (
(405,415,l),
(430,540,l),
(274,540,l),
(312,564,ls),
(413,629,o),
(462,676,o),
(462,748,cs),
(462,813,o),
(397,854,o),
(314,854,cs),
(227,854,o),
(177,834,o),
(124,794,c),
(182,701,l),
(217,729,o),
(251,740,o),
(274,740,cs),
(291,740,o),
(305,733,o),
(305,715,cs),
(305,692,o),
(283,668,o),
(217,618,cs),
(82,515,l),
(61,415,l)
);
}
);
width = 414;
}
);
script = "";
subCategory = Small;
unicode = 178;
},
{
category = Number;
glyphname = threesuperior;
layers = (
{
layerId = "84606D06-D269-45BD-896C-8402F9D7AD38";
shapes = (
{
closed = 1;
nodes = (
(356,409,o),
(421,472,o),
(421,547,cs),
(421,590,o),
(400,621,o),
(340,636,c),
(340,640,l),
(406,656,o),
(453,684,o),
(453,752,cs),
(453,820,o),
(386,854,o),
(305,854,cs),
(235,854,o),
(190,840,o),
(138,808,c),
(187,719,l),
(229,745,o),
(252,751,o),
(277,751,cs),
(298,751,o),
(314,741,o),
(314,723,cs),
(314,694,o),
(283,680,o),
(237,680,cs),
(190,680,l),
(169,585,l),
(228,585,ls),
(272,585,o),
(283,568,o),
(283,552,cs),
(283,526,o),
(258,513,o),
(209,513,cs),
(173,513,o),
(125,525,o),
(84,553,c),
(84,443,l),
(124,419,o),
(166,409,o),
(236,409,c)
);
}
);
width = 414;
}
);
script = "";
subCategory = Small;
unicode = 179;
},
{
category = Mark;
glyphname = acute;
layers = (
{
anchors = (
{
name = _top;
pos = (200,553);
}
);
layerId = "84606D06-D269-45BD-896C-8402F9D7AD38";
shapes = (
{
closed = 1;
nodes = (
(112,606,l),
(251,606,l),
(313,639,o),
(435,723,o),
(464,759,c),
(464,766,l),
(250,766,l),
(213,718,o),
(158,655,o),
(112,617,c)
);
}
);
width = 401;
}
);
script = "";
subCategory = Spacing;
unicode = 180;
},
{
category = Letter;
glyphname = mu;
kernLeft = GRK_mu;
kernRight = GRK_alpha;
layers = (
{
anchors = (
{
name = center;
pos = (289,156);
}
);
layerId = "84606D06-D269-45BD-896C-8402F9D7AD38";
shapes = (
{
closed = 1;
nodes = (
(149,-240,l),
(181,-84,ls),
(189,-47,o),
(197,3,o),
(200,31,c),
(202,31,l),
(214,3,o),
(230,-10,o),
(256,-10,cs),
(289,-10,o),
(318,20,o),
(352,77,c),
(356,77,l),
(378,14,o),
(414,-10,o),
(492,-10,cs),
(514,-10,o),
(559,-3,o),
(570,3,c),
(601,145,l),
(595,143,o),
(579,140,o),
(570,140,cs),
(549,140,o),
(533,152,o),
(543,199,cs),
(618,553,l),
(429,553,l),
(378,311,ls),
(355,201,o),
(327,141,o),
(279,141,cs),
(249,141,o),
(237,173,o),
(249,229,cs),
(317,553,l),
(128,553,l),
(-40,-240,l)
);
}
);
width = 676;
}
);
metricLeft = "=p";
metricRight = "=alpha+10";
script = greek;
subCategory = Lowercase;
unicode = 956;
},
{
category = Symbol;
glyphname = paragraph;
layers = (
{
layerId = "84606D06-D269-45BD-896C-8402F9D7AD38";
shapes = (
{
closed = 1;
nodes = (
(316,-127,l),
(409,-127,l),
(409,648,l),
(486,648,l),
(486,-127,l),
(579,-127,l),
(579,760,l),
(270,760,ls),
(139,760,o),
(50,700,o),
(50,509,cs),
(50,326,o),
(131,264,o),
(255,264,cs),
(283,264,o),
(296,267,o),
(316,273,c)
);
}
);
width = 643;
}
);
script = "";
subCategory = Other;
unicode = 182;
},
{
category = Mark;
glyphname = cedilla;
layers = (
{
layerId = "84606D06-D269-45BD-896C-8402F9D7AD38";
shapes = (
{
closed = 1;
nodes = (
(84,-240,o),
(140,-194,o),
(140,-115,cs),
(140,-57,o),
(104,-31,o),
(53,-20,c),
(65,0,l),
(-35,0,l),
(-72,-66,l),
(-12,-78,o),
(-1,-97,o),
(-1,-115,cs),
(-1,-133,o),
(-13,-139,o),
(-34,-139,cs),
(-46,-139,o),
(-86,-133,o),
(-108,-126,c),
(-108,-226,l),
(-84,-235,o),
(-54,-240,o),
(-14,-240,cs)
);
}
);
width = 187;
}
);
script = "";
subCategory = Spacing;
unicode = 184;
},
{
category = Number;
glyphname = onesuperior;
layers = (
{
layerId = "84606D06-D269-45BD-896C-8402F9D7AD38";
shapes = (
{
closed = 1;
nodes = (
(178,415,l),
(333,415,l),
(424,844,l),
(301,844,l),
(93,717,l),
(151,627,l),
(209,665,ls),
(213,667,o),
(232,683,o),
(245,694,c),
(239,676,o),
(228,640,o),
(218,593,cs)
);
}
);
width = 414;
}
);
script = "";
subCategory = Small;
unicode = 185;
},
{
category = Letter;
glyphname = ordmasculine;
layers = (
{
anchors = (
{
name = bottom;
pos = (218,355);
},
{
name = center;
pos = (255,538);
},
{
name = top;
pos = (292,728);
}
);
layerId = "84606D06-D269-45BD-896C-8402F9D7AD38";
shapes = (
{
closed = 1;
nodes = (
(372,355,o),
(435,460,o),
(435,571,cs),
(435,670,o),
(375,722,o),
(285,722,cs),
(143,722,o),
(76,616,o),
(76,500,cs),
(76,408,o),
(133,355,o),
(227,355,cs)
);
},
{
closed = 1;
nodes = (
(220,455,o),
(209,468,o),
(209,502,cs),
(209,545,o),
(229,622,o),
(273,622,cs),
(294,622,o),
(303,603,o),
(303,574,cs),
(303,522,o),
(282,455,o),
(239,455,cs)
);
}
);
width = 399;
}
);
script = latin;
subCategory = Superscript;
unicode = 186;
},
{
category = Punctuation;
glyphname = guillemetright;
kernLeft = guillemetright;
kernRight = guillemetright;
layers = (
{
layerId = "84606D06-D269-45BD-896C-8402F9D7AD38";
shapes = (
{
closed = 1;
nodes = (
(593,274,l),
(593,279,l),
(504,512,l),
(341,445,l),
(395,284,l),
(265,121,l),
(394,21,l)
);
},
{
closed = 1;
nodes = (
(326,260,l),
(326,265,l),
(231,512,l),
(69,445,l),
(128,270,l),
(-7,121,l),
(119,17,l)
);
}
);
width = 623;
}
);
script = "";
subCategory = Quote;
unicode = 187;
},
{
category = Letter;
glyphname = AE;
kernLeft = AE;
kernRight = E.left;
layers = (
{
anchors = (
{
name = bottom;
pos = (414,0);
},
{
name = center;
pos = (457,357);
},
{
name = top;
pos = (566,714);
}
);
layerId = "84606D06-D269-45BD-896C-8402F9D7AD38";
shapes = (
{
closed = 1;
nodes = (
(141,0,l),
(224,134,l),
(428,134,l),
(400,0,l),
(824,0,l),
(857,157,l),
(624,157,l),
(652,292,l),
(869,292,l),
(904,447,l),
(687,447,l),
(710,559,l),
(943,559,l),
(975,714,l),
(383,714,l),
(-61,0,l)
);
},
{
closed = 1;
nodes = (
(485,559,l),
(518,559,l),
(463,294,l),
(323,294,l)
);
}
);
width = 946;
}
);
script = latin;
subCategory = Uppercase;
unicode = 198;
},
{
category = Letter;
glyphname = Eth;
kernRight = O.left;
layers = (
{
anchors = (
{
name = bottom;
pos = (283,0);
},
{
name = top;
pos = (435,714);
}
);
layerId = "84606D06-D269-45BD-896C-8402F9D7AD38";
shapes = (
{
closed = 1;
nodes = (
(352,275,l),
(385,431,l),
(39,431,l),
(5,275,l)
);
},
{
alignment = -1;
ref = D;
}
);
width = 684;
}
);
script = latin;
subCategory = Uppercase;
unicode = 208;
},
{
category = Symbol;
glyphname = multiply;
layers = (
{
layerId = "84606D06-D269-45BD-896C-8402F9D7AD38";
shapes = (
{
closed = 1;
nodes = (
(290,446,l),
(158,576,l),
(69,484,l),
(199,353,l),
(70,222,l),
(158,131,l),
(290,262,l),
(424,130,l),
(514,220,l),
(382,353,l),
(516,487,l),
(424,576,l)
);
}
);
width = 586;
}
);
script = "";
subCategory = Math;
unicode = 215;
},
{
category = Letter;
glyphname = Oslash;
kernLeft = O.right;
kernRight = O.left;
layers = (
{
anchors = (
{
name = bottom;
pos = (310,0);
},
{
name = center;
pos = (376,352);
},
{
name = top;
pos = (462,714);
}
);
layerId = "84606D06-D269-45BD-896C-8402F9D7AD38";
shapes = (
{
closed = 1;
nodes = (
(176,24,l),
(218,2,o),
(270,-10,o),
(334,-10,cs),
(584,-9,o),
(706,228,o),
(706,450,cs),
(706,520,o),
(689,581,o),
(656,627,c),
(704,688,l),
(628,746,l),
(583,690,l),
(542,712,o),
(491,725,o),
(429,725,cs),
(173,725,o),
(51,487,o),
(51,265,cs),
(51,193,o),
(68,132,o),
(103,86,c),
(46,15,l),
(124,-42,l)
);
},
{
closed = 1;
nodes = (
(319,148,o),
(301,153,o),
(286,162,c),
(512,447,l),
(512,440,o),
(512,433,o),
(512,425,cs),
(512,272,o),
(441,148,o),
(342,148,cs)
);
},
{
closed = 1;
nodes = (
(245,263,l),
(245,271,o),
(245,280,o),
(245,287,cs),
(245,435,o),
(317,567,o),
(416,567,cs),
(439,567,o),
(458,561,o),
(472,551,c)
);
}
);
width = 737;
}
);
script = latin;
subCategory = Uppercase;
unicode = 216;
},
{
category = Letter;
glyphname = Thorn;
kernRight = P.left;
layers = (
{
anchors = (
{
name = bottom;
pos = (253,0);
},
{
name = center;
pos = (303,357);
},
{
name = top;
pos = (405,714);
}
);
layerId = "84606D06-D269-45BD-896C-8402F9D7AD38";
shapes = (
{
closed = 1;
nodes = (
(207,0,l),
(235,134,l),
(277,134,ls),
(462,134,o),
(590,225,o),
(590,396,cs),
(590,514,o),
(525,610,o),
(349,610,cs),
(337,610,l),
(358,714,l),
(167,714,l),
(16,0,l)
);
},
{
closed = 1;
nodes = (
(269,290,l),
(304,455,l),
(326,455,ls),
(373,455,o),
(399,425,o),
(399,390,cs),
(399,321,o),
(361,290,o),
(300,290,cs)
);
}
);
width = 623;
}
);
script = latin;
subCategory = Uppercase;
unicode = 222;
},
{
category = Letter;
glyphname = germandbls;
layers = (
{
anchors = (
{
name = bottom;
pos = (247,-240);
},
{
name = center;
pos = (278,262);
},
{
name = top;
pos = (461,765);
}
);
layerId = "84606D06-D269-45BD-896C-8402F9D7AD38";
shapes = (
{
closed = 1;
nodes = (
(109,-240,o),
(169,-163,o),
(192,-57,cs),
(315,521,ls),
(328,584,o),
(365,617,o),
(416,617,cs),
(478,617,o),
(493,586,o),
(493,559,cs),
(493,531,o),
(476,509,o),
(430,483,cs),
(362,445,o),
(329,417,o),
(329,348,cs),
(329,309,o),
(343,273,o),
(410,230,cs),
(468,193,o),
(475,184,o),
(475,163,cs),
(475,145,o),
(457,128,o),
(419,128,cs),
(379,128,o),
(322,141,o),
(287,158,c),
(287,12,l),
(320,-1,o),
(359,-10,o),
(421,-10,cs),
(600,-10,o),
(665,87,o),
(665,182,cs),
(665,236,o),
(644,273,o),
(606,300,cs),
(563,331,o),
(522,338,o),
(522,372,cs),
(522,380,o),
(525,396,o),
(579,422,cs),
(648,455,o),
(683,502,o),
(683,583,cs),
(683,688,o),
(601,765,o),
(431,765,cs),
(239,765,o),
(160,682,o),
(129,535,cs),
(10,-27,ls),
(1,-69,o),
(-22,-88,o),
(-70,-88,cs),
(-88,-88,o),
(-109,-84,o),
(-127,-79,c),
(-127,-227,l),
(-104,-234,o),
(-61,-240,o),
(-26,-240,cs)
);
}
);
width = 713;
}
);
script = latin;
subCategory = Lowercase;
unicode = 223;
},
{
category = Letter;
glyphname = ae;
kernLeft = a.right;
kernRight = o.left;
layers = (
{
anchors = (
{
name = bottom;
pos = (378,0);
},
{
name = center;
pos = (446,276);
},
{
name = top;
pos = (496,553);
}
);
layerId = "84606D06-D269-45BD-896C-8402F9D7AD38";
shapes = (
{
closed = 1;
nodes = (
(263,-10,o),
(300,19,o),
(329,60,c),
(333,60,l),
(328,0,l),
(439,0,l),
(454,45,l),
(481,9,o),
(523,-10,o),
(582,-10,cs),
(666,-10,o),
(714,10,o),
(765,40,c),
(765,174,l),
(708,144,o),
(661,126,o),
(605,126,cs),
(552,126,o),
(525,149,o),
(525,198,cs),
(525,201,o),
(525,203,o),
(525,206,c),
(554,206,ls),
(760,206,o),
(851,287,o),
(851,409,cs),
(851,502,o),
(784,563,o),
(682,563,cs),
(627,563,o),
(577,537,o),
(546,507,c),
(546,553,l),
(445,553,l),
(419,485,l),
(415,485,l),
(385,536,o),
(350,563,o),
(287,563,cs),
(119,563,o),
(41,336,o),
(41,201,cs),
(41,44,o),
(113,-10,o),
(198,-10,cs)
);
},
{
closed = 1;
nodes = (
(248,142,o),
(234,167,o),
(234,212,cs),
(234,307,o),
(275,411,o),
(327,411,cs),
(354,411,o),
(370,383,o),
(370,341,cs),
(370,321,o),
(369,300,o),
(365,280,cs),
(353,209,o),
(319,142,o),
(276,142,cs)
);
},
{
closed = 1;
nodes = (
(544,324,l),
(551,375,o),
(587,435,o),
(631,435,cs),
(659,435,o),
(672,419,o),
(672,398,cs),
(672,364,o),
(643,324,o),
(558,324,cs)
);
}
);
width = 873;
}
);
script = latin;
subCategory = Lowercase;
unicode = 230;
},
{
category = Letter;
glyphname = eth;
kernRight = o.left;
layers = (
{
anchors = (
{
name = bottom;
pos = (223,0);
},
{
name = center;
pos = (301,379);
},
{
name = top;
pos = (387,768);
}
);
layerId = "84606D06-D269-45BD-896C-8402F9D7AD38";
shapes = (
{
closed = 1;
nodes = (
(471,-10,o),
(549,148,o),
(549,350,cs),
(549,453,o),
(520,570,o),
(472,630,c),
(562,674,l),
(522,755,l),
(406,701,l),
(372,728,o),
(334,750,o),
(293,768,c),
(237,680,l),
(252,669,o),
(268,657,o),
(283,644,c),
(176,594,l),
(216,512,l),
(349,574,l),
(373,539,o),
(388,493,o),
(393,454,c),
(388,452,l),
(369,475,o),
(339,495,o),
(289,495,cs),
(130,495,o),
(41,367,o),
(41,208,cs),
(41,72,o),
(124,-10,o),
(254,-10,cs)
);
},
{
closed = 1;
nodes = (
(244,127,o),
(230,151,o),
(230,199,cs),
(230,255,o),
(254,358,o),
(318,358,cs),
(348,358,o),
(359,328,o),
(359,279,cs),
(359,224,o),
(333,127,o),
(271,127,cs)
);
}
);
width = 564;
}
);
script = latin;
subCategory = Lowercase;
unicode = 240;
},
{
category = Symbol;
glyphname = divide;
layers = (
{
layerId = "84606D06-D269-45BD-896C-8402F9D7AD38";
shapes = (
{
closed = 1;
nodes = (
(540,287,l),
(540,418,l),
(45,418,l),
(45,287,l)
);
},
{
closed = 1;
nodes = (
(332,79,o),
(369,104,o),
(369,162,cs),
(369,224,o),
(332,245,o),
(292,245,cs),
(251,245,o),
(216,224,o),
(216,162,cs),
(216,104,o),
(251,79,o),
(292,79,cs)
);
},
{
closed = 1;
nodes = (
(332,460,o),
(369,485,o),
(369,543,cs),
(369,605,o),
(332,626,o),
(292,626,cs),
(251,626,o),
(216,605,o),
(216,543,cs),
(216,485,o),
(251,460,o),
(292,460,cs)
);
}
);
width = 586;
}
);
script = "";
subCategory = Math;
unicode = 247;
},
{
category = Letter;
glyphname = oslash;
kernLeft = o.right;
kernRight = o.left;
layers = (
{
anchors = (
{
name = bottom;
pos = (255,0);
},
{
name = center;
pos = (315,270);
},
{
name = top;
pos = (373,553);
}
);
layerId = "84606D06-D269-45BD-896C-8402F9D7AD38";
shapes = (
{
closed = 1;
nodes = (
(152,14,l),
(184,0,o),
(222,-10,o),
(268,-10,cs),
(476,-10,o),
(587,161,o),
(587,350,cs),
(587,404,o),
(572,447,o),
(547,481,c),
(598,541,l),
(536,594,l),
(485,535,l),
(451,552,o),
(412,563,o),
(363,563,cs),
(152,563,o),
(41,392,o),
(41,203,cs),
(41,144,o),
(58,99,o),
(87,63,c),
(32,-1,l),
(94,-54,l)
);
},
{
closed = 1;
nodes = (
(274,127,o),
(263,129,o),
(253,134,c),
(408,317,l),
(408,310,o),
(407,303,o),
(407,296,cs),
(396,176,o),
(345,127,o),
(288,127,cs)
);
},
{
closed = 1;
nodes = (
(219,220,l),
(219,227,o),
(219,233,o),
(220,239,cs),
(228,358,o),
(284,428,o),
(343,428,cs),
(359,428,o),
(372,423,o),
(383,414,c)
);
}
);
width = 628;
}
);
script = latin;
subCategory = Lowercase;
unicode = 248;
},
{
category = Letter;
glyphname = thorn;
kernLeft = b;
kernRight = o.left;
layers = (
{
anchors = (
{
name = bottom;
pos = (194,-240);
},
{
name = center;
pos = (263,260);
},
{
name = top;
pos = (407,760);
}
);
layerId = "84606D06-D269-45BD-896C-8402F9D7AD38";
shapes = (
{
closed = 1;
nodes = (
(149,-240,l),
(174,-120,ls),
(192,-34,o),
(197,9,o),
(201,61,c),
(205,61,l),
(231,18,o),
(268,-10,o),
(318,-10,cs),
(470,-10,o),
(566,176,o),
(566,359,cs),
(566,489,o),
(504,563,o),
(408,563,cs),
(357,563,o),
(325,538,o),
(297,500,c),
(293,500,l),
(305,528,o),
(325,586,o),
(337,647,cs),
(361,760,l),
(172,760,l),
(-40,-240,l)
);
},
{
closed = 1;
nodes = (
(253,142,o),
(237,170,o),
(237,212,cs),
(237,232,o),
(238,253,o),
(242,273,cs),
(254,344,o),
(288,411,o),
(331,411,cs),
(359,411,o),
(373,386,o),
(373,341,cs),
(373,246,o),
(332,142,o),
(280,142,cs)
);
}
);
width = 607;
}
);
script = latin;
subCategory = Lowercase;
unicode = 254;
},
{
category = Letter;
glyphname = dcroat;
kernLeft = o.right;
layers = (
{
anchors = (
{
name = bottom;
pos = (243,0);
},
{
name = center;
pos = (371,375);
},
{
name = top;
pos = (405,760);
}
);
layerId = "84606D06-D269-45BD-896C-8402F9D7AD38";
shapes = (
{
closed = 1;
nodes = (
(276,-10,o),
(302,22,o),
(329,60,c),
(333,60,l),
(328,0,l),
(479,0,l),
(599,570,l),
(676,570,l),
(701,688,l),
(624,688,l),
(640,760,l),
(449,760,l),
(434,688,l),
(315,688,l),
(291,570,l),
(410,570,l),
(409,563,ls),
(399,517,o),
(396,451,o),
(396,439,c),
(392,439,l),
(362,484,o),
(328,513,o),
(268,513,cs),
(128,513,o),
(41,353,o),
(41,201,cs),
(41,44,o),
(113,-10,o),
(198,-10,cs)
);
},
{
closed = 1;
nodes = (
(248,142,o),
(234,167,o),
(234,212,cs),
(234,274,o),
(263,361,o),
(317,361,cs),
(344,361,o),
(360,333,o),
(360,291,cs),
(360,211,o),
(328,142,o),
(276,142,cs)
);
}
);
width = 604;
}
);
script = latin;
subCategory = Lowercase;
unicode = 273;
},
{
category = Letter;
glyphname = eogonek;
kernLeft = o.right;
kernRight = o.left;
layers = (
{
anchors = (
{
name = bottom;
pos = (206,-256);
},
{
name = top;
pos = (352,553);
}
);
layerId = "84606D06-D269-45BD-896C-8402F9D7AD38";
shapes = (
{
closed = 1;
nodes = (
(357,-256,o),
(383,-250,o),
(412,-241,c),
(412,-133,l),
(392,-140,o),
(376,-145,o),
(355,-145,cs),
(338,-145,o),
(329,-133,o),
(329,-120,cs),
(329,-76,o),
(377,-34,o),
(449,33,c),
(299,0,l),
(237,-40,o),
(193,-84,o),
(193,-151,cs),
(193,-209,o),
(236,-256,o),
(315,-256,cs)
);
},
{
alignment = -1;
ref = e;
}
);
width = 579;
}
);
metricWidth = e;
script = latin;
subCategory = Lowercase;
unicode = 281;
},
{
category = Letter;
glyphname = Hbar;
layers = (
{
anchors = (
{
name = bottom;
pos = (298,0);
},
{
name = center;
pos = (401,357);
},
{
name = top;
pos = (450,714);
}
);
layerId = "84606D06-D269-45BD-896C-8402F9D7AD38";
shapes = (
{
closed = 1;
nodes = (
(207,0,l),
(269,290,l),
(438,290,l),
(377,0,l),
(568,0,l),
(678,522,l),
(763,522,l),
(787,637,l),
(703,637,l),
(719,714,l),
(528,714,l),
(512,637,l),
(343,637,l),
(358,714,l),
(167,714,l),
(150,637,l),
(66,637,l),
(43,522,l),
(126,522,l),
(16,0,l)
);
},
{
closed = 1;
nodes = (
(317,522,l),
(487,522,l),
(473,449,l),
(303,449,l)
);
}
);
width = 714;
}
);
script = latin;
subCategory = Uppercase;
unicode = 294;
},
{
category = Letter;
glyphname = hbar;
layers = (
{
anchors = (
{
name = bottom;
pos = (252,0);
},
{
name = center;
pos = (288,380);
},
{
name = top;
pos = (414,760);
}
);
layerId = "84606D06-D269-45BD-896C-8402F9D7AD38";
shapes = (
{
closed = 1;
nodes = (
(200,0,l),
(247,220,ls),
(266,312,o),
(293,363,o),
(337,363,cs),
(357,363,o),
(374,349,o),
(374,321,cs),
(374,298,o),
(369,269,o),
(365,252,cs),
(312,0,l),
(501,0,l),
(553,244,ls),
(560,279,o),
(565,319,o),
(565,356,cs),
(565,441,o),
(522,513,o),
(419,513,cs),
(364,513,o),
(320,494,o),
(286,450,c),
(282,450,l),
(294,479,o),
(310,527,o),
(321,570,c),
(452,570,l),
(477,688,l),
(346,688,l),
(361,760,l),
(172,760,l),
(156,688,l),
(74,688,l),
(49,570,l),
(131,570,l),
(11,0,l)
);
}
);
width = 622;
}
);
script = latin;
subCategory = Lowercase;
unicode = 295;
},
{
category = Letter;
glyphname = kgreenlandic;
kernLeft = n.right;
kernRight = k.left;
layers = (
{
anchors = (
{
name = bottom;
pos = (250,0);
},
{
name = center;
pos = (340,276);
},
{
name = top;
pos = (368,553);
}
);
layerId = "84606D06-D269-45BD-896C-8402F9D7AD38";
shapes = (
{
closed = 1;
nodes = (
(200,0,l),
(234,165,l),
(283,191,l),
(351,0,l),
(565,0,l),
(431,303,l),
(669,553,l),
(451,553,l),
(263,331,l),
(259,331,l),
(270,359,o),
(283,400,o),
(291,436,cs),
(316,553,l),
(127,553,l),
(11,0,l)
);
}
);
width = 617;
}
);
script = latin;
subCategory = Lowercase;
unicode = 312;
},
{
category = Letter;
glyphname = Lslash;
kernRight = L.left;
layers = (
{
anchors = (
{
name = bottom;
pos = (210,0);
},
{
name = center;
pos = (230,357);
},
{
name = top;
pos = (362,714);
}
);
layerId = "84606D06-D269-45BD-896C-8402F9D7AD38";
shapes = (
{
closed = 1;
nodes = (
(450,0,l),
(483,156,l),
(250,156,l),
(288,338,l),
(472,434,l),
(408,553,l),
(324,509,l),
(368,714,l),
(177,714,l),
(111,407,l),
(-23,336,l),
(38,218,l),
(76,237,l),
(26,0,l)
);
}
);
width = 537;
}
);
script = latin;
subCategory = Uppercase;
unicode = 321;
},
{
category = Letter;
glyphname = lslash;
layers = (
{
anchors = (
{
name = bottom;
pos = (119,0);
},
{
name = center;
pos = (193,380);
},
{
name = top;
pos = (281,760);
}
);
layerId = "84606D06-D269-45BD-896C-8402F9D7AD38";
shapes = (
{
closed = 1;
nodes = (
(215,0,l),
(278,300,l),
(410,366,l),
(353,475,l),
(311,454,l),
(376,760,l),
(187,760,l),
(102,358,l),
(-24,293,l),
(28,184,l),
(70,205,l),
(26,0,l)
);
}
);
width = 355;
}
);
script = latin;
subCategory = Lowercase;
unicode = 322;
},
{
category = Letter;
glyphname = Eng;
layers = (
{
anchors = (
{
name = bottom;
pos = (288,-225);
},
{
name = center;
pos = (405,244);
},
{
name = top;
pos = (488,714);
}
);
layerId = "84606D06-D269-45BD-896C-8402F9D7AD38";
shapes = (
{
closed = 1;
nodes = (
(536,-225,o),
(612,-152,o),
(644,0,cs),
(795,714,l),
(625,714,l),
(571,461,ls),
(560,411,o),
(545,331,o),
(540,288,c),
(536,288,l),
(377,714,l),
(167,714,l),
(16,0,l),
(186,0,l),
(249,298,ls),
(263,363,o),
(275,476,o),
(277,502,c),
(281,502,l),
(469,4,l),
(453,-53,o),
(404,-73,o),
(353,-73,cs),
(309,-73,o),
(284,-67,o),
(260,-61,c),
(260,-211,l),
(291,-219,o),
(330,-225,o),
(364,-225,cs)
);
}
);
width = 790;
}
);
script = latin;
subCategory = Uppercase;
unicode = 330;
},
{
category = Letter;
glyphname = eng;
kernLeft = n.right;
kernRight = m;
layers = (
{
anchors = (
{
name = bottom;
pos = (201,-240);
},
{
name = center;
pos = (293,161);
},
{
name = top;
pos = (370,553);
},
{
name = topright;
pos = (661,553);
}
);
layerId = "84606D06-D269-45BD-896C-8402F9D7AD38";
shapes = (
{
closed = 1;
nodes = (
(409,-240,o),
(470,-146,o),
(491,-46,cs),
(563,294,ls),
(570,329,o),
(575,369,o),
(575,406,cs),
(575,491,o),
(532,563,o),
(429,563,cs),
(359,563,o),
(313,538,o),
(277,476,c),
(273,476,l),
(279,553,l),
(128,553,l),
(11,0,l),
(200,0,l),
(257,270,ls),
(277,367,o),
(309,413,o),
(347,413,cs),
(367,413,o),
(384,399,o),
(384,371,cs),
(384,348,o),
(379,319,o),
(375,302,cs),
(308,-16,ls),
(297,-68,o),
(263,-88,o),
(223,-88,cs),
(206,-88,o),
(192,-87,o),
(168,-79,c),
(168,-227,l),
(191,-234,o),
(234,-240,o),
(269,-240,cs)
);
}
);
width = 622;
}
);
script = latin;
subCategory = Lowercase;
unicode = 331;
},
{
category = Letter;
glyphname = OE;
kernLeft = O.right;
kernRight = E.left;
layers = (
{
anchors = (
{
name = bottom;
pos = (407,0);
},
{
name = center;
pos = (506,357);
},
{
name = top;
pos = (559,714);
}
);
layerId = "84606D06-D269-45BD-896C-8402F9D7AD38";
shapes = (
{
closed = 1;
nodes = (
(349,-10,o),
(382,-6,o),
(412,0,c),
(810,0,l),
(842,158,l),
(609,158,l),
(637,291,l),
(854,291,l),
(889,448,l),
(672,448,l),
(695,558,l),
(928,558,l),
(961,714,l),
(534,714,l),
(507,720,o),
(473,725,o),
(441,725,cs),
(157,725,o),
(51,464,o),
(51,258,cs),
(51,99,o),
(142,-10,o),
(316,-10,cs)
);
},
{
closed = 1;
nodes = (
(277,151,o),
(244,184,o),
(244,257,cs),
(244,422,o),
(327,567,o),
(425,567,cs),
(454,567,o),
(482,560,o),
(500,543,c),
(421,171,l),
(393,157,o),
(361,151,o),
(333,151,cs)
);
}
);
width = 932;
}
);
script = latin;
subCategory = Uppercase;
unicode = 338;
},
{
category = Letter;
glyphname = oe;
kernLeft = o.right;
kernRight = o.left;
layers = (
{
anchors = (
{
name = bottom;
pos = (381,0);
},
{
name = center;
pos = (449,276);
},
{
name = top;
pos = (499,553);
}
);
layerId = "84606D06-D269-45BD-896C-8402F9D7AD38";
shapes = (
{
closed = 1;
nodes = (
(324,-10,o),
(378,10,o),
(417,45,c),
(447,9,o),
(493,-10,o),
(561,-10,cs),
(657,-10,o),
(713,10,o),
(772,40,c),
(772,174,l),
(715,144,o),
(668,126,o),
(612,126,cs),
(559,126,o),
(532,149,o),
(532,197,cs),
(532,201,o),
(532,203,o),
(532,206,c),
(561,206,ls),
(767,206,o),
(858,287,o),
(858,409,cs),
(858,502,o),
(783,563,o),
(659,563,cs),
(580,563,o),
(521,540,o),
(477,502,c),
(449,541,o),
(405,563,o),
(342,563,cs),
(148,563,o),
(41,392,o),
(41,203,cs),
(41,67,o),
(118,-10,o),
(254,-10,cs)
);
},
{
closed = 1;
nodes = (
(249,132,o),
(234,154,o),
(234,197,cs),
(234,306,o),
(275,421,o),
(331,421,cs),
(357,421,o),
(373,399,o),
(373,356,cs),
(373,247,o),
(331,132,o),
(275,132,cs)
);
},
{
closed = 1;
nodes = (
(551,324,l),
(558,375,o),
(594,435,o),
(638,435,cs),
(666,435,o),
(679,419,o),
(679,398,cs),
(679,364,o),
(650,324,o),
(565,324,cs)
);
}
);
width = 880;
}
);
script = latin;
subCategory = Lowercase;
unicode = 339;
},
{
category = Letter;
glyphname = Tbar;
kernLeft = T.right;
kernRight = T.left;
layers = (
{
anchors = (
{
name = bottom;
pos = (217,0);
},
{
name = center;
pos = (341,357);
},
{
name = top;
pos = (369,714);
}
);
layerId = "84606D06-D269-45BD-896C-8402F9D7AD38";
shapes = (
{
closed = 1;
nodes = (
(306,0,l),
(361,265,l),
(461,265,l),
(495,421,l),
(394,421,l),
(422,556,l),
(577,556,l),
(612,714,l),
(110,714,l),
(76,556,l),
(231,556,l),
(203,421,l),
(103,421,l),
(70,265,l),
(170,265,l),
(115,0,l)
);
}
);
width = 552;
}
);
script = latin;
subCategory = Uppercase;
unicode = 358;
},
{
category = Letter;
glyphname = tbar;
kernLeft = t.right;
kernRight = t.left;
layers = (
{
anchors = (
{
name = bottom;
pos = (170,0);
},
{
name = center;
pos = (239,326);
},
{
name = top;
pos = (311,663);
}
);
layerId = "84606D06-D269-45BD-896C-8402F9D7AD38";
shapes = (
{
closed = 1;
nodes = (
(274,-10,o),
(323,2,o),
(364,22,c),
(364,162,l),
(332,149,o),
(295,141,o),
(275,141,cs),
(257,141,o),
(244,143,o),
(244,165,cs),
(244,176,o),
(247,190,o),
(251,209,cs),
(252,216,l),
(374,216,l),
(399,334,l),
(278,334,l),
(295,410,l),
(436,410,l),
(467,553,l),
(326,553,l),
(349,663,l),
(223,663,l),
(157,547,l),
(51,504,l),
(31,410,l),
(106,410,l),
(89,334,l),
(36,334,l),
(11,216,l),
(64,216,l),
(57,180,ls),
(53,159,o),
(50,135,o),
(50,116,cs),
(50,22,o),
(106,-10,o),
(202,-10,cs)
);
}
);
width = 457;
}
);
script = latin;
subCategory = Lowercase;
unicode = 359;
},
{
category = Letter;
glyphname = longs;
layers = (
{
anchors = (
{
name = bottom;
pos = (74,-240);
},
{
name = center;
pos = (188,262);
},
{
name = top;
pos = (288,765);
}
);
layerId = "84606D06-D269-45BD-896C-8402F9D7AD38";
shapes = (
{
closed = 1;
nodes = (
(117,-240,o),
(177,-163,o),
(200,-57,cs),
(333,564,ls),
(340,595,o),
(359,613,o),
(384,613,cs),
(405,613,o),
(424,607,o),
(443,598,c),
(495,737,l),
(461,754,o),
(409,765,o),
(357,765,cs),
(245,765,o),
(178,712,o),
(151,587,cs),
(18,-27,ls),
(9,-69,o),
(-14,-88,o),
(-62,-88,cs),
(-80,-88,o),
(-101,-84,o),
(-119,-79,c),
(-119,-227,l),
(-96,-234,o),
(-53,-240,o),
(-18,-240,cs)
);
}
);
width = 367;
}
);
script = latin;
subCategory = Lowercase;
unicode = 383;
},
{
category = Symbol;
glyphname = fhook;
layers = (
{
anchors = (
{
name = bottom;
pos = (174,0);
},
{
name = top;
pos = (531,765);
},
{
name = topright;
pos = (699,765);
}
);
layerId = "84606D06-D269-45BD-896C-8402F9D7AD38";
shapes = (
{
closed = 1;
nodes = (
(269,-241,o),
(352,-174,o),
(383,-35,cs),
(482,411,l),
(584,411,l),
(616,553,l),
(513,553,l),
(521,588,ls),
(526,611,o),
(543,623,o),
(566,623,cs),
(587,623,o),
(610,617,o),
(629,608,c),
(677,737,l),
(643,754,o),
(591,765,o),
(539,765,cs),
(427,765,o),
(361,712,o),
(333,587,cs),
(325,551,l),
(233,504,l),
(212,411,l),
(293,411,l),
(194,-32,ls),
(183,-81,o),
(166,-106,o),
(138,-106,cs),
(105,-106,o),
(97,-76,o),
(97,-55,cs),
(97,-39,o),
(99,-21,o),
(104,-6,c),
(-36,44,l),
(-47,21,o),
(-57,-17,o),
(-57,-52,cs),
(-57,-174,o),
(19,-241,o),
(148,-241,cs)
);
}
);
width = 575;
}
);
metricRight = f;
script = latin;
subCategory = Currency;
unicode = 402;
},
{
category = Letter;
glyphname = Aringacute;
kernLeft = A.right;
kernRight = A.left;
layers = (
{
anchors = (
{
name = bottom;
pos = (279,0);
},
{
name = center;
pos = (309,479);
},
{
name = top;
pos = (483,958);
}
);
layerId = "84606D06-D269-45BD-896C-8402F9D7AD38";
shapes = (
{
closed = 1;
nodes = (
(-59,0,l),
(139,0,l),
(200,134,l),
(415,134,l),
(424,0,l),
(610,0,l),
(531,652,l),
(547,667,o),
(560,698,o),
(560,727,cs),
(560,803,o),
(502,850,o),
(429,850,cs),
(352,850,o),
(298,803,o),
(298,726,cs),
(298,710,o),
(300,695,o),
(304,682,c)
);
},
{
closed = 1;
nodes = (
(364,477,ls),
(369,487,o),
(380,516,o),
(388,538,c),
(393,538,l),
(393,501,o),
(395,465,o),
(396,435,cs),
(409,286,l),
(270,286,l)
);
},
{
closed = 1;
nodes = (
(401,685,o),
(386,702,o),
(386,726,cs),
(386,751,o),
(406,768,o),
(429,768,cs),
(452,768,o),
(472,751,o),
(472,726,cs),
(472,702,o),
(451,685,o),
(428,685,cs)
);
},
{
closed = 1;
nodes = (
(372,875,l),
(508,875,l),
(552,889,o),
(629,916,o),
(678,954,c),
(678,958,l),
(470,958,l),
(446,934,o),
(402,901,o),
(372,880,c)
);
}
);
width = 676;
}
);
script = latin;
subCategory = Uppercase;
unicode = 506;
},
{
category = Letter;
glyphname = aringacute;
kernLeft = a.right;
kernRight = n.left;
layers = (
{
anchors = (
{
name = bottom;
pos = (245,0);
},
{
name = center;
pos = (343,474);
},
{
name = top;
pos = (449,958);
}
);
layerId = "84606D06-D269-45BD-896C-8402F9D7AD38";
shapes = (
{
closed = 1;
nodes = (
(263,-10,o),
(300,19,o),
(329,60,c),
(333,60,l),
(328,0,l),
(479,0,l),
(596,553,l),
(445,553,l),
(419,485,l),
(415,485,l),
(388,532,o),
(350,563,o),
(287,563,cs),
(119,563,o),
(41,336,o),
(41,201,cs),
(41,44,o),
(113,-10,o),
(198,-10,cs)
);
},
{
closed = 1;
nodes = (
(248,142,o),
(234,167,o),
(234,212,cs),
(234,307,o),
(279,411,o),
(331,411,cs),
(358,411,o),
(371,383,o),
(371,341,cs),
(371,321,o),
(369,300,o),
(365,280,cs),
(353,209,o),
(319,142,o),
(276,142,cs)
);
},
{
closed = 1;
nodes = (
(443,586,o),
(500,633,o),
(500,710,cs),
(500,786,o),
(442,833,o),
(369,833,cs),
(292,833,o),
(238,786,o),
(238,709,cs),
(238,633,o),
(292,586,o),
(369,586,cs)
);
},
{
closed = 1;
nodes = (
(342,668,o),
(326,685,o),
(326,709,cs),
(326,734,o),
(346,751,o),
(369,751,cs),
(392,751,o),
(412,734,o),
(412,709,cs),
(412,685,o),
(392,668,o),
(369,668,cs)
);
},
{
closed = 1;
nodes = (
(330,864,l),
(466,864,l),
(509,878,o),
(595,914,o),
(645,952,c),
(645,958,l),
(436,958,l),
(413,934,o),
(359,890,o),
(330,869,c)
);
}
);
width = 607;
}
);
script = latin;
subCategory = Lowercase;
unicode = 507;
},
{
category = Mark;
glyphname = circumflex;
layers = (
{
layerId = "84606D06-D269-45BD-896C-8402F9D7AD38";
shapes = (
{
closed = 1;
nodes = (
(112,606,l),
(246,606,l),
(287,632,o),
(326,662,o),
(363,691,c),
(381,669,o),
(417,625,o),
(439,606,c),
(569,606,l),
(569,617,l),
(539,656,o),
(501,722,o),
(481,766,c),
(263,766,l),
(224,723,o),
(158,659,o),
(112,617,c)
);
}
);
width = 539;
}
);
script = "";
subCategory = Spacing;
unicode = 710;
},
{
category = Mark;
glyphname = caron;
layers = (
{
layerId = "84606D06-D269-45BD-896C-8402F9D7AD38";
shapes = (
{
closed = 1;
nodes = (
(450,606,l),
(489,649,o),
(551,713,o),
(601,755,c),
(601,766,l),
(467,766,l),
(426,740,o),
(387,710,o),
(350,681,c),
(332,703,o),
(296,747,o),
(274,766,c),
(144,766,l),
(144,755,l),
(174,716,o),
(212,650,o),
(232,606,c)
);
}
);
width = 539;
}
);
script = "";
subCategory = Spacing;
unicode = 711;
},
{
category = Mark;
glyphname = macronmod;
layers = (
{
layerId = "84606D06-D269-45BD-896C-8402F9D7AD38";
shapes = (
{
closed = 1;
nodes = (
(436,606,l),
(460,721,l),
(135,721,l),
(110,606,l)
);
}
);
width = 406;
}
);
script = "";
subCategory = Spacing;
unicode = 713;
},
{
category = Mark;
glyphname = breve;
layers = (
{
layerId = "84606D06-D269-45BD-896C-8402F9D7AD38";
shapes = (
{
closed = 1;
nodes = (
(454,606,o),
(521,669,o),
(541,787,c),
(433,787,l),
(416,735,o),
(377,724,o),
(335,724,cs),
(287,724,o),
(255,745,o),
(255,787,c),
(149,787,l),
(147,782,o),
(145,772,o),
(145,760,cs),
(145,667,o),
(207,606,o),
(319,606,cs)
);
}
);
width = 473;
}
);
script = "";
subCategory = Spacing;
unicode = 728;
},
{
category = Mark;
glyphname = dotaccent;
layers = (
{
layerId = "84606D06-D269-45BD-896C-8402F9D7AD38";
shapes = (
{
closed = 1;
nodes = (
(304,606,o),
(332,648,o),
(332,708,cs),
(332,764,o),
(284,777,o),
(239,777,cs),
(169,777,o),
(128,747,o),
(128,675,cs),
(128,621,o),
(168,606,o),
(221,606,cs)
);
}
);
width = 284;
}
);
script = "";
subCategory = Spacing;
unicode = 729;
},
{
category = Mark;
glyphname = ring;
layers = (
{
layerId = "84606D06-D269-45BD-896C-8402F9D7AD38";
shapes = (
{
closed = 1;
nodes = (
(344,604,o),
(401,651,o),
(401,728,cs),
(401,804,o),
(343,851,o),
(270,851,cs),
(193,851,o),
(139,804,o),
(139,727,cs),
(139,651,o),
(193,604,o),
(270,604,cs)
);
},
{
closed = 1;
nodes = (
(243,686,o),
(227,703,o),
(227,727,cs),
(227,752,o),
(247,769,o),
(270,769,cs),
(293,769,o),
(313,752,o),
(313,727,cs),
(313,703,o),
(293,686,o),
(270,686,cs)
);
}
);
width = 348;
}
);
script = "";
subCategory = Spacing;
unicode = 730;
},
{
category = Mark;
glyphname = ogonek;
layers = (
{
layerId = "84606D06-D269-45BD-896C-8402F9D7AD38";
shapes = (
{
closed = 1;
nodes = (
(116,-256,o),
(142,-250,o),
(171,-241,c),
(171,-133,l),
(151,-140,o),
(135,-145,o),
(114,-145,cs),
(97,-145,o),
(88,-133,o),
(88,-120,cs),
(88,-76,o),
(129,-43,o),
(181,0,c),
(58,0,l),
(-4,-40,o),
(-48,-84,o),
(-48,-151,cs),
(-48,-209,o),
(-5,-256,o),
(74,-256,cs)
);
}
);
width = 321;
}
);
script = "";
subCategory = Spacing;
unicode = 731;
},
{
category = Mark;
glyphname = tilde;
layers = (
{
layerId = "84606D06-D269-45BD-896C-8402F9D7AD38";
shapes = (
{
closed = 1;
nodes = (
(202,604,l),
(206,634,o),
(229,653,o),
(249,653,cs),
(293,653,o),
(332,605,o),
(395,605,cs),
(473,605,o),
(527,649,o),
(552,772,c),
(459,772,l),
(447,739,o),
(426,723,o),
(403,723,cs),
(358,723,o),
(320,771,o),
(263,771,cs),
(187,771,o),
(132,725,o),
(110,604,c)
);
}
);
width = 487;
}
);
script = "";
subCategory = Spacing;
unicode = 732;
},
{
category = Mark;
glyphname = hungarumlaut;
layers = (
{
layerId = "84606D06-D269-45BD-896C-8402F9D7AD38";
shapes = (
{
closed = 1;
nodes = (
(339,606,l),
(438,606,l),
(490,641,o),
(601,721,o),
(622,756,c),
(622,766,l),
(440,766,l),
(416,721,o),
(367,658,o),
(339,620,c)
);
},
{
closed = 1;
nodes = (
(113,606,l),
(212,606,l),
(263,641,o),
(379,721,o),
(400,756,c),
(400,766,l),
(219,766,l),
(193,721,o),
(144,658,o),
(113,620,c)
);
}
);
width = 560;
}
);
script = "";
subCategory = Spacing;
unicode = 733;
},
{
category = Mark;
glyphname = tonos;
kernLeft = GRK_Alpha;
kernRight = GRK_Alpha;
layers = (
{
anchors = (
{
name = _top;
pos = (146,553);
}
);
layerId = "84606D06-D269-45BD-896C-8402F9D7AD38";
shapes = (
{
closed = 1;
nodes = (
(227,606,l),
(390,766,l),
(392,776,l),
(193,776,l),
(113,620,l),
(110,606,l)
);
}
);
width = 326;
}
);
metricLeft = "=acute";
metricRight = "=acute";
script = greek;
subCategory = Spacing;
unicode = 900;
},
{
category = Mark;
glyphname = dieresistonos;
kernLeft = GRK_Epsilon;
kernRight = GRK_Beta;
layers = (
{
anchors = (
{
name = _top;
pos = (397,553);
}
);
layerId = "84606D06-D269-45BD-896C-8402F9D7AD38";
shapes = (
{
closed = 1;
nodes = (
(463,606,l),
(616,766,l),
(618,776,l),
(419,776,l),
(349,620,l),
(346,606,l)
);
},
{
closed = 1;
nodes = (
(276,614,o),
(320,638,o),
(331,690,cs),
(342,743,o),
(308,767,o),
(263,767,cs),
(216,767,o),
(175,743,o),
(164,690,c),
(153,638,o),
(184,614,o),
(231,614,cs)
);
},
{
closed = 1;
nodes = (
(731,614,o),
(775,638,o),
(786,690,cs),
(797,743,o),
(763,767,o),
(718,767,cs),
(670,767,o),
(629,743,o),
(618,690,c),
(607,638,o),
(638,614,o),
(686,614,cs)
);
}
);
width = 758;
}
);
metricLeft = "=dieresis";
metricRight = "=dieresis";
script = greek;
subCategory = Spacing;
unicode = 901;
},
{
category = Letter;
glyphname = Gamma;
kernLeft = GRK_Epsilon;
kernRight = GRK_Gamma;
layers = (
{
anchors = (
{
name = center;
pos = (302,357);
}
);
layerId = "84606D06-D269-45BD-896C-8402F9D7AD38";
shapes = (
{
closed = 1;
nodes = (
(207,0,l),
(325,558,l),
(555,558,l),
(588,714,l),
(167,714,l),
(16,0,l)
);
}
);
width = 569;
}
);
metricLeft = "=F";
metricRight = "=F";
script = greek;
subCategory = Uppercase;
unicode = 915;
},
{
category = Letter;
glyphname = Theta;
kernLeft = GRK_Omicron;
kernRight = GRK_Omicron;
layers = (
{
layerId = "84606D06-D269-45BD-896C-8402F9D7AD38";
shapes = (
{
closed = 1;
nodes = (
(443,290,l),
(475,436,l),
(314,436,l),
(282,290,l)
);
},
{
ref = O;
}
);
width = 737;
}
);
metricLeft = "=O";
metricRight = "=O";
script = greek;
subCategory = Uppercase;
unicode = 920;
},
{
category = Letter;
glyphname = Lambda;
kernLeft = GRK_Alpha;
kernRight = GRK_Alpha;
layers = (
{
anchors = (
{
name = center;
pos = (250,357);
}
);
layerId = "84606D06-D269-45BD-896C-8402F9D7AD38";
shapes = (
{
closed = 1;
nodes = (
(143,0,l),
(313,393,ls),
(333,438,o),
(349,490,o),
(361,531,c),
(363,531,l),
(359,485,o),
(358,408,o),
(360,347,cs),
(372,0,l),
(559,0,l),
(507,714,l),
(294,714,l),
(-59,0,l)
);
}
);
width = 625;
}
);
metricLeft = "=A";
metricRight = "=A";
script = greek;
subCategory = Uppercase;
unicode = 923;
},
{
category = Letter;
glyphname = Xi;
kernLeft = GRK_Xi;
kernRight = GRK_Epsilon;
layers = (
{
anchors = (
{
name = center;
pos = (309,357);
}
);
layerId = "84606D06-D269-45BD-896C-8402F9D7AD38";
shapes = (
{
closed = 1;
nodes = (
(480,0,l),
(512,157,l),
(38,157,l),
(7,0,l)
);
},
{
closed = 1;
nodes = (
(491,292,l),
(526,447,l),
(142,447,l),
(106,292,l)
);
},
{
closed = 1;
nodes = (
(579,559,l),
(612,714,l),
(167,714,l),
(134,559,l)
);
}
);
width = 602;
}
);
metricLeft = "=|E";
metricRight = "=E";
script = greek;
subCategory = Uppercase;
unicode = 926;
},
{
category = Letter;
glyphname = Pi;
kernLeft = GRK_Epsilon;
kernRight = GRK_Eta;
layers = (
{
anchors = (
{
name = center;
pos = (367,357);
}
);
layerId = "84606D06-D269-45BD-896C-8402F9D7AD38";
shapes = (
{
closed = 1;
nodes = (
(207,0,l),
(324,556,l),
(493,556,l),
(377,0,l),
(568,0,l),
(719,714,l),
(167,714,l),
(16,0,l)
);
}
);
width = 714;
}
);
metricLeft = "=H";
metricRight = "=H";
script = greek;
subCategory = Uppercase;
unicode = 928;
},
{
category = Letter;
glyphname = Sigma;
kernLeft = GRK_Zeta;
kernRight = GRK_Zeta;
layers = (
{
anchors = (
{
name = center;
pos = (270,357);
}
);
layerId = "84606D06-D269-45BD-896C-8402F9D7AD38";
shapes = (
{
closed = 1;
nodes = (
(450,0,l),
(483,156,l),
(335,156,ls),
(287,156,o),
(229,154,o),
(185,150,c),
(367,364,l),
(376,403,l),
(308,565,l),
(347,560,o),
(380,560,o),
(400,560,cs),
(553,559,l),
(585,714,l),
(134,714,l),
(104,570,l),
(192,369,l),
(-18,137,l),
(-45,0,l)
);
}
);
width = 529;
}
);
metricLeft = "=Z";
metricRight = "=Z";
script = greek;
subCategory = Uppercase;
unicode = 931;
},
{
category = Letter;
glyphname = Phi;
kernLeft = GRK_Omicron;
kernRight = GRK_Omicron;
layers = (
{
anchors = (
{
name = center;
pos = (474,357);
}
);
layerId = "84606D06-D269-45BD-896C-8402F9D7AD38";
shapes = (
{
closed = 1;
nodes = (
(488,-10,l),
(509,90,l),
(755,90,o),
(879,223,o),
(899,366,cs),
(919,507,o),
(867,646,o),
(627,646,c),
(643,724,l),
(457,724,l),
(441,646,l),
(195,646,o),
(71,513,o),
(51,370,cs),
(31,229,o),
(84,90,o),
(323,90,c),
(302,-10,l)
);
},
{
closed = 1;
nodes = (
(242,237,o),
(230,305,o),
(239,369,cs),
(249,439,o),
(291,500,o),
(410,500,c),
(354,237,l)
);
},
{
closed = 1;
nodes = (
(596,499,l),
(710,499,o),
(720,431,o),
(711,367,cs),
(701,297,o),
(660,236,o),
(540,236,c)
);
}
);
width = 925;
}
);
metricLeft = "=O-10";
metricRight = "=O-10";
script = greek;
subCategory = Uppercase;
unicode = 934;
},
{
category = Letter;
glyphname = Psi;
kernLeft = GRK_Psi;
kernRight = GRK_Psi;
layers = (
{
anchors = (
{
name = center;
pos = (510,357);
}
);
layerId = "84606D06-D269-45BD-896C-8402F9D7AD38";
shapes = (
{
closed = 1;
nodes = (
(489,0,l),
(524,164,l),
(754,171,o),
(828,254,o),
(871,455,cs),
(926,714,l),
(736,714,l),
(681,458,ls),
(660,358,o),
(637,324,o),
(558,323,c),
(641,714,l),
(451,714,l),
(368,323,l),
(285,317,o),
(278,345,o),
(302,460,cs),
(356,714,l),
(164,714,l),
(109,458,ls),
(66,258,o),
(132,170,o),
(334,164,c),
(299,0,l)
);
}
);
width = 919;
}
);
metricLeft = "=U";
metricRight = "=U";
script = greek;
subCategory = Uppercase;
unicode = 936;
},
{
category = Letter;
glyphname = alpha;
kernLeft = GRK_omicron;
kernRight = GRK_alpha;
layers = (
{
anchors = (
{
name = bottom;
pos = (194,0);
},
{
name = center;
pos = (317,276);
},
{
name = top;
pos = (309,553);
}
);
layerId = "84606D06-D269-45BD-896C-8402F9D7AD38";
shapes = (
{
closed = 1;
nodes = (
(253,-10,o),
(291,28,o),
(309,54,c),
(313,54,l),
(343,13,o),
(390,-10,o),
(466,-10,cs),
(498,-10,o),
(528,-3,o),
(547,3,c),
(578,145,l),
(572,143,o),
(558,140,o),
(547,140,cs),
(523,140,o),
(516,154,o),
(516,173,cs),
(516,183,o),
(518,195,o),
(521,206,cs),
(595,553,l),
(444,553,l),
(418,484,l),
(414,484,l),
(395,516,o),
(365,563,o),
(288,563,cs),
(113,563,o),
(40,331,o),
(40,201,cs),
(40,67,o),
(97,-10,o),
(194,-10,cs)
);
},
{
closed = 1;
nodes = (
(249,142,o),
(233,166,o),
(233,212,cs),
(233,293,o),
(274,411,o),
(331,411,cs),
(353,411,o),
(370,392,o),
(370,348,cs),
(370,316,o),
(365,278,o),
(356,244,cs),
(341,189,o),
(310,142,o),
(274,142,cs)
);
}
);
width = 643;
}
);
metricLeft = "=o";
metricRight = "=t";
script = greek;
subCategory = Lowercase;
unicode = 945;
},
{
category = Letter;
glyphname = beta;
kernLeft = GRK_mu;
kernRight = GRK_beta;
layers = (
{
anchors = (
{
name = center;
pos = (294,262);
}
);
layerId = "84606D06-D269-45BD-896C-8402F9D7AD38";
shapes = (
{
closed = 1;
nodes = (
(151,-240,l),
(206,21,l),
(232,3,o),
(272,-10,o),
(332,-10,cs),
(517,-10,o),
(587,97,o),
(587,227,cs),
(587,318,o),
(531,383,o),
(451,395,c),
(555,404,o),
(626,477,o),
(626,585,cs),
(626,701,o),
(546,765,o),
(397,765,cs),
(247,765,o),
(156,690,o),
(118,507,cs),
(-38,-240,l)
);
},
{
closed = 1;
nodes = (
(283,142,o),
(255,152,o),
(238,166,c),
(312,514,ls),
(331,604,o),
(360,617,o),
(392,617,cs),
(411,617,o),
(439,607,o),
(439,560,cs),
(439,505,o),
(404,465,o),
(356,465,cs),
(336,465,l),
(306,323,l),
(318,323,ls),
(366,323,o),
(397,293,o),
(397,235,cs),
(397,181,o),
(361,142,o),
(311,142,cs)
);
}
);
width = 641;
}
);
metricLeft = "=p";
metricRight = "=o-10";
script = greek;
subCategory = Lowercase;
unicode = 946;
},
{
category = Letter;
glyphname = gamma;
kernLeft = GRK_gamma;
kernRight = GRK_gamma;
layers = (
{
anchors = (
{
name = center;
pos = (294,166);
}
);
layerId = "84606D06-D269-45BD-896C-8402F9D7AD38";
shapes = (
{
closed = 1;
nodes = (
(228,-220,l),
(280,25,l),
(450,193,o),
(527,354,o),
(549,553,c),
(355,553,l),
(334,359,o),
(294,260,o),
(238,172,c),
(233,172,l),
(234,195,o),
(234,223,o),
(234,241,cs),
(229,553,l),
(43,553,l),
(96,46,l),
(39,-220,l)
);
}
);
width = 541;
}
);
metricLeft = "=nu";
metricRight = "=nu";
script = greek;
subCategory = Lowercase;
unicode = 947;
},
{
category = Letter;
glyphname = delta;
kernLeft = GRK_omicron;
kernRight = GRK_omicron;
layers = (
{
anchors = (
{
name = center;
pos = (339,377);
}
);
layerId = "84606D06-D269-45BD-896C-8402F9D7AD38";
shapes = (
{
closed = 1;
nodes = (
(453,-10,o),
(554,111,o),
(554,278,cs),
(554,359,o),
(522,425,o),
(448,489,cs),
(385,544,o),
(370,562,o),
(370,588,cs),
(370,607,o),
(382,627,o),
(423,627,cs),
(459,627,o),
(514,612,o),
(569,566,c),
(644,701,l),
(579,748,o),
(507,765,o),
(415,765,cs),
(284,765,o),
(183,703,o),
(183,582,cs),
(183,520,o),
(214,492,o),
(246,461,c),
(117,432,o),
(34,319,o),
(34,186,cs),
(34,72,o),
(101,-10,o),
(261,-10,cs)
);
},
{
closed = 1;
nodes = (
(241,132,o),
(224,158,o),
(224,202,cs),
(224,275,o),
(255,345,o),
(323,374,c),
(353,350,o),
(364,313,o),
(364,270,cs),
(364,189,o),
(320,132,o),
(273,132,cs)
);
}
);
width = 598;
}
);
metricLeft = "=o";
metricRight = "=o-10";
script = greek;
subCategory = Lowercase;
unicode = 948;
},
{
category = Letter;
glyphname = epsilon;
kernLeft = GRK_epsilon;
kernRight = GRK_epsilon;
layers = (
{
anchors = (
{
name = bottom;
pos = (220,0);
},
{
name = center;
pos = (256,276);
},
{
name = top;
pos = (294,553);
}
);
layerId = "84606D06-D269-45BD-896C-8402F9D7AD38";
shapes = (
{
closed = 1;
nodes = (
(309,-10,o),
(367,4,o),
(409,28,c),
(409,173,l),
(375,154,o),
(334,132,o),
(268,132,cs),
(226,132,o),
(208,149,o),
(208,174,cs),
(208,207,o),
(237,222,o),
(285,222,cs),
(352,222,l),
(379,349,l),
(320,349,ls),
(279,349,o),
(261,364,o),
(261,386,cs),
(261,411,o),
(275,425,o),
(315,425,cs),
(361,425,o),
(405,409,o),
(445,384,c),
(493,518,l),
(441,546,o),
(383,563,o),
(304,563,cs),
(151,563,o),
(87,500,o),
(87,408,cs),
(87,351,o),
(117,316,o),
(162,297,c),
(162,293,l),
(65,276,o),
(20,231,o),
(20,150,cs),
(20,49,o),
(103,-10,o),
(226,-10,cs)
);
}
);
width = 474;
}
);
metricLeft = "=c";
metricRight = "=c-10";
script = greek;
subCategory = Lowercase;
unicode = 949;
},
{
category = Letter;
glyphname = zeta;
kernLeft = GRK_zeta;
kernRight = GRK_zeta;
layers = (
{
anchors = (
{
name = center;
pos = (292,279);
}
);
layerId = "84606D06-D269-45BD-896C-8402F9D7AD38";
shapes = (
{
closed = 1;
nodes = (
(365,-202,l),
(383,-179,o),
(419,-108,o),
(427,-53,cs),
(437,16,o),
(413,68,o),
(327,108,cs),
(246,146,o),
(218,181,o),
(221,237,cs),
(225,303,o),
(263,355,o),
(381,478,cs),
(543,648,l),
(567,760,l),
(129,760,l),
(99,617,l),
(246,617,ls),
(278,617,o),
(314,621,o),
(338,628,c),
(245,539,ls),
(85,386,o),
(35,317,o),
(21,219,cs),
(4,96,o),
(70,40,o),
(172,-10,cs),
(235,-41,o),
(234,-72,o),
(231,-99,cs),
(227,-137,o),
(206,-170,o),
(185,-202,c)
);
}
);
width = 469;
}
);
metricLeft = "=o-20";
metricRight = "=c-50";
script = greek;
subCategory = Lowercase;
unicode = 950;
},
{
category = Letter;
glyphname = eta;
kernLeft = GRK_eta;
kernRight = GRK_eta;
layers = (
{
anchors = (
{
name = bottom;
pos = (74,0);
},
{
name = center;
pos = (293,161);
},
{
name = top;
pos = (327,553);
}
);
layerId = "84606D06-D269-45BD-896C-8402F9D7AD38";
shapes = (
{
closed = 1;
nodes = (
(262,-240,l),
(451,-240,l),
(562,294,ls),
(569,329,o),
(575,371,o),
(575,408,cs),
(575,496,o),
(525,563,o),
(430,563,cs),
(360,563,o),
(313,538,o),
(277,476,c),
(273,476,l),
(279,553,l),
(128,553,l),
(11,0,l),
(200,0,l),
(257,270,ls),
(280,381,o),
(313,413,o),
(350,413,cs),
(366,413,o),
(384,399,o),
(384,371,cs),
(384,348,o),
(379,319,o),
(375,302,cs)
);
}
);
width = 623;
}
);
metricLeft = "=n";
metricRight = "=n";
script = greek;
subCategory = Lowercase;
unicode = 951;
},
{
category = Letter;
glyphname = theta;
kernLeft = GRK_theta;
kernRight = GRK_theta;
layers = (
{
anchors = (
{
name = center;
pos = (316,380);
}
);
layerId = "84606D06-D269-45BD-896C-8402F9D7AD38";
shapes = (
{
closed = 1;
nodes = (
(43,80,o),
(109,-10,o),
(255,-10,cs),
(382,-10,o),
(461,62,o),
(512,170,cs),
(562,275,o),
(590,426,o),
(590,539,cs),
(590,675,o),
(527,771,o),
(390,771,cs),
(258,771,o),
(169,699,o),
(113,571,cs),
(71,477,o),
(43,318,o),
(43,217,cs)
);
},
{
closed = 1;
nodes = (
(222,218,o),
(226,264,o),
(234,315,c),
(373,315,l),
(352,229,o),
(313,128,o),
(265,128,cs),
(236,128,o),
(222,153,o),
(222,192,cs)
);
},
{
closed = 1;
nodes = (
(299,582,o),
(334,633,o),
(370,633,cs),
(397,633,o),
(411,611,o),
(411,567,cs),
(411,531,o),
(407,492,o),
(402,453,c),
(263,453,l)
);
}
);
width = 600;
}
);
metricLeft = "=o-10";
metricRight = "=o";
script = greek;
subCategory = Lowercase;
unicode = 952;
},
{
category = Letter;
glyphname = iota;
kernLeft = GRK_iota;
kernRight = GRK_iota;
layers = (
{
anchors = (
{
name = bottom;
pos = (209,0);
},
{
name = center;
pos = (190,271);
},
{
name = top;
pos = (220,553);
}
);
layerId = "84606D06-D269-45BD-896C-8402F9D7AD38";
shapes = (
{
closed = 1;
nodes = (
(237,-10,o),
(284,-5,o),
(312,2,c),
(343,151,l),
(321,145,o),
(304,142,o),
(282,142,cs),
(257,142,o),
(238,152,o),
(238,190,cs),
(238,200,o),
(239,211,o),
(242,225,cs),
(312,553,l),
(121,553,l),
(43,185,ls),
(39,167,o),
(37,149,o),
(37,132,cs),
(37,54,o),
(82,-10,o),
(206,-10,cs)
);
}
);
width = 397;
}
);
metricLeft = "=u";
metricRight = "=alpha-10";
script = greek;
subCategory = Lowercase;
unicode = 953;
},
{
category = Letter;
glyphname = lambda;
kernLeft = GRK_lambda;
kernRight = GRK_lambda;
layers = (
{
anchors = (
{
name = center;
pos = (258,377);
}
);
layerId = "84606D06-D269-45BD-896C-8402F9D7AD38";
shapes = (
{
closed = 1;
nodes = (
(469,-10,o),
(533,-2,o),
(552,7,c),
(582,145,l),
(566,141,o),
(554,140,o),
(544,140,cs),
(505,140,o),
(476,149,o),
(459,250,cs),
(405,563,ls),
(379,712,o),
(352,765,o),
(216,765,cs),
(196,765,o),
(146,761,o),
(127,757,c),
(95,607,l),
(117,612,o),
(143,613,o),
(152,613,cs),
(201,613,o),
(229,589,o),
(240,532,cs),
(243,517,l),
(-65,0,l),
(133,0,l),
(232,186,ls),
(244,209,o),
(264,247,o),
(276,279,c),
(280,279,l),
(281,257,o),
(283,225,o),
(290,185,cs),
(299,132,ls),
(311,59,o),
(340,-10,o),
(443,-10,cs)
);
}
);
width = 611;
}
);
metricLeft = "=v+10";
metricRight = "=v";
script = greek;
subCategory = Lowercase;
unicode = 955;
},
{
category = Letter;
glyphname = nu;
kernLeft = GRK_gamma;
kernRight = GRK_gamma;
layers = (
{
anchors = (
{
name = center;
pos = (296,276);
}
);
layerId = "84606D06-D269-45BD-896C-8402F9D7AD38";
shapes = (
{
closed = 1;
nodes = (
(261,0,l),
(450,193,o),
(527,354,o),
(549,553,c),
(355,553,l),
(334,359,o),
(294,260,o),
(238,172,c),
(233,172,l),
(234,195,o),
(233,223,o),
(233,241,cs),
(229,553,l),
(43,553,l),
(102,0,l)
);
}
);
width = 541;
}
);
metricLeft = "=v";
metricRight = "=o";
script = greek;
subCategory = Lowercase;
unicode = 957;
},
{
category = Letter;
glyphname = xi;
kernLeft = GRK_xi;
kernRight = GRK_xi;
layers = (
{
anchors = (
{
name = center;
pos = (310,279);
}
);
layerId = "84606D06-D269-45BD-896C-8402F9D7AD38";
shapes = (
{
closed = 1;
nodes = (
(386,-202,l),
(413,-161,o),
(450,-87,o),
(450,-26,cs),
(450,32,o),
(423,72,o),
(340,112,cs),
(261,150,o),
(237,184,o),
(237,228,cs),
(237,273,o),
(261,323,o),
(382,323,cs),
(459,323,l),
(490,465,l),
(388,465,ls),
(335,465,o),
(293,474,o),
(293,526,cs),
(293,594,o),
(373,623,o),
(522,623,cs),
(564,623,l),
(591,760,l),
(158,760,l),
(128,617,l),
(164,617,ls),
(171,617,o),
(192,619,o),
(224,623,c),
(139,603,o),
(105,557,o),
(105,506,cs),
(105,452,o),
(137,423,o),
(215,402,c),
(215,398,l),
(94,371,o),
(29,293,o),
(29,181,cs),
(29,83,o),
(91,44,o),
(189,-8,cs),
(247,-38,o),
(253,-60,o),
(253,-83,cs),
(253,-129,o),
(236,-154,o),
(207,-202,c)
);
}
);
width = 540;
}
);
metricLeft = "=c";
metricRight = "=c";
script = greek;
subCategory = Lowercase;
unicode = 958;
},
{
category = Letter;
glyphname = pi;
kernLeft = GRK_pi;
kernRight = GRK_pi;
layers = (
{
anchors = (
{
name = bottom;
pos = (320,0);
},
{
name = center;
pos = (409,271);
},
{
name = top;
pos = (438,553);
}
);
layerId = "84606D06-D269-45BD-896C-8402F9D7AD38";
shapes = (
{
closed = 1;
nodes = (
(601,-10,o),
(659,2,o),
(700,22,c),
(700,162,l),
(668,149,o),
(639,142,o),
(615,142,cs),
(598,142,o),
(584,150,o),
(584,172,cs),
(584,185,o),
(587,204,o),
(590,219,cs),
(632,411,l),
(759,411,l),
(787,553,l),
(61,553,l),
(32,411,l),
(154,411,l),
(66,0,l),
(255,0,l),
(343,411,l),
(443,411,l),
(401,208,ls),
(395,181,o),
(391,145,o),
(391,123,cs),
(391,22,o),
(447,-10,o),
(538,-10,cs)
);
}
);
width = 791;
}
);
metricLeft = "=tau";
metricRight = "=tau";
script = greek;
subCategory = Lowercase;
unicode = 960;
},
{
category = Letter;
glyphname = rho;
kernLeft = GRK_mu;
kernRight = GRK_omicron;
layers = (
{
anchors = (
{
name = bottom;
pos = (184,-240);
},
{
name = center;
pos = (259,161);
},
{
name = top;
pos = (339,553);
}
);
layerId = "84606D06-D269-45BD-896C-8402F9D7AD38";
shapes = (
{
closed = 1;
nodes = (
(-38,-240,l),
(151,-240,l),
(179,-107,ls),
(191,-48,o),
(199,7,o),
(204,50,c),
(220,15,o),
(258,-10,o),
(314,-10,cs),
(473,-10,o),
(557,139,o),
(557,343,cs),
(557,468,o),
(482,563,o),
(336,563,cs),
(157,563,o),
(106,457,o),
(71,288,cs)
);
},
{
closed = 1;
nodes = (
(262,142,o),
(244,152,o),
(235,177,c),
(256,279,ls),
(279,393,o),
(296,411,o),
(329,411,cs),
(355,411,o),
(366,385,o),
(366,345,cs),
(366,326,o),
(352,142,o),
(282,142,cs)
);
}
);
width = 603;
}
);
metricLeft = "=p";
metricRight = "=o";
script = greek;
subCategory = Lowercase;
unicode = 961;
},
{
category = Letter;
glyphname = sigmafinal;
kernLeft = GRK_omicron;
kernRight = GRK_sigmafinal;
layers = (
{
anchors = (
{
name = center;
pos = (278,180);
}
);
layerId = "84606D06-D269-45BD-896C-8402F9D7AD38";
shapes = (
{
closed = 1;
nodes = (
(389,-202,l),
(406,-179,o),
(442,-108,o),
(451,-53,cs),
(461,16,o),
(438,67,o),
(354,107,cs),
(277,144,o),
(231,179,o),
(231,256,cs),
(231,336,o),
(278,413,o),
(347,413,cs),
(390,413,o),
(423,399,o),
(454,384,c),
(515,524,l),
(460,550,o),
(399,563,o),
(340,563,cs),
(174,563,o),
(41,423,o),
(41,222,cs),
(41,101,o),
(100,38,o),
(198,-11,cs),
(259,-42,o),
(258,-73,o),
(255,-100,cs),
(251,-135,o),
(230,-170,o),
(209,-202,c)
);
}
);
width = 543;
}
);
metricLeft = "=c";
metricRight = "=c";
script = greek;
subCategory = Lowercase;
unicode = 962;
},
{
category = Letter;
glyphname = sigma;
kernLeft = GRK_omicron;
kernRight = GRK_sigma;
layers = (
{
anchors = (
{
name = bottom;
pos = (254,0);
},
{
name = center;
pos = (343,271);
},
{
name = top;
pos = (372,553);
}
);
layerId = "84606D06-D269-45BD-896C-8402F9D7AD38";
shapes = (
{
closed = 1;
nodes = (
(422,-10,o),
(532,110,o),
(556,252,cs),
(568,329,o),
(556,368,o),
(529,411,c),
(617,411,l),
(648,553,l),
(364,553,ls),
(188,553,o),
(74,450,o),
(46,276,cs),
(14,86,o),
(101,-10,o),
(254,-10,cs)
);
},
{
closed = 1;
nodes = (
(231,132,o),
(222,182,o),
(237,267,cs),
(257,378,o),
(290,411,o),
(339,411,cs),
(355,411,l),
(372,388,o),
(379,350,o),
(366,272,cs),
(350,178,o),
(323,132,o),
(277,132,cs)
);
}
);
width = 636;
}
);
metricLeft = "=o";
metricRight = "=tau+10";
script = greek;
subCategory = Lowercase;
unicode = 963;
},
{
category = Letter;
glyphname = tau;
kernLeft = GRK_tau;
kernRight = GRK_tau;
layers = (
{
anchors = (
{
name = bottom;
pos = (203,0);
},
{
name = center;
pos = (281,271);
},
{
name = top;
pos = (321,553);
}
);
layerId = "84606D06-D269-45BD-896C-8402F9D7AD38";
shapes = (
{
closed = 1;
nodes = (
(327,-10,o),
(385,2,o),
(426,22,c),
(426,162,l),
(394,149,o),
(365,142,o),
(341,142,cs),
(324,142,o),
(310,150,o),
(310,172,cs),
(310,185,o),
(314,204,o),
(317,219,cs),
(358,411,l),
(500,411,l),
(531,553,l),
(61,553,l),
(31,411,l),
(172,411,l),
(127,208,ls),
(121,181,o),
(117,145,o),
(117,123,cs),
(117,22,o),
(173,-10,o),
(264,-10,cs)
);
}
);
width = 517;
}
);
metricLeft = "=t";
metricRight = "=t";
script = greek;
subCategory = Lowercase;
unicode = 964;
},
{
category = Letter;
glyphname = upsilon;
kernLeft = GRK_upsilon;
kernRight = GRK_upsilon;
layers = (
{
anchors = (
{
name = bottom;
pos = (261,0);
},
{
name = center;
pos = (316,272);
},
{
name = top;
pos = (352,553);
}
);
layerId = "84606D06-D269-45BD-896C-8402F9D7AD38";
shapes = (
{
closed = 1;
nodes = (
(427,-8,o),
(545,106,o),
(577,282,cs),
(596,389,o),
(590,477,o),
(577,553,c),
(398,553,l),
(408,477,o),
(400,345,o),
(383,266,cs),
(364,178,o),
(325,142,o),
(276,142,cs),
(232,142,o),
(229,171,o),
(239,220,cs),
(310,553,l),
(121,553,l),
(52,226,ls),
(24,95,o),
(68,-8,o),
(250,-8,cs)
);
}
);
width = 622;
}
);
metricLeft = "=u";
metricRight = "=o";
script = greek;
subCategory = Lowercase;
unicode = 965;
},
{
category = Letter;
glyphname = phi;
kernLeft = GRK_omicron;
kernRight = GRK_omicron;
layers = (
{
anchors = (
{
name = center;
pos = (429,161);
}
);
layerId = "84606D06-D269-45BD-896C-8402F9D7AD38";
shapes = (
{
closed = 1;
nodes = (
(400,-240,l),
(447,-8,l),
(664,0,o),
(809,133,o),
(809,337,cs),
(809,481,o),
(721,563,o),
(580,563,cs),
(436,563,o),
(373,488,o),
(345,355,cs),
(299,134,l),
(261,146,o),
(241,188,o),
(241,244,cs),
(241,320,o),
(258,402,o),
(331,471,c),
(206,562,l),
(88,485,o),
(50,365,o),
(50,240,cs),
(50,107,o),
(124,14,o),
(270,-8,c),
(223,-240,l)
);
},
{
closed = 1;
nodes = (
(521,353,ls),
(531,400,o),
(548,421,o),
(572,421,cs),
(602,421,o),
(618,388,o),
(618,350,cs),
(618,255,o),
(571,154,o),
(476,134,c)
);
}
);
width = 851;
}
);
metricLeft = "=o";
metricRight = "=o";
script = greek;
subCategory = Lowercase;
unicode = 966;
},
{
category = Letter;
glyphname = chi;
kernLeft = GRK_chi;
kernRight = GRK_chi;
layers = (
{
anchors = (
{
name = center;
pos = (298,161);
}
);
layerId = "84606D06-D269-45BD-896C-8402F9D7AD38";
shapes = (
{
closed = 1;
nodes = (
(471,-240,o),
(480,-234,o),
(521,-220,c),
(550,-83,l),
(522,-90,o),
(509,-90,o),
(497,-90,cs),
(468,-90,o),
(455,-80,o),
(446,-47,cs),
(320,430,ls),
(293,532,o),
(253,562,o),
(159,562,cs),
(131,562,o),
(86,552,o),
(63,543,c),
(33,400,l),
(55,408,o),
(73,412,o),
(90,412,cs),
(125,412,o),
(137,397,o),
(149,352,cs),
(274,-117,ls),
(300,-214,o),
(332,-240,o),
(419,-240,cs)
);
},
{
closed = 1;
nodes = (
(141,-240,l),
(284,17,l),
(234,207,l),
(-73,-240,l)
);
},
{
closed = 1;
nodes = (
(669,553,l),
(470,553,l),
(322,286,l),
(363,103,l)
);
}
);
width = 610;
}
);
metricLeft = "=x+5";
metricRight = "=x-10";
script = greek;
subCategory = Lowercase;
unicode = 967;
},
{
category = Letter;
glyphname = psi;
kernLeft = GRK_upsilon;
kernRight = GRK_upsilon;
layers = (
{
anchors = (
{
name = center;
pos = (431,260);
}
);
layerId = "84606D06-D269-45BD-896C-8402F9D7AD38";
shapes = (
{
closed = 1;
nodes = (
(397,-240,l),
(446,-8,l),
(609,1,o),
(755,75,o),
(798,280,cs),
(817,368,o),
(818,452,o),
(801,553,c),
(622,553,l),
(629,459,o),
(625,369,o),
(607,283,cs),
(585,178,o),
(549,150,o),
(478,142,c),
(609,760,l),
(431,760,l),
(300,142,l),
(252,148,o),
(227,162,o),
(247,257,cs),
(310,553,l),
(121,553,l),
(60,262,ls),
(18,61,o),
(114,-2,o),
(268,-8,c),
(219,-240,l)
);
}
);
width = 843;
}
);
metricLeft = "=upsilon";
metricRight = "=upsilon";
script = greek;
subCategory = Lowercase;
unicode = 968;
},
{
category = Letter;
glyphname = omega;
kernLeft = GRK_omicron;
kernRight = GRK_omicron;
layers = (
{
anchors = (
{
name = bottom;
pos = (411,0);
},
{
name = center;
pos = (465,271);
},
{
name = top;
pos = (507,553);
}
);
layerId = "84606D06-D269-45BD-896C-8402F9D7AD38";
shapes = (
{
closed = 1;
nodes = (
(337,-10,o),
(389,30,o),
(431,112,c),
(437,112,l),
(444,42,o),
(500,-10,o),
(591,-10,cs),
(729,-10,o),
(833,90,o),
(862,239,cs),
(890,382,o),
(868,483,o),
(840,553,c),
(645,553,l),
(673,504,o),
(705,398,o),
(674,254,cs),
(661,193,o),
(643,138,o),
(585,138,cs),
(550,138,o),
(527,167,o),
(542,237,cs),
(574,391,l),
(402,391,l),
(370,237,ls),
(355,164,o),
(333,138,o),
(292,138,cs),
(250,138,o),
(232,180,o),
(251,287,cs),
(274,395,o),
(314,488,o),
(401,553,c),
(206,553,l),
(133,486,o),
(92,421,o),
(64,289,cs),
(32,112,o),
(103,-10,o),
(244,-10,cs)
);
}
);
width = 911;
}
);
metricLeft = "=o+15";
metricRight = "=o-5";
script = greek;
subCategory = Lowercase;
unicode = 969;
},
{
category = Letter;
glyphname = "Dje-cy";
kernLeft = "Te-cy";
kernRight = "Hardsign-cy";
layers = (
{
anchors = (
{
name = bottom;
pos = (318,0);
},
{
name = center;
pos = (382,352);
},
{
name = top;
pos = (470,714);
}
);
layerId = "84606D06-D269-45BD-896C-8402F9D7AD38";
shapes = (
{
closed = 1;
nodes = (
(617,-10,o),
(690,99,o),
(690,229,cs),
(690,356,o),
(612,433,o),
(485,433,cs),
(448,433,o),
(405,427,o),
(377,417,c),
(384,388,l),
(422,556,l),
(596,556,l),
(631,714,l),
(110,714,l),
(76,556,l),
(231,556,l),
(115,0,l),
(306,0,l),
(372,323,l),
(355,265,l),
(375,275,o),
(406,281,o),
(430,281,cs),
(476,281,o),
(501,258,o),
(501,215,cs),
(501,173,o),
(476,143,o),
(432,143,cs),
(417,143,o),
(398,145,o),
(381,152,c),
(381,6,l),
(407,-4,o),
(442,-10,o),
(475,-10,cs)
);
}
);
width = 730;
}
);
metricLeft = "Te-cy";
script = cyrillic;
subCategory = Uppercase;
unicode = 1026;
},
{
category = Letter;
glyphname = "E-cy";
kernLeft = "O-cy";
kernRight = "Es-cy";
layers = (
{
anchors = (
{
name = bottom;
pos = (236,0);
},
{
name = center;
pos = (338,357);
},
{
name = top;
pos = (408,714);
}
);
layerId = "84606D06-D269-45BD-896C-8402F9D7AD38";
shapes = (
{
closed = 1;
nodes = (
(393,-10,o),
(454,0,o),
(512,21,c),
(512,175,l),
(463,157,o),
(421,148,o),
(379,148,cs),
(270,148,o),
(225,228,o),
(251,364,cs),
(277,504,o),
(342,567,o),
(434,567,cs),
(475,567,o),
(518,555,o),
(576,526,c),
(649,676,l),
(584,709,o),
(509,726,o),
(436,726,cs),
(242,726,o),
(109,606,o),
(63,384,cs),
(13,143,o),
(124,-10,o),
(338,-10,cs)
);
},
{
closed = 1;
nodes = (
(472,290,l),
(505,437,l),
(258,437,l),
(227,290,l)
);
}
);
width = 589;
}
);
metricLeft = C;
metricRight = C;
script = cyrillic;
subCategory = Uppercase;
unicode = 1028;
},
{
category = Letter;
glyphname = "Lje-cy";
kernLeft = "El-cy";
kernRight = "Hardsign-cy";
layers = (
{
anchors = (
{
name = bottom;
pos = (415,0);
},
{
name = center;
pos = (426,352);
},
{
name = top;
pos = (567,714);
}
);
layerId = "84606D06-D269-45BD-896C-8402F9D7AD38";
shapes = (
{
closed = 1;
nodes = (
(169,-11,o),
(228,51,o),
(286,240,cs),
(318,346,o),
(340,426,o),
(372,556,c),
(492,556,l),
(374,0,l),
(597,0,ls),
(823,0,o),
(923,120,o),
(923,277,cs),
(923,390,o),
(860,481,o),
(696,481,cs),
(667,481,l),
(717,714,l),
(237,714,l),
(177,476,o),
(154,389,o),
(123,285,cs),
(93,182,o),
(73,159,o),
(10,159,cs),
(-7,159,o),
(-22,161,o),
(-36,165,c),
(-36,6,l),
(-15,-5,o),
(8,-11,o),
(46,-11,cs)
);
},
{
closed = 1;
nodes = (
(634,326,l),
(665,326,ls),
(711,326,o),
(733,298,o),
(733,258,cs),
(733,203,o),
(700,155,o),
(625,155,cs),
(598,155,l)
);
}
);
width = 981;
}
);
metricLeft = "El-cy";
metricRight = "Softsign-cy";
script = cyrillic;
subCategory = Uppercase;
unicode = 1033;
},
{
category = Letter;
glyphname = "Nje-cy";
kernLeft = "En-cy";
kernRight = "Hardsign-cy";
layers = (
{
anchors = (
{
name = bottom;
pos = (419,0);
},
{
name = center;
pos = (495,357);
},
{
name = top;
pos = (571,714);
}
);
layerId = "84606D06-D269-45BD-896C-8402F9D7AD38";
shapes = (
{
closed = 1;
nodes = (
(203,0,l),
(268,305,l),
(427,305,l),
(363,0,l),
(605,0,ls),
(775,0,o),
(878,68,o),
(906,200,cs),
(938,352,o),
(843,459,o),
(669,459,cs),
(651,459,l),
(704,714,l),
(514,714,l),
(460,459,l),
(301,459,l),
(354,714,l),
(163,714,l),
(12,0,l)
);
},
{
closed = 1;
nodes = (
(618,305,l),
(653,305,ls),
(701,305,o),
(729,270,o),
(718,223,cs),
(708,181,o),
(679,154,o),
(630,154,cs),
(587,154,l)
);
}
);
width = 947;
}
);
metricLeft = H;
metricRight = "Softsign-cy";
script = cyrillic;
subCategory = Uppercase;
unicode = 1034;
},
{
category = Letter;
glyphname = "Tshe-cy";
kernLeft = "Te-cy";
kernRight = "Tshe-cy";
layers = (
{
anchors = (
{
name = bottom;
pos = (318,0);
},
{
name = center;
pos = (394,357);
},
{
name = top;
pos = (470,714);
}
);
layerId = "84606D06-D269-45BD-896C-8402F9D7AD38";
shapes = (
{
closed = 1;
nodes = (
(306,0,l),
(363,282,l),
(335,246,l),
(360,257,o),
(391,262,o),
(416,262,cs),
(477,262,o),
(501,230,o),
(487,162,cs),
(454,0,l),
(645,0,l),
(680,184,ls),
(708,329,o),
(634,419,o),
(482,419,cs),
(452,419,o),
(406,416,o),
(361,401,c),
(382,373,l),
(422,556,l),
(597,556,l),
(632,714,l),
(110,714,l),
(76,556,l),
(231,556,l),
(115,0,l)
);
}
);
width = 744;
}
);
metricLeft = "Te-cy";
script = cyrillic;
subCategory = Uppercase;
unicode = 1035;
},
{
category = Letter;
glyphname = "Dzhe-cy";
kernLeft = "En-cy";
kernRight = "En-cy";
layers = (
{
anchors = (
{
name = bottom;
pos = (250,-155);
},
{
name = center;
pos = (333,245);
},
{
name = top;
pos = (433,714);
}
);
layerId = "84606D06-D269-45BD-896C-8402F9D7AD38";
shapes = (
{
closed = 1;
nodes = (
(343,-155,l),
(376,0,l),
(552,0,l),
(703,714,l),
(513,714,l),
(396,158,l),
(237,158,l),
(353,714,l),
(163,714,l),
(13,0,l),
(190,0,l),
(156,-155,l)
);
}
);
width = 681;
}
);
script = cyrillic;
subCategory = Uppercase;
unicode = 1039;
},
{
category = Letter;
glyphname = "Be-cy";
kernLeft = "En-cy";
kernRight = "Be-cy";
layers = (
{
anchors = (
{
name = bottom;
pos = (248,0);
},
{
name = center;
pos = (342,357);
},
{
name = top;
pos = (400,714);
}
);
color = 1;
layerId = "84606D06-D269-45BD-896C-8402F9D7AD38";
shapes = (
{
closed = 1;
nodes = (
(254,0,ls),
(455,0,o),
(565,108,o),
(565,265,cs),
(565,372,o),
(508,456,o),
(333,456,cs),
(303,456,l),
(325,559,l),
(572,559,l),
(605,714,l),
(167,714,l),
(15,0,l)
);
},
{
closed = 1;
nodes = (
(271,305,l),
(302,305,ls),
(355,305,o),
(375,280,o),
(375,246,cs),
(375,191,o),
(342,155,o),
(274,155,cs),
(239,155,l)
);
}
);
width = 614;
}
);
metricLeft = H;
script = cyrillic;
subCategory = Uppercase;
unicode = 1041;
},
{
category = Letter;
glyphname = "Ge-cy";
kernLeft = "En-cy";
kernRight = "Te-cy";
layers = (
{
anchors = (
{
name = bottom;
pos = (219,0);
},
{
name = top;
pos = (370,714);
}
);
color = 1;
layerId = "84606D06-D269-45BD-896C-8402F9D7AD38";
shapes = (
{
closed = 1;
nodes = (
(207,0,l),
(325,558,l),
(544,558,l),
(577,714,l),
(167,714,l),
(16,0,l)
);
}
);
width = 500;
}
);
metricLeft = H;
script = cyrillic;
subCategory = Uppercase;
unicode = 1043;
},
{
category = Letter;
glyphname = "De-cy";
kernLeft = "De-cy";
kernRight = "De-cy";
layers = (
{
anchors = (
{
name = bottom;
pos = (279,-150);
},
{
name = center;
pos = (359,246);
},
{
name = top;
pos = (466,714);
}
);
color = 1;
layerId = "84606D06-D269-45BD-896C-8402F9D7AD38";
shapes = (
{
closed = 1;
nodes = (
(590,0,l),
(742,714,l),
(244,714,l),
(205,557,o),
(173,433,o),
(148,352,cs),
(116,250,o),
(78,187,o),
(23,136,c),
(218,128,l),
(256,173,o),
(286,231,o),
(310,303,cs),
(327,355,o),
(350,436,o),
(379,556,c),
(517,556,l),
(399,0,l)
);
},
{
closed = 1;
nodes = (
(96,-150,l),
(128,0,l),
(495,0,l),
(463,-150,l),
(649,-150,l),
(714,158,l),
(-25,158,l),
(-90,-150,l)
);
}
);
width = 766;
}
);
script = cyrillic;
subCategory = Uppercase;
unicode = 1044;
},
{
category = Letter;
glyphname = "Zhe-cy";
kernLeft = "Zhe-cy";
kernRight = "Zhe-cy";
layers = (
{
anchors = (
{
name = bottom;
pos = (404,0);
},
{
name = center;
pos = (479,357);
},
{
name = top;
pos = (555,714);
}
);
layerId = "84606D06-D269-45BD-896C-8402F9D7AD38";
shapes = (
{
closed = 1;
nodes = (
(871,0,l),
(753,390,l),
(760,363,l),
(1018,714,l),
(803,714,l),
(578,385,l),
(571,361,l),
(663,0,l)
);
},
{
closed = 1;
nodes = (
(497,0,l),
(648,714,l),
(461,714,l),
(310,0,l)
);
},
{
closed = 1;
nodes = (
(632,291,l),
(663,449,l),
(349,449,l),
(318,291,l)
);
},
{
closed = 1;
nodes = (
(171,0,l),
(383,354,l),
(389,380,l),
(302,714,l),
(111,714,l),
(243,264,l),
(230,418,l),
(-59,0,l)
);
}
);
width = 930;
}
);
metricLeft = "=|Ka-cy";
metricRight = "Ka-cy";
script = cyrillic;
subCategory = Uppercase;
unicode = 1046;
},
{
category = Letter;
glyphname = "Ze-cy";
kernLeft = "Ze-cy";
kernRight = "Ve-cy";
layers = (
{
anchors = (
{
name = bottom;
pos = (207,0);
},
{
name = center;
pos = (283,357);
},
{
name = top;
pos = (359,714);
}
);
color = 1;
layerId = "84606D06-D269-45BD-896C-8402F9D7AD38";
shapes = (
{
closed = 1;
nodes = (
(410,-10,o),
(516,79,o),
(516,215,cs),
(516,295,o),
(476,352,o),
(401,375,c),
(401,379,l),
(508,397,o),
(569,458,o),
(569,557,cs),
(569,669,o),
(479,726,o),
(343,726,cs),
(264,726,o),
(193,710,o),
(104,672,c),
(162,529,l),
(220,559,o),
(262,572,o),
(303,572,cs),
(350,572,o),
(377,552,o),
(377,515,cs),
(377,465,o),
(336,441,o),
(253,441,cs),
(194,441,l),
(163,298,l),
(230,298,ls),
(302,298,o),
(327,268,o),
(327,228,cs),
(327,176,o),
(287,147,o),
(209,147,cs),
(144,147,o),
(81,168,o),
(24,208,c),
(24,37,l),
(75,10,o),
(155,-10,o),
(229,-10,cs)
);
}
);
width = 585;
}
);
script = cyrillic;
subCategory = Uppercase;
unicode = 1047;
},
{
category = Letter;
glyphname = "Ii-cy";
kernLeft = "En-cy";
kernRight = "En-cy";
layers = (
{
anchors = (
{
name = bottom;
pos = (310,0);
},
{
name = center;
pos = (386,357);
},
{
name = top;
pos = (462,714);
}
);
color = 1;
layerId = "84606D06-D269-45BD-896C-8402F9D7AD38";
shapes = (
{
closed = 1;
nodes = (
(242,0,l),
(538,484,l),
(542,484,l),
(526,434,o),
(503,344,o),
(492,291,cs),
(430,0,l),
(603,0,l),
(755,714,l),
(521,714,l),
(240,254,l),
(236,254,l),
(250,297,o),
(268,370,o),
(281,429,cs),
(342,714,l),
(167,714,l),
(17,0,l)
);
}
);
width = 749;
}
);
metricLeft = H;
metricRight = H;
script = cyrillic;
subCategory = Uppercase;
unicode = 1048;
},
{
category = Letter;
glyphname = "Ka-cy";
kernLeft = "En-cy";
kernRight = "Zhe-cy";
layers = (
{
anchors = (
{
name = bottom;
pos = (269,0);
},
{
name = center;
pos = (385,357);
},
{
name = top;
pos = (440,714);
}
);
layerId = "84606D06-D269-45BD-896C-8402F9D7AD38";
shapes = (
{
closed = 1;
nodes = (
(596,0,l),
(473,390,l),
(480,363,l),
(743,714,l),
(528,714,l),
(298,385,l),
(291,361,l),
(388,0,l)
);
},
{
closed = 1;
nodes = (
(207,0,l),
(358,714,l),
(167,714,l),
(16,0,l)
);
},
{
closed = 1;
nodes = (
(342,291,l),
(373,449,l),
(239,449,l),
(208,291,l)
);
}
);
width = 655;
}
);
metricLeft = H;
script = cyrillic;
subCategory = Uppercase;
unicode = 1050;
},
{
category = Letter;
glyphname = "El-cy";
kernLeft = "El-cy";
kernRight = "En-cy";
layers = (
{
anchors = (
{
name = bottom;
pos = (296,0);
},
{
name = center;
pos = (338,352);
},
{
name = top;
pos = (448,714);
}
);
color = 1;
layerId = "84606D06-D269-45BD-896C-8402F9D7AD38";
shapes = (
{
closed = 1;
nodes = (
(169,-11,o),
(228,51,o),
(286,240,cs),
(318,346,o),
(340,426,o),
(372,556,c),
(504,556,l),
(386,0,l),
(577,0,l),
(729,714,l),
(237,714,l),
(177,476,o),
(154,389,o),
(123,285,cs),
(93,182,o),
(73,159,o),
(10,159,cs),
(-7,159,o),
(-22,161,o),
(-36,165,c),
(-36,6,l),
(-15,-5,o),
(8,-11,o),
(46,-11,cs)
);
}
);
width = 723;
}
);
metricRight = H;
script = cyrillic;
subCategory = Uppercase;
unicode = 1051;
},
{
category = Letter;
glyphname = "Pe-cy";
kernLeft = "En-cy";
kernRight = "En-cy";
layers = (
{
anchors = (
{
name = bottom;
pos = (291,0);
},
{
name = center;
pos = (367,357);
},
{
name = top;
pos = (443,714);
}
);
color = 1;
layerId = "84606D06-D269-45BD-896C-8402F9D7AD38";
shapes = (
{
closed = 1;
nodes = (
(207,0,l),
(324,556,l),
(491,556,l),
(375,0,l),
(566,0,l),
(717,714,l),
(167,714,l),
(16,0,l)
);
}
);
width = 712;
}
);
metricLeft = H;
metricRight = H;
script = cyrillic;
subCategory = Uppercase;
unicode = 1055;
},
{
category = Letter;
glyphname = "U-cy";
kernLeft = "U-cy";
kernRight = "U-cy";
layers = (
{
anchors = (
{
name = bottom;
pos = (233,0);
},
{
name = center;
pos = (308,352);
},
{
name = top;
pos = (385,714);
}
);
layerId = "84606D06-D269-45BD-896C-8402F9D7AD38";
shapes = (
{
closed = 1;
nodes = (
(265,-10,o),
(334,43,o),
(399,161,cs),
(703,714,l),
(492,714,l),
(374,449,ls),
(362,423,o),
(351,393,o),
(342,366,c),
(339,391,o),
(333,424,o),
(328,452,cs),
(278,714,l),
(83,714,l),
(237,122,l),
(252,285,l),
(193,166,o),
(169,145,o),
(102,145,cs),
(77,145,o),
(60,148,o),
(30,156,c),
(30,4,l),
(61,-4,o),
(97,-10,o),
(131,-10,cs)
);
}
);
width = 610;
}
);
script = cyrillic;
subCategory = Uppercase;
unicode = 1059;
},
{
category = Letter;
glyphname = "Ef-cy";
kernLeft = "Ef-cy";
kernRight = "Ef-cy";
layers = (
{
anchors = (
{
name = bottom;
pos = (370,0);
},
{
name = center;
pos = (446,357);
},
{
name = top;
pos = (522,714);
}
);
layerId = "84606D06-D269-45BD-896C-8402F9D7AD38";
shapes = (
{
closed = 1;
nodes = (
(459,-20,l),
(481,84,l),
(502,198,l),
(572,525,l),
(599,640,l),
(619,734,l),
(433,734,l),
(413,640,l),
(392,525,l),
(322,198,l),
(295,83,l),
(273,-20,l)
);
},
{
closed = 1;
nodes = (
(464,67,ls),
(720,67,o),
(837,233,o),
(837,406,cs),
(837,559,o),
(732,656,o),
(563,656,cs),
(430,656,ls),
(167,656,o),
(57,482,o),
(57,316,cs),
(57,162,o),
(161,67,o),
(331,67,cs)
);
},
{
closed = 1;
nodes = (
(288,215,o),
(245,253,o),
(245,327,cs),
(245,393,o),
(274,508,o),
(412,508,cs),
(547,508,ls),
(606,508,o),
(649,471,o),
(649,399,cs),
(649,337,o),
(622,215,o),
(482,215,cs),
(347,215,ls)
);
}
);
width = 872;
}
);
metricLeft = O;
metricRight = O;
script = cyrillic;
subCategory = Uppercase;
unicode = 1060;
},
{
category = Letter;
glyphname = "Tse-cy";
kernLeft = "En-cy";
kernRight = "De-cy";
layers = (
{
anchors = (
{
name = bottom;
pos = (250,-155);
},
{
name = center;
pos = (335,245);
},
{
name = top;
pos = (435,714);
}
);
color = 1;
layerId = "84606D06-D269-45BD-896C-8402F9D7AD38";
shapes = (
{
closed = 1;
nodes = (
(612,-150,l),
(677,158,l),
(587,158,l),
(705,714,l),
(514,714,l),
(396,158,l),
(240,158,l),
(358,714,l),
(167,714,l),
(16,0,l),
(458,0,l),
(426,-150,l)
);
}
);
width = 729;
}
);
metricLeft = H;
metricRight = "De-cy";
script = cyrillic;
subCategory = Uppercase;
unicode = 1062;
},
{
category = Letter;
glyphname = "Che-cy";
kernLeft = "Che-cy";
kernRight = "En-cy";
layers = (
{
anchors = (
{
name = bottom;
pos = (257,0);
},
{
name = center;
pos = (333,357);
},
{
name = top;
pos = (409,714);
}
);
color = 1;
layerId = "84606D06-D269-45BD-896C-8402F9D7AD38";
shapes = (
{
closed = 1;
nodes = (
(528,0,l),
(680,714,l),
(489,714,l),
(409,341,l),
(504,454,l),
(443,421,o),
(392,403,o),
(347,403,cs),
(290,403,o),
(270,434,o),
(285,506,cs),
(329,714,l),
(138,714,l),
(90,490,ls),
(53,319,o),
(115,240,o),
(246,240,cs),
(314,240,o),
(383,256,o),
(458,288,c),
(413,356,l),
(337,0,l)
);
}
);
width = 674;
}
);
metricRight = H;
script = cyrillic;
subCategory = Uppercase;
unicode = 1063;
},
{
category = Letter;
glyphname = "Sha-cy";
kernLeft = "En-cy";
kernRight = "En-cy";
layers = (
{
anchors = (
{
name = bottom;
pos = (431,0);
},
{
name = center;
pos = (507,357);
},
{
name = top;
pos = (583,714);
}
);
layerId = "84606D06-D269-45BD-896C-8402F9D7AD38";
shapes = (
{
closed = 1;
nodes = (
(846,0,l),
(998,714,l),
(807,714,l),
(689,158,l),
(559,158,l),
(677,714,l),
(488,714,l),
(370,158,l),
(240,158,l),
(358,714,l),
(167,714,l),
(15,0,l)
);
}
);
width = 992;
}
);
metricLeft = H;
metricRight = H;
script = cyrillic;
subCategory = Uppercase;
unicode = 1064;
},
{
category = Letter;
glyphname = "Shcha-cy";
kernLeft = "En-cy";
kernRight = "De-cy";
layers = (
{
anchors = (
{
name = bottom;
pos = (431,0);
},
{
name = center;
pos = (507,357);
},
{
name = top;
pos = (583,714);
}
);
color = 1;
layerId = "84606D06-D269-45BD-896C-8402F9D7AD38";
shapes = (
{
closed = 1;
nodes = (
(905,-150,l),
(970,158,l),
(880,158,l),
(998,714,l),
(807,714,l),
(689,158,l),
(559,158,l),
(677,714,l),
(488,714,l),
(370,158,l),
(240,158,l),
(358,714,l),
(167,714,l),
(15,0,l),
(751,0,l),
(719,-150,l)
);
}
);
width = 1022;
}
);
metricLeft = H;
metricRight = "De-cy";
script = cyrillic;
subCategory = Uppercase;
unicode = 1065;
},
{
category = Letter;
glyphname = "Hardsign-cy";
kernLeft = "Te-cy";
kernRight = "Hardsign-cy";
layers = (
{
anchors = (
{
name = bottom;
pos = (306,0);
},
{
name = center;
pos = (377,357);
},
{
name = top;
pos = (458,714);
}
);
color = 1;
layerId = "84606D06-D269-45BD-896C-8402F9D7AD38";
shapes = (
{
closed = 1;
nodes = (
(331,0,ls),
(557,0,o),
(657,120,o),
(657,277,cs),
(657,390,o),
(594,481,o),
(430,481,cs),
(401,481,l),
(451,714,l),
(110,714,l),
(76,556,l),
(226,556,l),
(108,0,l)
);
},
{
closed = 1;
nodes = (
(368,326,l),
(399,326,ls),
(445,326,o),
(467,298,o),
(467,258,cs),
(467,203,o),
(434,155,o),
(359,155,cs),
(332,155,l)
);
}
);
width = 715;
}
);
metricLeft = "Te-cy";
metricRight = "Softsign-cy";
script = cyrillic;
subCategory = Uppercase;
unicode = 1066;
},
{
category = Letter;
glyphname = "Softsign-cy";
kernLeft = "Nje-cy";
kernRight = "Hardsign-cy";
layers = (
{
anchors = (
{
name = bottom;
pos = (245,0);
},
{
name = center;
pos = (342,357);
},
{
name = top;
pos = (397,714);
}
);
color = 1;
layerId = "84606D06-D269-45BD-896C-8402F9D7AD38";
shapes = (
{
closed = 1;
nodes = (
(238,0,ls),
(464,0,o),
(564,120,o),
(564,277,cs),
(564,390,o),
(501,481,o),
(337,481,cs),
(308,481,l),
(358,714,l),
(167,714,l),
(15,0,l)
);
},
{
closed = 1;
nodes = (
(275,326,l),
(306,326,ls),
(352,326,o),
(374,298,o),
(374,258,cs),
(374,203,o),
(341,155,o),
(266,155,cs),
(239,155,l)
);
}
);
width = 622;
}
);
metricLeft = H;
script = cyrillic;
subCategory = Uppercase;
unicode = 1068;
},
{
category = Letter;
glyphname = "Ereversed-cy";
kernLeft = "Ze-cy";
kernRight = "O-cy";
layers = (
{
anchors = (
{
name = bottom;
pos = (206,0);
},
{
name = center;
pos = (282,357);
},
{
name = top;
pos = (358,714);
}
);
layerId = "84606D06-D269-45BD-896C-8402F9D7AD38";
shapes = (
{
closed = 1;
nodes = (
(461,-10,o),
(559,160,o),
(594,329,cs),
(643,565,o),
(535,726,o),
(324,726,cs),
(252,726,o),
(169,706,o),
(108,676,c),
(156,531,l),
(207,556,o),
(252,568,o),
(292,568,cs),
(406,568,o),
(427,466,o),
(405,347,cs),
(378,199,o),
(301,149,o),
(201,149,cs),
(142,149,o),
(72,166,o),
(27,192,c),
(27,32,l),
(72,6,o),
(144,-10,o),
(219,-10,c)
);
},
{
closed = 1;
nodes = (
(522,290,l),
(549,437,l),
(185,437,l),
(153,290,l)
);
}
);
width = 623;
}
);
script = cyrillic;
subCategory = Uppercase;
unicode = 1069;
},
{
category = Letter;
glyphname = "Iu-cy";
kernLeft = "En-cy";
kernRight = "O-cy";
layers = (
{
anchors = (
{
name = bottom;
pos = (462,0);
},
{
name = center;
pos = (538,357);
},
{
name = top;
pos = (614,714);
}
);
color = 1;
layerId = "84606D06-D269-45BD-896C-8402F9D7AD38";
shapes = (
{
closed = 1;
nodes = (
(207,0,l),
(269,291,l),
(403,291,l),
(432,449,l),
(303,449,l),
(358,714,l),
(167,714,l),
(16,0,l)
);
},
{
closed = 1;
nodes = (
(873,-10,o),
(991,226,o),
(991,450,cs),
(991,616,o),
(905,725,o),
(735,725,cs),
(482,725,o),
(360,489,o),
(360,265,cs),
(360,99,o),
(446,-10,o),
(622,-10,cs)
);
},
{
closed = 1;
nodes = (
(580,148,o),
(553,186,o),
(553,266,cs),
(553,412,o),
(624,567,o),
(719,567,cs),
(772,567,o),
(798,525,o),
(798,448,cs),
(798,282,o),
(723,148,o),
(639,148,cs)
);
}
);
width = 1022;
}
);
metricLeft = H;
metricRight = O;
script = cyrillic;
subCategory = Uppercase;
unicode = 1070;
},
{
category = Letter;
glyphname = "Ia-cy";
kernLeft = "Ia-cy";
kernRight = "En-cy";
layers = (
{
anchors = (
{
name = bottom;
pos = (265,0);
},
{
name = center;
pos = (297,357);
},
{
name = top;
pos = (417,714);
}
);
color = 1;
layerId = "84606D06-D269-45BD-896C-8402F9D7AD38";
shapes = (
{
closed = 1;
nodes = (
(163,0,l),
(344,255,l),
(375,255,l),
(321,0,l),
(512,0,l),
(664,714,l),
(421,714,ls),
(217,714,o),
(112,610,o),
(112,454,cs),
(112,371,o),
(145,327,o),
(236,267,c),
(228,381,l),
(-59,0,l)
);
},
{
closed = 1;
nodes = (
(330,400,o),
(302,420,o),
(302,463,cs),
(302,520,o),
(336,568,o),
(401,568,cs),
(442,568,l),
(406,400,l),
(383,400,ls)
);
}
);
width = 658;
}
);
metricRight = H;
script = cyrillic;
subCategory = Uppercase;
unicode = 1071;
},
{
category = Letter;
glyphname = "be-cy";
kernLeft = "be-cy";
kernRight = "o-cy";
layers = (
{
anchors = (
{
name = bottom;
pos = (234,0);
},
{
name = center;
pos = (315,378);
},
{
name = top;
pos = (397,766);
}
);
layerId = "84606D06-D269-45BD-896C-8402F9D7AD38";
shapes = (
{
closed = 1;
nodes = (
(408,-10,o),
(509,86,o),
(542,242,cs),
(567,359,o),
(550,516,o),
(398,516,cs),
(340,516,o),
(290,487,o),
(257,441,c),
(253,441,l),
(273,521,o),
(314,569,o),
(431,589,cs),
(465,595,o),
(527,602,o),
(582,610,c),
(567,765,l),
(510,758,o),
(436,750,o),
(393,741,cs),
(195,706,o),
(97,594,o),
(51,365,cs),
(3,127,o),
(79,-10,o),
(257,-10,cs)
);
},
{
closed = 1;
nodes = (
(230,132,o),
(215,175,o),
(231,257,cs),
(248,338,o),
(281,378,o),
(317,378,cs),
(358,378,o),
(369,331,o),
(352,250,cs),
(337,172,o),
(304,132,o),
(268,132,cs)
);
}
);
width = 579;
}
);
script = cyrillic;
subCategory = Lowercase;
unicode = 1073;
},
{
category = Letter;
glyphname = "ve-cy";
kernLeft = "o-cy";
kernRight = "ve-cy";
layers = (
{
anchors = (
{
name = bottom;
pos = (259,0);
},
{
name = center;
pos = (318,276);
},
{
name = top;
pos = (377,553);
}
);
color = 1;
layerId = "84606D06-D269-45BD-896C-8402F9D7AD38";
shapes = (
{
closed = 1;
nodes = (
(406,-10,o),
(530,41,o),
(530,168,cs),
(530,231,o),
(495,274,o),
(439,284,c),
(439,288,l),
(517,304,o),
(562,351,o),
(562,418,cs),
(562,509,o),
(481,563,o),
(359,563,cs),
(137,563,o),
(41,380,o),
(41,215,cs),
(41,73,o),
(115,-10,o),
(272,-10,cs)
);
},
{
closed = 1;
nodes = (
(250,118,o),
(231,142,o),
(231,217,cs),
(231,331,o),
(266,435,o),
(334,435,cs),
(358,435,o),
(375,421,o),
(375,395,cs),
(375,361,o),
(348,344,o),
(307,344,cs),
(217,344,l),
(217,224,l),
(278,224,ls),
(321,224,o),
(340,206,o),
(340,175,cs),
(340,141,o),
(319,118,o),
(285,118,cs)
);
}
);
width = 599;
}
);
metricLeft = e;
metricRight = "ze-cy";
script = cyrillic;
subCategory = Lowercase;
unicode = 1074;
},
{
category = Letter;
glyphname = "ge-cy";
kernLeft = "ze-cy";
kernRight = "ie-cy";
layers = (
{
anchors = (
{
name = bottom;
pos = (178,0);
},
{
name = center;
pos = (236,276);
},
{
name = top;
pos = (294,553);
}
);
color = 1;
layerId = "84606D06-D269-45BD-896C-8402F9D7AD38";
shapes = (
{
closed = 1;
nodes = (
(285,-10,o),
(343,2,o),
(402,22,c),
(402,173,l),
(357,152,o),
(292,129,o),
(246,129,cs),
(222,129,o),
(200,134,o),
(200,156,cs),
(200,178,o),
(215,187,o),
(257,200,cs),
(383,240,o),
(466,276,o),
(466,405,cs),
(466,505,o),
(391,563,o),
(270,563,cs),
(200,563,o),
(127,540,o),
(75,507,c),
(119,388,l),
(157,413,o),
(201,434,o),
(241,434,cs),
(267,434,o),
(284,425,o),
(284,405,cs),
(284,384,o),
(273,373,o),
(206,351,cs),
(86,312,o),
(18,264,o),
(18,150,cs),
(18,53,o),
(94,-10,o),
(206,-10,cs)
);
}
);
width = 502;
}
);
script = cyrillic;
subCategory = Lowercase;
unicode = 1075;
},
{
category = Letter;
glyphname = "de-cy";
kernLeft = "o-cy";
kernRight = "de-cy";
layers = (
{
anchors = (
{
name = bottom;
pos = (237,0);
},
{
name = center;
pos = (318,380);
},
{
name = top;
pos = (401,770);
}
);
layerId = "84606D06-D269-45BD-896C-8402F9D7AD38";
shapes = (
{
closed = 1;
nodes = (
(442,-10,o),
(532,129,o),
(567,296,cs),
(607,483,o),
(596,770,o),
(304,770,cs),
(240,770,o),
(183,757,o),
(134,741,c),
(171,597,l),
(200,609,o),
(238,618,o),
(273,618,cs),
(358,618,o),
(391,573,o),
(391,456,cs),
(391,449,o),
(391,435,o),
(390,424,c),
(386,424,l),
(361,475,o),
(312,513,o),
(251,513,cs),
(145,513,o),
(63,433,o),
(36,303,cs),
(2,147,o),
(47,-10,o),
(256,-10,cs)
);
},
{
closed = 1;
nodes = (
(223,142,o),
(208,189,o),
(222,266,cs),
(234,332,o),
(264,371,o),
(305,371,cs),
(364,371,o),
(381,299,o),
(385,286,c),
(386,390,l),
(356,208,o),
(326,142,o),
(270,142,cs)
);
}
);
width = 598;
}
);
script = cyrillic;
subCategory = Lowercase;
unicode = 1076;
},
{
category = Letter;
glyphname = "zhe-cy";
kernLeft = "zhe-cy";
kernRight = "zhe-cy";
layers = (
{
anchors = (
{
name = bottom;
pos = (408,0);
},
{
name = bottomright;
pos = (14,0);
},
{
name = center;
pos = (467,276);
},
{
name = top;
pos = (526,553);
}
);
background = {
shapes = (
{
closed = 1;
nodes = (
(739,563,o),
(649,475,o),
(612,297,cs),
(573,108,o),
(620,-10,o),
(781,-10,cs),
(809,-10,o),
(840,-4,o),
(860,5,c),
(858,143,l),
(848,138,o),
(835,135,o),
(821,135,cs),
(766,135,o),
(749,176,o),
(772,282,cs),
(791,371,o),
(839,408,o),
(879,408,cs),
(889,408,o),
(897,406,o),
(903,403,c),
(952,554,l),
(932,560,o),
(908,563,o),
(882,563,cs)
);
},
{
closed = 1;
nodes = (
(123,563,o),
(92,557,o),
(72,548,c),
(74,410,l),
(84,415,o),
(97,418,o),
(111,418,cs),
(166,418,o),
(183,377,o),
(158,261,cs),
(141,182,o),
(93,145,o),
(53,145,cs),
(43,145,o),
(35,147,o),
(29,150,c),
(-20,-1,l),
(0,-7,o),
(24,-10,o),
(50,-10,cs),
(193,-10,o),
(281,68,o),
(326,286,cs),
(359,445,o),
(312,563,o),
(151,563,cs)
);
},
{
closed = 1;
nodes = (
(435,553,l),
(315,0,l),
(497,0,l),
(617,553,l)
);
},
{
closed = 1;
nodes = (
(288,341,l),
(272,206,l),
(641,206,l),
(657,341,l)
);
}
);
};
layerId = "84606D06-D269-45BD-896C-8402F9D7AD38";
shapes = (
{
closed = 1;
nodes = (
(193,-10,o),
(281,68,o),
(326,286,cs),
(359,445,o),
(312,563,o),
(151,563,cs),
(121,563,o),
(98,558,o),
(80,551,c),
(82,413,l),
(92,417,o),
(101,418,o),
(111,418,cs),
(166,418,o),
(183,377,o),
(158,261,cs),
(141,182,o),
(93,145,o),
(55,145,cs),
(46,145,o),
(41,147,o),
(37,150,c),
(-12,-1,l),
(4,-7,o),
(22,-10,o),
(50,-10,cs)
);
},
{
closed = 1;
nodes = (
(809,-10,o),
(840,-4,o),
(860,5,c),
(858,143,l),
(848,138,o),
(835,135,o),
(821,135,cs),
(766,135,o),
(749,176,o),
(774,292,cs),
(791,371,o),
(839,408,o),
(879,408,cs),
(889,408,o),
(897,406,o),
(903,403,c),
(952,554,l),
(932,560,o),
(908,563,o),
(882,563,cs),
(739,563,o),
(651,485,o),
(606,267,cs),
(573,108,o),
(620,-10,o),
(781,-10,cs)
);
},
{
closed = 1;
nodes = (
(497,0,l),
(617,553,l),
(435,553,l),
(315,0,l)
);
},
{
closed = 1;
nodes = (
(644,212,l),
(660,347,l),
(291,347,l),
(275,212,l)
);
}
);
width = 940;
}
);
metricLeft = "=|es-cy";
metricRight = "es-cy";
script = cyrillic;
subCategory = Lowercase;
unicode = 1078;
},
{
category = Letter;
glyphname = "ze-cy";
kernLeft = "ze-cy";
kernRight = "ve-cy";
layers = (
{
anchors = (
{
name = bottom;
pos = (183,0);
},
{
name = center;
pos = (242,276);
},
{
name = top;
pos = (301,553);
}
);
color = 1;
layerId = "84606D06-D269-45BD-896C-8402F9D7AD38";
shapes = (
{
closed = 1;
nodes = (
(332,-9,o),
(452,44,o),
(452,164,cs),
(452,231,o),
(417,274,o),
(361,284,c),
(361,288,l),
(440,306,o),
(484,355,o),
(484,427,cs),
(484,519,o),
(404,563,o),
(288,563,cs),
(215,563,o),
(147,547,o),
(80,514,c),
(106,391,l),
(158,415,o),
(197,425,o),
(235,425,cs),
(275,425,o),
(296,413,o),
(296,389,cs),
(296,360,o),
(268,344,o),
(214,344,cs),
(160,344,l),
(134,224,l),
(185,224,ls),
(239,224,o),
(261,209,o),
(261,181,cs),
(261,149,o),
(234,132,o),
(175,132,cs),
(119,132,o),
(70,146,o),
(20,170,c),
(20,21,l),
(63,2,o),
(121,-9,o),
(184,-9,cs)
);
}
);
width = 522;
}
);
script = cyrillic;
subCategory = Lowercase;
unicode = 1079;
},
{
category = Letter;
glyphname = "ka-cy";
kernLeft = "en-cy";
kernRight = "ha-cy";
layers = (
{
anchors = (
{
name = bottom;
pos = (271,0);
},
{
name = center;
pos = (348,276);
},
{
name = top;
pos = (381,553);
}
);
layerId = "84606D06-D269-45BD-896C-8402F9D7AD38";
shapes = (
{
closed = 1;
nodes = (
(538,0,l),
(440,315,l),
(444,280,l),
(650,553,l),
(445,553,l),
(271,298,l),
(262,280,l),
(339,0,l)
);
},
{
closed = 1;
nodes = (
(202,0,l),
(317,553,l),
(128,553,l),
(13,0,l)
);
},
{
closed = 1;
nodes = (
(322,213,l),
(351,355,l),
(258,355,l),
(228,213,l)
);
}
);
width = 595;
}
);
metricLeft = "en-cy";
script = cyrillic;
subCategory = Lowercase;
unicode = 1082;
},
{
category = Letter;
glyphname = "el-cy";
kernLeft = "el-cy";
kernRight = "en-cy";
layers = (
{
anchors = (
{
name = bottom;
pos = (283,0);
},
{
name = center;
pos = (342,276);
},
{
name = top;
pos = (401,553);
}
);
layerId = "84606D06-D269-45BD-896C-8402F9D7AD38";
shapes = (
{
closed = 1;
nodes = (
(171,-7,o),
(215,50,o),
(260,212,cs),
(278,278,o),
(297,345,o),
(315,411,c),
(407,411,l),
(321,0,l),
(510,0,l),
(624,553,l),
(177,553,l),
(148,448,o),
(120,343,o),
(91,238,cs),
(74,175,o),
(49,145,o),
(10,145,cs),
(-3,145,o),
(-14,147,o),
(-26,152,c),
(-26,10,l),
(-1,-1,o),
(27,-7,o),
(53,-7,cs)
);
}
);
width = 638;
}
);
metricRight = "en-cy";
script = cyrillic;
subCategory = Lowercase;
unicode = 1083;
},
{
category = Letter;
glyphname = "em-cy";
kernLeft = "en-cy";
kernRight = "en-cy";
layers = (
{
anchors = (
{
name = bottom;
pos = (351,0);
},
{
name = center;
pos = (410,276);
},
{
name = top;
pos = (469,553);
}
);
color = 1;
layerId = "84606D06-D269-45BD-896C-8402F9D7AD38";
shapes = (
{
closed = 1;
nodes = (
(175,0,l),
(229,256,ls),
(242,316,o),
(251,365,o),
(256,409,c),
(259,409,l),
(267,0,l),
(433,0,l),
(615,408,l),
(618,408,l),
(605,365,o),
(592,313,o),
(580,260,cs),
(525,0,l),
(692,0,l),
(810,553,l),
(540,553,l),
(356,138,l),
(395,138,l),
(387,553,l),
(128,553,l),
(10,0,l)
);
}
);
width = 820;
}
);
metricLeft = "en-cy";
metricRight = "en-cy";
script = cyrillic;
subCategory = Lowercase;
unicode = 1084;
},
{
category = Letter;
glyphname = "en-cy";
kernLeft = "en-cy";
kernRight = "en-cy";
layers = (
{
anchors = (
{
name = bottom;
pos = (250,0);
},
{
name = center;
pos = (309,276);
},
{
name = top;
pos = (368,553);
}
);
color = 1;
layerId = "84606D06-D269-45BD-896C-8402F9D7AD38";
shapes = (
{
closed = 1;
nodes = (
(199,0,l),
(245,213,l),
(346,213,l),
(301,0,l),
(490,0,l),
(607,553,l),
(418,553,l),
(375,355,l),
(275,355,l),
(317,553,l),
(128,553,l),
(10,0,l)
);
}
);
width = 618;
}
);
metricLeft = n;
metricRight = "=|n";
script = cyrillic;
subCategory = Lowercase;
unicode = 1085;
},
{
category = Letter;
glyphname = "ef-cy";
kernLeft = "o-cy";
kernRight = "o-cy";
layers = (
{
anchors = (
{
name = bottom;
pos = (314,-240);
},
{
name = center;
pos = (408,260);
},
{
name = top;
pos = (527,760);
}
);
layerId = "84606D06-D269-45BD-896C-8402F9D7AD38";
shapes = (
{
closed = 1;
nodes = (
(423,-10,ls),
(652,-10,o),
(801,115,o),
(801,325,cs),
(801,477,o),
(693,563,o),
(519,563,cs),
(420,563,ls),
(200,563,o),
(44,438,o),
(44,228,cs),
(44,76,o),
(156,-10,o),
(330,-10,cs)
);
},
{
closed = 1;
nodes = (
(408,-240,l),
(478,87,l),
(476,101,l),
(561,498,l),
(567,514,l),
(620,760,l),
(431,760,l),
(378,514,l),
(378,498,l),
(294,102,l),
(289,87,l),
(219,-240,l)
);
},
{
closed = 1;
nodes = (
(273,132,o),
(236,166,o),
(236,235,cs),
(236,309,o),
(270,421,o),
(386,421,cs),
(500,421,ls),
(568,421,o),
(609,387,o),
(609,318,cs),
(609,244,o),
(571,132,o),
(455,132,cs),
(343,132,ls)
);
}
);
width = 846;
}
);
metricLeft = o;
metricRight = o;
script = cyrillic;
subCategory = Lowercase;
unicode = 1092;
},
{
category = Letter;
glyphname = "tse-cy";
kernLeft = "ii-cy";
kernRight = "tse-cy";
layers = (
{
anchors = (
{
name = bottom;
pos = (216,-151);
},
{
name = center;
pos = (291,201);
},
{
name = top;
pos = (366,553);
}
);
color = 1;
layerId = "84606D06-D269-45BD-896C-8402F9D7AD38";
shapes = (
{
closed = 1;
nodes = (
(541,-132,l),
(599,146,l),
(592,144,o),
(581,141,o),
(570,141,cs),
(536,141,o),
(527,158,o),
(539,215,cs),
(611,553,l),
(422,553,l),
(365,284,ls),
(344,185,o),
(312,141,o),
(275,141,cs),
(237,141,o),
(231,177,o),
(247,252,cs),
(310,553,l),
(121,553,l),
(59,259,ls),
(31,126,o),
(40,-10,o),
(193,-10,cs),
(261,-10,o),
(311,19,o),
(350,85,c),
(354,85,l),
(367,29,o),
(403,5,o),
(478,1,c),
(397,61,l),
(356,-132,l)
);
}
);
width = 642;
}
);
metricLeft = u;
script = cyrillic;
subCategory = Lowercase;
unicode = 1094;
},
{
category = Letter;
glyphname = "che-cy";
kernLeft = "che-cy";
kernRight = "en-cy";
layers = (
{
anchors = (
{
name = bottom;
pos = (218,0);
},
{
name = center;
pos = (277,276);
},
{
name = top;
pos = (336,553);
}
);
color = 1;
layerId = "84606D06-D269-45BD-896C-8402F9D7AD38";
shapes = (
{
closed = 1;
nodes = (
(457,0,l),
(575,553,l),
(386,553,l),
(319,239,l),
(370,338,l),
(333,320,o),
(311,313,o),
(288,313,cs),
(250,313,o),
(239,335,o),
(250,385,cs),
(286,553,l),
(97,553,l),
(54,352,ls),
(28,231,o),
(79,167,o),
(194,167,cs),
(242,167,o),
(289,177,o),
(349,198,c),
(326,273,l),
(268,0,l)
);
}
);
width = 585;
}
);
metricRight = "en-cy";
script = cyrillic;
subCategory = Lowercase;
unicode = 1095;
},
{
category = Letter;
glyphname = "sha-cy";
kernLeft = "ii-cy";
kernRight = "en-cy";
layers = (
{
anchors = (
{
name = bottom;
pos = (400,0);
},
{
name = center;
pos = (458,271);
},
{
name = top;
pos = (518,553);
}
);
color = 1;
layerId = "84606D06-D269-45BD-896C-8402F9D7AD38";
shapes = (
{
closed = 1;
nodes = (
(260,-10,o),
(313,22,o),
(355,91,c),
(359,91,l),
(376,26,o),
(417,-10,o),
(487,-10,cs),
(557,-10,o),
(612,18,o),
(651,91,c),
(655,91,l),
(647,0,l),
(798,0,l),
(915,553,l),
(726,553,l),
(668,284,ls),
(643,170,o),
(610,140,o),
(577,140,cs),
(543,140,o),
(533,171,o),
(548,245,cs),
(612,553,l),
(423,553,l),
(369,288,ls),
(349,190,o),
(317,140,o),
(274,140,cs),
(240,140,o),
(232,173,o),
(247,245,cs),
(310,553,l),
(121,553,l),
(60,253,ls),
(35,128,o),
(44,-10,o),
(188,-10,cs)
);
}
);
width = 926;
}
);
metricLeft = u;
metricRight = u;
script = cyrillic;
subCategory = Lowercase;
unicode = 1096;
},
{
category = Letter;
glyphname = "shcha-cy";
kernLeft = "ii-cy";
kernRight = "tse-cy";
layers = (
{
anchors = (
{
name = bottom;
pos = (368,-151);
},
{
name = center;
pos = (458,271);
},
{
name = top;
pos = (518,553);
}
);
color = 1;
layerId = "84606D06-D269-45BD-896C-8402F9D7AD38";
shapes = (
{
closed = 1;
nodes = (
(845,-132,l),
(903,146,l),
(896,144,o),
(885,141,o),
(874,141,cs),
(840,141,o),
(831,158,o),
(843,215,cs),
(915,553,l),
(726,553,l),
(668,284,ls),
(643,170,o),
(610,140,o),
(577,140,cs),
(543,140,o),
(533,171,o),
(548,245,cs),
(612,553,l),
(423,553,l),
(369,288,ls),
(349,190,o),
(317,140,o),
(274,140,cs),
(240,140,o),
(232,173,o),
(247,245,cs),
(310,553,l),
(121,553,l),
(60,253,ls),
(35,128,o),
(44,-10,o),
(188,-10,cs),
(260,-10,o),
(314,22,o),
(356,91,c),
(360,91,l),
(377,24,o),
(424,-10,o),
(498,-10,cs),
(569,-10,o),
(615,20,o),
(654,91,c),
(658,91,l),
(668,31,o),
(707,5,o),
(782,1,c),
(701,61,l),
(660,-132,l)
);
}
);
width = 946;
}
);
metricLeft = u;
metricRight = "tse-cy";
script = cyrillic;
subCategory = Lowercase;
unicode = 1097;
},
{
category = Letter;
glyphname = "hardsign-cy";
kernLeft = "te-cy";
kernRight = "hardsign-cy";
layers = (
{
anchors = (
{
name = bottom;
pos = (329,0);
},
{
name = center;
pos = (387,271);
},
{
name = top;
pos = (447,553);
}
);
color = 1;
layerId = "84606D06-D269-45BD-896C-8402F9D7AD38";
shapes = (
{
closed = 1;
nodes = (
(533,-10,o),
(632,91,o),
(632,225,cs),
(632,332,o),
(562,394,o),
(450,394,cs),
(421,394,o),
(392,391,o),
(365,386,c),
(401,553,l),
(73,553,l),
(42,411,l),
(182,411,l),
(147,250,ls),
(110,80,o),
(184,-10,o),
(357,-10,cs)
);
},
{
closed = 1;
nodes = (
(332,128,o),
(316,152,o),
(328,211,cs),
(336,250,l),
(352,254,o),
(366,256,o),
(384,256,cs),
(419,256,o),
(441,239,o),
(441,204,cs),
(441,165,o),
(421,128,o),
(373,128,cs)
);
}
);
width = 682;
}
);
metricRight = "softsign-cy";
script = cyrillic;
subCategory = Lowercase;
unicode = 1098;
},
{
category = Letter;
glyphname = "softsign-cy";
kernLeft = "ii-cy";
kernRight = "hardsign-cy";
layers = (
{
anchors = (
{
name = bottom;
pos = (252,0);
},
{
name = center;
pos = (310,271);
},
{
name = top;
pos = (370,553);
}
);
color = 1;
layerId = "84606D06-D269-45BD-896C-8402F9D7AD38";
shapes = (
{
closed = 1;
nodes = (
(442,-10,o),
(541,91,o),
(541,225,cs),
(541,332,o),
(471,394,o),
(359,394,cs),
(330,394,o),
(301,391,o),
(274,386,c),
(310,553,l),
(121,553,l),
(56,250,ls),
(19,80,o),
(93,-10,o),
(266,-10,cs)
);
},
{
closed = 1;
nodes = (
(241,128,o),
(225,152,o),
(237,211,cs),
(245,250,l),
(261,254,o),
(275,256,o),
(293,256,cs),
(328,256,o),
(350,239,o),
(350,204,cs),
(350,165,o),
(330,128,o),
(282,128,cs)
);
}
);
width = 591;
}
);
metricLeft = u;
script = cyrillic;
subCategory = Lowercase;
unicode = 1100;
},
{
category = Letter;
glyphname = "ereversed-cy";
kernLeft = "zhe-cy";
kernRight = "o-cy";
layers = (
{
anchors = (
{
name = bottom;
pos = (166,0);
},
{
name = center;
pos = (225,276);
},
{
name = top;
pos = (284,553);
}
);
layerId = "84606D06-D269-45BD-896C-8402F9D7AD38";
shapes = (
{
closed = 1;
nodes = (
(313,-10,o),
(403,75,o),
(438,239,cs),
(479,434,o),
(399,563,o),
(236,563,cs),
(183,563,o),
(118,548,o),
(67,523,c),
(113,404,l),
(147,420,o),
(172,425,o),
(188,425,cs),
(255,425,o),
(278,365,o),
(256,260,cs),
(237,171,o),
(197,133,o),
(121,133,cs),
(87,133,o),
(47,144,o),
(18,163,c),
(18,18,l),
(50,1,o),
(104,-10,o),
(154,-10,cs)
);
},
{
closed = 1;
nodes = (
(262,215,l),
(284,337,l),
(130,337,l),
(104,215,l)
);
}
);
width = 476;
}
);
script = cyrillic;
subCategory = Lowercase;
unicode = 1101;
},
{
category = Letter;
glyphname = "iu-cy";
kernLeft = "en-cy";
kernRight = "o-cy";
layers = (
{
anchors = (
{
name = bottom;
pos = (389,0);
},
{
name = center;
pos = (448,276);
},
{
name = top;
pos = (507,553);
}
);
color = 1;
layerId = "84606D06-D269-45BD-896C-8402F9D7AD38";
shapes = (
{
closed = 1;
nodes = (
(727,-10,o),
(832,161,o),
(832,350,cs),
(832,486,o),
(757,563,o),
(624,563,cs),
(422,563,o),
(317,392,o),
(317,203,cs),
(317,67,o),
(392,-10,o),
(525,-10,cs)
);
},
{
closed = 1;
nodes = (
(199,0,l),
(244,213,l),
(331,213,l),
(364,355,l),
(275,355,l),
(317,553,l),
(128,553,l),
(10,0,l)
);
},
{
closed = 1;
nodes = (
(523,132,o),
(510,149,o),
(510,197,cs),
(510,308,o),
(548,421,o),
(602,421,cs),
(625,421,o),
(639,404,o),
(639,356,cs),
(639,245,o),
(600,132,o),
(546,132,cs)
);
}
);
width = 873;
}
);
metricLeft = "en-cy";
metricRight = "o-cy";
script = cyrillic;
subCategory = Lowercase;
unicode = 1102;
},
{
category = Letter;
glyphname = "ia-cy";
kernLeft = "ia-cy";
kernRight = "en-cy";
layers = (
{
anchors = (
{
name = bottom;
pos = (225,0);
},
{
name = center;
pos = (244,276);
},
{
name = top;
pos = (343,553);
}
);
color = 1;
layerId = "84606D06-D269-45BD-896C-8402F9D7AD38";
shapes = (
{
closed = 1;
nodes = (
(169,0,l),
(302,194,l),
(324,194,l),
(283,0,l),
(472,0,l),
(590,553,l),
(345,553,ls),
(165,553,o),
(67,480,o),
(67,356,cs),
(67,283,o),
(104,242,o),
(198,212,c),
(161,269,l),
(-47,0,l)
);
},
{
closed = 1;
nodes = (
(278,318,o),
(258,335,o),
(258,366,cs),
(258,405,o),
(282,428,o),
(333,428,cs),
(374,428,l),
(351,318,l),
(321,318,ls)
);
}
);
width = 600;
}
);
metricRight = "en-cy";
script = cyrillic;
subCategory = Lowercase;
unicode = 1103;
},
{
category = Letter;
glyphname = "dje-cy";
kernLeft = "dje-cy";
kernRight = "dje-cy";
layers = (
{
anchors = (
{
name = bottom;
pos = (252,0);
},
{
name = center;
pos = (288,380);
},
{
name = top;
pos = (414,760);
}
);
layerId = "84606D06-D269-45BD-896C-8402F9D7AD38";
shapes = (
{
closed = 1;
nodes = (
(409,-240,o),
(469,-146,o),
(491,-46,cs),
(553,244,ls),
(560,279,o),
(565,319,o),
(565,356,cs),
(565,441,o),
(522,513,o),
(419,513,cs),
(364,513,o),
(320,494,o),
(286,450,c),
(282,450,l),
(294,479,o),
(310,527,o),
(321,570,c),
(452,570,l),
(477,688,l),
(346,688,l),
(361,760,l),
(172,760,l),
(156,688,l),
(74,688,l),
(49,570,l),
(131,570,l),
(11,0,l),
(200,0,l),
(247,220,ls),
(266,312,o),
(293,363,o),
(337,363,cs),
(357,363,o),
(374,349,o),
(374,321,cs),
(374,298,o),
(369,269,o),
(365,252,cs),
(309,-14,ls),
(298,-68,o),
(263,-88,o),
(223,-88,cs),
(206,-88,o),
(192,-87,o),
(168,-79,c),
(168,-227,l),
(191,-234,o),
(234,-240,o),
(269,-240,cs)
);
}
);
width = 622;
}
);
metricLeft = hbar;
metricRight = h;
script = cyrillic;
subCategory = Lowercase;
unicode = 1106;
},
{
category = Letter;
glyphname = "e-cy";
kernLeft = "o-cy";
kernRight = "zhe-cy";
layers = (
{
anchors = (
{
name = bottom;
pos = (196,0);
},
{
name = center;
pos = (255,276);
},
{
name = top;
pos = (314,553);
}
);
layerId = "84606D06-D269-45BD-896C-8402F9D7AD38";
shapes = (
{
closed = 1;
nodes = (
(303,-10,o),
(354,3,o),
(404,28,c),
(404,162,l),
(358,140,o),
(316,129,o),
(287,129,cs),
(220,129,o),
(198,187,o),
(217,283,cs),
(235,377,o),
(284,425,o),
(347,425,cs),
(373,425,o),
(406,417,o),
(439,402,c),
(493,529,l),
(441,551,o),
(385,563,o),
(333,563,cs),
(164,563,o),
(67,454,o),
(36,307,cs),
(5,162,o),
(36,-10,o),
(245,-10,cs)
);
},
{
closed = 1;
nodes = (
(350,215,l),
(376,337,l),
(217,337,l),
(194,215,l)
);
}
);
width = 472;
}
);
script = cyrillic;
subCategory = Lowercase;
unicode = 1108;
},
{
category = Letter;
glyphname = "lje-cy";
kernLeft = "el-cy";
kernRight = "hardsign-cy";
layers = (
{
anchors = (
{
name = bottom;
pos = (406,0);
},
{
name = center;
pos = (465,276);
},
{
name = top;
pos = (524,553);
}
);
layerId = "84606D06-D269-45BD-896C-8402F9D7AD38";
shapes = (
{
closed = 1;
nodes = (
(746,-10,o),
(845,91,o),
(845,225,cs),
(845,332,o),
(775,394,o),
(663,394,cs),
(634,394,o),
(605,391,o),
(578,386,c),
(614,553,l),
(177,553,l),
(148,448,o),
(120,343,o),
(91,238,cs),
(74,175,o),
(49,145,o),
(10,145,cs),
(-3,145,o),
(-14,147,o),
(-26,152,c),
(-26,10,l),
(-1,-1,o),
(27,-7,o),
(53,-7,cs),
(171,-7,o),
(215,50,o),
(260,212,cs),
(278,278,o),
(297,345,o),
(315,411,c),
(397,411,l),
(360,250,ls),
(321,80,o),
(397,-10,o),
(570,-10,cs)
);
},
{
closed = 1;
nodes = (
(545,128,o),
(529,152,o),
(541,211,cs),
(549,250,l),
(565,254,o),
(579,256,o),
(597,256,cs),
(632,256,o),
(654,239,o),
(654,204,cs),
(654,165,o),
(634,128,o),
(586,128,cs)
);
}
);
width = 895;
}
);
metricLeft = "el-cy";
metricRight = "softsign-cy";
script = cyrillic;
subCategory = Lowercase;
unicode = 1113;
},
{
category = Letter;
glyphname = "nje-cy";
kernLeft = "en-cy";
kernRight = "hardsign-cy";
layers = (
{
anchors = (
{
name = bottom;
pos = (381,0);
},
{
name = center;
pos = (439,271);
},
{
name = top;
pos = (499,553);
}
);
layerId = "84606D06-D269-45BD-896C-8402F9D7AD38";
shapes = (
{
closed = 1;
nodes = (
(705,-10,o),
(794,50,o),
(818,159,cs),
(847,294,o),
(761,366,o),
(627,366,cs),
(474,366,l),
(423,370,l),
(270,370,l),
(308,553,l),
(119,553,l),
(1,0,l),
(190,0,l),
(241,235,l),
(390,235,l),
(451,239,l),
(574,239,ls),
(620,239,o),
(640,217,o),
(631,173,cs),
(623,133,o),
(598,118,o),
(566,118,cs),
(524,118,o),
(504,143,o),
(516,198,cs),
(593,553,l),
(405,553,l),
(340,255,ls),
(301,74,o),
(372,-10,o),
(548,-10,cs)
);
}
);
width = 856;
}
);
metricLeft = "en-cy";
metricRight = "softsign-cy";
script = cyrillic;
subCategory = Lowercase;
unicode = 1114;
},
{
category = Letter;
glyphname = "dzhe-cy";
kernLeft = "ii-cy";
kernRight = "en-cy";
layers = (
{
anchors = (
{
name = bottom;
pos = (203,-240);
},
{
name = top;
pos = (359,553);
}
);
layerId = "84606D06-D269-45BD-896C-8402F9D7AD38";
shapes = (
{
closed = 1;
nodes = (
(289,-240,l),
(322,-28,l),
(295,-28,l),
(166,-69,l),
(117,-240,l)
);
},
{
ref = u;
}
);
width = 622;
}
);
metricLeft = u;
metricRight = u;
script = cyrillic;
subCategory = Lowercase;
unicode = 1119;
},
{
category = Letter;
glyphname = "Gheupturn-cy";
kernLeft = "Nje-cy";
kernRight = "Ge-cy";
layers = (
{
anchors = (
{
name = bottom;
pos = (206,0);
},
{
name = center;
pos = (317,434);
},
{
name = top;
pos = (391,868);
}
);
layerId = "84606D06-D269-45BD-896C-8402F9D7AD38";
shapes = (
{
closed = 1;
nodes = (
(207,0,l),
(325,558,l),
(555,558,l),
(618,868,l),
(448,868,l),
(415,714,l),
(167,714,l),
(16,0,l)
);
}
);
width = 529;
}
);
script = cyrillic;
subCategory = Uppercase;
unicode = 1168;
},
{
category = Letter;
glyphname = "gheupturn-cy";
kernLeft = "ve-cy";
kernRight = "ge-cy";
layers = (
{
anchors = (
{
name = bottom;
pos = (194,0);
},
{
name = center;
pos = (287,347);
},
{
name = top;
pos = (342,695);
}
);
layerId = "84606D06-D269-45BD-896C-8402F9D7AD38";
shapes = (
{
closed = 1;
nodes = (
(200,0,l),
(285,401,l),
(500,401,l),
(563,695,l),
(391,695,l),
(362,553,l),
(128,553,l),
(11,0,l)
);
}
);
width = 505;
}
);
script = cyrillic;
subCategory = Lowercase;
unicode = 1169;
},
{
category = Punctuation;
glyphname = endash;
kernLeft = hyphen.right;
kernRight = hyphen.left;
layers = (
{
layerId = "84606D06-D269-45BD-896C-8402F9D7AD38";
shapes = (
{
closed = 1;
nodes = (
(440,203,l),
(469,337,l),
(44,337,l),
(16,203,l)
);
}
);
width = 480;
}
);
script = "";
subCategory = Dash;
unicode = 8211;
},
{
category = Punctuation;
glyphname = emdash;
kernLeft = hyphen.right;
kernRight = hyphen.left;
layers = (
{
layerId = "84606D06-D269-45BD-896C-8402F9D7AD38";
shapes = (
{
closed = 1;
nodes = (
(920,203,l),
(949,337,l),
(44,337,l),
(16,203,l)
);
}
);
width = 960;
}
);
script = "";
subCategory = Dash;
unicode = 8212;
},
{
category = Punctuation;
glyphname = underscoredbl;
layers = (
{
layerId = "84606D06-D269-45BD-896C-8402F9D7AD38";
shapes = (
{
closed = 1;
nodes = (
(381,-102,l),
(400,-22,l),
(-54,-22,l),
(-73,-102,l)
);
},
{
closed = 1;
nodes = (
(354,-226,l),
(373,-146,l),
(-81,-146,l),
(-100,-226,l)
);
}
);
width = 450;
}
);
script = "";
subCategory = Other;
unicode = 8215;
},
{
category = Punctuation;
glyphname = quoteleft;
kernLeft = quoteleft;
kernRight = quote.left;
layers = (
{
layerId = "84606D06-D269-45BD-896C-8402F9D7AD38";
shapes = (
{
closed = 1;
nodes = (
(58,469,l),
(228,469,l),
(253,538,o),
(286,635,o),
(320,714,c),
(179,714,l),
(132,639,o),
(83,548,o),
(53,480,c)
);
}
);
width = 244;
}
);
script = "";
subCategory = Quote;
unicode = 8216;
},
{
category = Punctuation;
glyphname = quoteright;
kernLeft = quote.right;
kernRight = quote.left;
layers = (
{
layerId = "84606D06-D269-45BD-896C-8402F9D7AD38";
shapes = (
{
closed = 1;
nodes = (
(187,469,l),
(233,544,o),
(282,635,o),
(312,703,c),
(308,714,l),
(138,714,l),
(114,645,o),
(79,548,o),
(46,469,c)
);
}
);
width = 244;
}
);
script = "";
subCategory = Quote;
unicode = 8217;
},
{
category = Punctuation;
glyphname = quotesinglbase;
kernLeft = period.right;
kernRight = period.left;
layers = (
{
layerId = "84606D06-D269-45BD-896C-8402F9D7AD38";
shapes = (
{
closed = 1;
nodes = (
(90,-129,l),
(137,-54,o),
(186,37,o),
(215,105,c),
(211,116,l),
(41,116,l),
(16,47,o),
(-17,-50,o),
(-51,-129,c)
);
}
);
width = 303;
}
);
script = "";
subCategory = Quote;
unicode = 8218;
},
{
category = Punctuation;
glyphname = quotereversed;
layers = (
{
layerId = "84606D06-D269-45BD-896C-8402F9D7AD38";
shapes = (
{
closed = 1;
nodes = (
(279,469,l),
(271,548,o),
(267,645,o),
(267,714,c),
(100,714,l),
(93,703,l),
(99,635,o),
(119,544,o),
(141,469,c)
);
}
);
width = 244;
}
);
script = "";
subCategory = Quote;
unicode = 8219;
},
{
category = Punctuation;
glyphname = quotedblleft;
kernLeft = quoteleft;
kernRight = quote.left;
layers = (
{
layerId = "84606D06-D269-45BD-896C-8402F9D7AD38";
shapes = (
{
closed = 1;
nodes = (
(300,469,l),
(470,469,l),
(496,538,o),
(528,635,o),
(562,714,c),
(421,714,l),
(374,639,o),
(326,548,o),
(296,480,c)
);
},
{
closed = 1;
nodes = (
(58,469,l),
(228,469,l),
(253,538,o),
(286,635,o),
(320,714,c),
(179,714,l),
(132,639,o),
(83,548,o),
(53,480,c)
);
}
);
width = 487;
}
);
script = "";
subCategory = Quote;
unicode = 8220;
},
{
category = Punctuation;
glyphname = quotedblright;
kernLeft = quote.right;
kernRight = quote.left;
layers = (
{
layerId = "84606D06-D269-45BD-896C-8402F9D7AD38";
shapes = (
{
closed = 1;
nodes = (
(430,469,l),
(476,544,o),
(524,635,o),
(554,703,c),
(551,714,l),
(381,714,l),
(355,645,o),
(322,548,o),
(289,469,c)
);
},
{
closed = 1;
nodes = (
(187,469,l),
(233,544,o),
(282,635,o),
(312,703,c),
(308,714,l),
(138,714,l),
(112,645,o),
(79,548,o),
(46,469,c)
);
}
);
width = 487;
}
);
script = "";
subCategory = Quote;
unicode = 8221;
},
{
category = Punctuation;
glyphname = quotedblbase;
kernLeft = period.right;
kernRight = period.left;
layers = (
{
layerId = "84606D06-D269-45BD-896C-8402F9D7AD38";
shapes = (
{
closed = 1;
nodes = (
(334,-129,l),
(382,-54,o),
(430,37,o),
(460,105,c),
(456,116,l),
(286,116,l),
(260,47,o),
(227,-50,o),
(194,-129,c)
);
},
{
closed = 1;
nodes = (
(90,-129,l),
(137,-54,o),
(186,37,o),
(215,105,c),
(211,116,l),
(41,116,l),
(16,47,o),
(-17,-50,o),
(-51,-129,c)
);
}
);
width = 548;
}
);
script = "";
subCategory = Quote;
unicode = 8222;
},
{
category = Symbol;
glyphname = dagger;
layers = (
{
layerId = "84606D06-D269-45BD-896C-8402F9D7AD38";
shapes = (
{
closed = 1;
nodes = (
(281,0,l),
(350,446,l),
(501,431,l),
(532,571,l),
(374,558,l),
(443,760,l),
(280,760,l),
(264,558,l),
(119,571,l),
(89,431,l),
(238,444,l),
(118,0,l)
);
}
);
width = 542;
}
);
script = "";
subCategory = Other;
unicode = 8224;
},
{
category = Symbol;
glyphname = daggerdbl;
layers = (
{
layerId = "84606D06-D269-45BD-896C-8402F9D7AD38";
shapes = (
{
closed = 1;
nodes = (
(291,0,l),
(304,182,l),
(456,169,l),
(485,309,l),
(328,296,l),
(369,384,l),
(365,464,l),
(516,451,l),
(546,591,l),
(388,578,l),
(453,760,l),
(290,760,l),
(277,578,l),
(125,591,l),
(96,451,l),
(254,464,l),
(214,384,l),
(217,296,l),
(65,309,l),
(35,169,l),
(193,182,l),
(128,0,l)
);
}
);
width = 542;
}
);
script = "";
subCategory = Other;
unicode = 8225;
},
{
category = Punctuation;
glyphname = bullet;
layers = (
{
layerId = "84606D06-D269-45BD-896C-8402F9D7AD38";
shapes = (
{
closed = 1;
nodes = (
(316,190,o),
(372,282,o),
(372,393,cs),
(372,481,o),
(331,540,o),
(228,540,cs),
(106,540,o),
(42,443,o),
(42,336,cs),
(42,249,o),
(93,190,o),
(185,190,cs)
);
}
);
width = 392;
}
);
script = "";
subCategory = Other;
unicode = 8226;
},
{
category = Symbol;
glyphname = perthousand;
layers = (
{
layerId = "84606D06-D269-45BD-896C-8402F9D7AD38";
shapes = (
{
closed = 1;
nodes = (
(268,0,l),
(796,714,l),
(655,714,l),
(123,0,l)
);
},
{
closed = 1;
nodes = (
(330,276,o),
(411,412,o),
(411,567,cs),
(411,664,o),
(354,724,o),
(257,724,cs),
(105,724,o),
(39,581,o),
(39,433,cs),
(39,333,o),
(91,276,o),
(194,276,cs)
);
},
{
closed = 1;
nodes = (
(189,394,o),
(181,408,o),
(181,435,cs),
(181,511,o),
(207,606,o),
(243,606,cs),
(262,606,o),
(269,593,o),
(269,565,cs),
(269,496,o),
(246,394,o),
(207,394,cs)
);
},
{
closed = 1;
nodes = (
(807,-10,o),
(888,126,o),
(888,281,cs),
(888,378,o),
(831,438,o),
(734,438,cs),
(582,438,o),
(516,295,o),
(516,147,cs),
(516,47,o),
(568,-10,o),
(671,-10,cs)
);
},
{
closed = 1;
nodes = (
(666,108,o),
(658,122,o),
(658,149,cs),
(658,225,o),
(684,320,o),
(720,320,cs),
(739,320,o),
(746,307,o),
(746,279,cs),
(746,210,o),
(723,108,o),
(684,108,cs)
);
},
{
closed = 1;
nodes = (
(1207,-10,o),
(1288,126,o),
(1288,281,cs),
(1288,378,o),
(1231,438,o),
(1134,438,cs),
(982,438,o),
(916,295,o),
(916,147,cs),
(916,47,o),
(968,-10,o),
(1071,-10,cs)
);
},
{
closed = 1;
nodes = (
(1066,108,o),
(1058,122,o),
(1058,149,cs),
(1058,225,o),
(1084,320,o),
(1120,320,cs),
(1139,320,o),
(1146,307,o),
(1146,279,cs),
(1146,210,o),
(1123,108,o),
(1084,108,cs)
);
}
);
width = 1317;
}
);
script = "";
subCategory = Math;
unicode = 8240;
},
{
category = Symbol;
glyphname = minute;
layers = (
{
layerId = "84606D06-D269-45BD-896C-8402F9D7AD38";
shapes = (
{
closed = 1;
nodes = (
(178,456,l),
(365,714,l),
(184,714,l),
(39,456,l)
);
}
);
width = 267;
}
);
script = "";
subCategory = Other;
unicode = 8242;
},
{
category = Punctuation;
glyphname = guilsinglleft;
kernLeft = guillemetleft;
kernRight = guillemetleft;
layers = (
{
layerId = "84606D06-D269-45BD-896C-8402F9D7AD38";
shapes = (
{
closed = 1;
nodes = (
(282,104,l),
(228,265,l),
(358,428,l),
(229,528,l),
(30,275,l),
(30,270,l),
(119,37,l)
);
}
);
width = 351;
}
);
script = "";
subCategory = Quote;
unicode = 8249;
},
{
category = Punctuation;
glyphname = guilsinglright;
kernLeft = guillemetright;
kernRight = guillemetright;
layers = (
{
layerId = "84606D06-D269-45BD-896C-8402F9D7AD38";
shapes = (
{
closed = 1;
nodes = (
(321,274,l),
(321,279,l),
(231,512,l),
(69,445,l),
(123,284,l),
(-7,121,l),
(122,21,l)
);
}
);
width = 351;
}
);
script = "";
subCategory = Quote;
unicode = 8250;
},
{
category = Number;
glyphname = fraction;
layers = (
{
layerId = "84606D06-D269-45BD-896C-8402F9D7AD38";
shapes = (
{
closed = 1;
nodes = (
(-130,0,l),
(399,714,l),
(257,714,l),
(-275,0,l)
);
}
);
width = 121;
}
);
script = "";
subCategory = Fraction;
unicode = 8260;
},
{
category = Symbol;
glyphname = franc;
layers = (
{
layerId = "84606D06-D269-45BD-896C-8402F9D7AD38";
shapes = (
{
closed = 1;
nodes = (
(225,0,l),
(250,128,l),
(373,128,l),
(394,228,l),
(271,228,l),
(287,302,l),
(507,302,l),
(541,458,l),
(322,458,l),
(343,558,l),
(579,558,l),
(612,714,l),
(185,714,l),
(82,228,l),
(21,228,l),
(0,128,l),
(61,128,l),
(34,0,l)
);
}
);
width = 580;
}
);
script = "";
subCategory = Currency;
unicode = 8355;
},
{
category = Symbol;
glyphname = lira;
layers = (
{
layerId = "84606D06-D269-45BD-896C-8402F9D7AD38";
shapes = (
{
closed = 1;
nodes = (
(-9,0,l),
(489,0,l),
(524,161,l),
(229,161,l),
(278,184,o),
(314,212,o),
(319,240,c),
(442,240,l),
(463,340,l),
(342,340,l),
(354,400,l),
(476,400,l),
(498,500,l),
(375,500,l),
(378,512,ls),
(387,556,o),
(400,567,o),
(423,567,cs),
(456,567,o),
(495,553,o),
(527,536,c),
(597,682,l),
(544,705,o),
(490,724,o),
(415,724,cs),
(301,724,o),
(216,683,o),
(185,517,cs),
(182,500,l),
(91,500,l),
(69,400,l),
(161,400,l),
(148,340,l),
(54,340,l),
(33,240,l),
(127,240,l),
(114,194,o),
(86,172,o),
(22,153,c)
);
}
);
width = 580;
}
);
script = "";
subCategory = Currency;
unicode = 8356;
},
{
category = Symbol;
glyphname = peseta;
layers = (
{
layerId = "84606D06-D269-45BD-896C-8402F9D7AD38";
shapes = (
{
closed = 1;
nodes = (
(191,0,l),
(240,237,l),
(271,237,ls),
(456,237,o),
(584,329,o),
(584,500,cs),
(584,620,o),
(511,714,o),
(322,714,cs),
(162,714,l),
(11,0,l)
);
},
{
closed = 1;
nodes = (
(273,389,l),
(310,562,l),
(339,562,ls),
(379,562,o),
(404,529,o),
(404,494,cs),
(404,428,o),
(356,389,o),
(304,389,cs)
);
},
{
closed = 1;
nodes = (
(815,-10,o),
(865,2,o),
(906,22,c),
(906,152,l),
(874,139,o),
(837,132,o),
(817,132,cs),
(799,132,o),
(786,138,o),
(786,160,cs),
(786,171,o),
(789,191,o),
(793,210,cs),
(808,275,l),
(939,275,l),
(971,413,l),
(838,413,l),
(865,539,l),
(748,539,l),
(678,407,l),
(572,364,l),
(553,275,l),
(628,275,l),
(608,180,ls),
(604,159,o),
(600,135,o),
(600,116,cs),
(600,22,o),
(653,-10,o),
(749,-10,cs)
);
}
);
width = 998;
}
);
script = "";
subCategory = Currency;
unicode = 8359;
},
{
category = Symbol;
glyphname = euro;
layers = (
{
layerId = "84606D06-D269-45BD-896C-8402F9D7AD38";
shapes = (
{
closed = 1;
nodes = (
(389,-10,o),
(451,1,o),
(491,22,c),
(491,183,l),
(441,163,o),
(397,150,o),
(348,150,cs),
(300,150,o),
(283,164,o),
(283,220,c),
(394,220,l),
(415,320,l),
(295,320,l),
(297,338,o),
(302,363,o),
(307,380,c),
(458,380,l),
(480,480,l),
(335,480,l),
(362,548,o),
(398,575,o),
(442,575,cs),
(477,575,o),
(515,560,o),
(550,537,c),
(625,675,l),
(568,711,o),
(516,726,o),
(442,726,cs),
(315,726,o),
(199,654,o),
(139,480,c),
(82,480,l),
(59,380,l),
(111,380,l),
(107,362,o),
(101,328,o),
(100,320,c),
(47,320,l),
(26,220,l),
(94,220,l),
(98,68,o),
(162,-10,o),
(318,-10,cs)
);
}
);
width = 580;
}
);
script = "";
subCategory = Currency;
unicode = 8364;
},
{
category = Symbol;
glyphname = careof;
layers = (
{
layerId = "84606D06-D269-45BD-896C-8402F9D7AD38";
shapes = (
{
closed = 1;
nodes = (
(181,0,l),
(708,714,l),
(566,714,l),
(37,0,l)
);
},
{
closed = 1;
nodes = (
(668,-10,o),
(733,95,o),
(733,216,cs),
(733,303,o),
(684,360,o),
(595,360,cs),
(470,360,o),
(400,265,o),
(400,131,cs),
(400,41,o),
(458,-10,o),
(538,-10,cs)
);
},
{
closed = 1;
nodes = (
(536,89,o),
(526,102,o),
(526,129,cs),
(526,181,o),
(552,261,o),
(581,261,cs),
(597,261,o),
(607,253,o),
(607,220,cs),
(607,162,o),
(583,89,o),
(549,89,cs)
);
},
{
closed = 1;
nodes = (
(224,354,o),
(257,365,o),
(289,381,c),
(289,479,l),
(259,462,o),
(240,453,o),
(209,453,cs),
(184,453,o),
(169,470,o),
(169,504,cs),
(169,534,o),
(182,625,o),
(229,625,cs),
(257,625,o),
(278,616,o),
(299,607,c),
(332,703,l),
(294,719,o),
(268,724,o),
(221,724,cs),
(113,724,o),
(43,626,o),
(43,493,cs),
(43,402,o),
(103,354,o),
(182,354,cs)
);
}
);
width = 766;
}
);
script = "";
subCategory = Other;
unicode = 8453;
},
{
category = Symbol;
glyphname = literSign;
layers = (
{
layerId = "84606D06-D269-45BD-896C-8402F9D7AD38";
shapes = (
{
closed = 1;
nodes = (
(486,-8,o),
(536,74,o),
(536,212,c),
(390,212,l),
(390,153,o),
(379,117,o),
(345,117,cs),
(312,117,o),
(298,137,o),
(298,194,cs),
(298,283,l),
(472,335,o),
(534,429,o),
(534,533,cs),
(534,658,o),
(458,722,o),
(332,722,cs),
(167,722,o),
(113,625,o),
(113,512,cs),
(113,358,l),
(84,350,o),
(56,343,o),
(27,335,c),
(27,211,l),
(56,219,o),
(84,226,o),
(113,234,c),
(113,205,ls),
(113,73,o),
(187,-8,o),
(312,-8,cs)
);
},
{
closed = 1;
nodes = (
(298,549,ls),
(298,588,o),
(307,605,o),
(332,605,cs),
(356,605,o),
(365,583,o),
(365,538,cs),
(365,473,o),
(342,433,o),
(298,412,c)
);
}
);
width = 586;
}
);
script = "";
subCategory = Other;
unicode = 8467;
},
{
category = Symbol;
glyphname = numero;
layers = (
{
layerId = "84606D06-D269-45BD-896C-8402F9D7AD38";
shapes = (
{
closed = 1;
nodes = (
(184,0,l),
(237,248,ls),
(251,314,o),
(267,437,o),
(268,443,c),
(361,0,l),
(544,0,l),
(695,714,l),
(527,714,l),
(474,462,l),
(459,395,o),
(444,295,o),
(441,262,c),
(349,714,l),
(167,714,l),
(16,0,l)
);
},
{
closed = 1;
nodes = (
(964,0,l),
(986,106,l),
(659,106,l),
(637,0,l)
);
},
{
closed = 1;
nodes = (
(974,135,o),
(1040,240,o),
(1040,357,cs),
(1040,450,o),
(983,502,o),
(893,502,cs),
(751,502,o),
(681,396,o),
(681,270,cs),
(681,188,o),
(735,135,o),
(829,135,cs)
);
},
{
closed = 1;
nodes = (
(822,235,o),
(814,249,o),
(814,276,cs),
(814,339,o),
(836,402,o),
(880,402,cs),
(901,402,o),
(907,386,o),
(907,357,cs),
(907,295,o),
(884,235,o),
(841,235,cs)
);
}
);
width = 1068;
}
);
script = "";
subCategory = Other;
unicode = 8470;
},
{
category = Symbol;
glyphname = trademark;
layers = (
{
layerId = "84606D06-D269-45BD-896C-8402F9D7AD38";
shapes = (
{
closed = 1;
nodes = (
(409,362,l),
(409,557,ls),
(409,570,o),
(408,590,o),
(406,611,c),
(410,611,l),
(480,362,l),
(560,362,l),
(634,611,l),
(638,611,l),
(636,595,o),
(635,568,o),
(635,557,cs),
(635,362,l),
(730,362,l),
(730,714,l),
(595,714,l),
(522,480,l),
(455,714,l),
(315,714,l),
(315,362,l)
);
},
{
closed = 1;
nodes = (
(197,362,l),
(197,628,l),
(280,628,l),
(280,714,l),
(18,714,l),
(18,628,l),
(101,628,l),
(101,362,l)
);
}
);
width = 770;
}
);
script = "";
subCategory = Other;
unicode = 8482;
},
{
category = Letter;
glyphname = Omega;
kernLeft = GRK_Omega;
kernRight = GRK_Omega;
layers = (
{
anchors = (
{
name = bottom;
pos = (309,0);
},
{
name = center;
pos = (336,362);
},
{
name = topleft;
pos = (111,714);
}
);
layerId = "84606D06-D269-45BD-896C-8402F9D7AD38";
shapes = (
{
closed = 1;
nodes = (
(261,0,l),
(298,178,l),
(228,227,o),
(235,319,o),
(250,397,cs),
(272,511,o),
(321,567,o),
(403,567,cs),
(485,567,o),
(525,511,o),
(508,391,cs),
(496,309,o),
(465,229,o),
(387,178,c),
(350,0,l),
(642,0,l),
(675,158,l),
(538,158,l),
(638,215,o),
(685,306,o),
(699,403,cs),
(725,591,o),
(632,725,o),
(425,725,cs),
(216,725,o),
(85,592,o),
(59,402,cs),
(45,308,o),
(57,209,o),
(138,158,c),
(3,158,l),
(-30,0,l)
);
}
);
width = 729;
}
);
metricLeft = "=|L";
metricRight = "=L";
script = greek;
subCategory = Uppercase;
unicode = 937;
},
{
category = Symbol;
glyphname = estimated;
layers = (
{
layerId = "84606D06-D269-45BD-896C-8402F9D7AD38";
shapes = (
{
closed = 1;
nodes = (
(433,-17,o),
(490,45,o),
(537,119,c),
(502,139,l),
(457,67,o),
(406,25,o),
(309,25,cs),
(249,25,o),
(193,54,o),
(164,85,c),
(164,259,l),
(568,259,l),
(568,429,o),
(456,535,o),
(309,535,cs),
(186,535,o),
(50,451,o),
(50,259,cs),
(50,115,o),
(140,-17,o),
(309,-17,cs)
);
},
{
closed = 1;
nodes = (
(164,437,l),
(195,467,o),
(242,494,o),
(308,494,cs),
(377,494,o),
(430,462,o),
(455,436,c),
(455,301,l),
(164,301,l)
);
}
);
width = 619;
}
);
script = "";
subCategory = Other;
unicode = 8494;
},
{
category = Letter;
glyphname = Delta;
kernLeft = GRK_Alpha;
kernRight = GRK_Alpha;
layers = (
{
anchors = (
{
name = center;
pos = (289,357);
}
);
layerId = "84606D06-D269-45BD-896C-8402F9D7AD38";
shapes = (
{
closed = 1;
nodes = (
(609,0,l),
(627,87,l),
(554,714,l),
(308,714,l),
(-30,89,l),
(-49,0,l)
);
},
{
closed = 1;
nodes = (
(323,409,ls),
(347,455,o),
(387,534,o),
(406,583,c),
(409,583,l),
(410,530,o),
(416,441,o),
(418,409,cs),
(436,158,l),
(195,158,l)
);
}
);
width = 685;
}
);
metricLeft = "=A+10";
metricRight = "=A+10";
script = greek;
subCategory = Uppercase;
unicode = 916;
},
{
category = Mark;
glyphname = cyrillicbreve;
layers = (
{
anchors = (
{
name = _top;
pos = (287,553);
}
);
layerId = "84606D06-D269-45BD-896C-8402F9D7AD38";
shapes = (
{
closed = 1;
nodes = (
(437,606,o),
(511,662,o),
(531,785,c),
(386,785,l),
(375,724,o),
(353,699,o),
(309,699,cs),
(272,699,o),
(255,717,o),
(255,756,cs),
(255,769,o),
(255,773,o),
(257,785,c),
(112,785,l),
(111,775,o),
(111,761,o),
(111,761,cs),
(111,657,o),
(176,606,o),
(304,606,cs)
);
}
);
width = 427;
}
);
script = cyrillic;
subCategory = Nonspacing;
},
{
category = "";
export = 0;
glyphname = caroncommaaccent;
layers = (
{
anchors = (
{
name = _topright;
pos = (203,553);
}
);
layerId = "84606D06-D269-45BD-896C-8402F9D7AD38";
shapes = (
{
closed = 1;
nodes = (
(233,600,l),
(349,600,l),
(394,653,o),
(431,697,o),
(464,750,c),
(464,760,l),
(287,760,l),
(273,717,o),
(250,656,o),
(233,613,c)
);
}
);
width = 515;
}
);
script = "";
subCategory = "";
},
{
category = "";
export = 0;
glyphname = commaaccentrotate;
layers = (
{
layerId = "84606D06-D269-45BD-896C-8402F9D7AD38";
shapes = (
{
closed = 1;
nodes = (
(218,606,l),
(395,606,l),
(408,649,o),
(431,710,o),
(449,753,c),
(449,766,l),
(333,766,l),
(288,715,o),
(250,669,o),
(218,616,c)
);
}
);
width = 515;
}
);
script = "";
subCategory = "";
},
{
category = Number;
glyphname = foursuperior;
layers = (
{
layerId = "84606D06-D269-45BD-896C-8402F9D7AD38";
shapes = (
{
closed = 1;
nodes = (
(375,416,l),
(388,476,l),
(443,476,l),
(463,573,l),
(408,573,l),
(466,845,l),
(307,845,l),
(68,563,l),
(53,476,l),
(247,476,l),
(234,416,l)
);
},
{
closed = 1;
nodes = (
(258,660,ls),
(272,677,o),
(299,711,o),
(310,728,c),
(305,716,o),
(294,677,o),
(287,650,cs),
(267,573,l),
(188,573,l)
);
}
);
width = 414;
}
);
script = "";
subCategory = Small;
unicode = 8308;
},
{
category = Number;
glyphname = fivesuperior;
layers = (
{
layerId = "84606D06-D269-45BD-896C-8402F9D7AD38";
shapes = (
{
closed = 1;
nodes = (
(357,407,o),
(436,465,o),
(436,574,cs),
(436,646,o),
(390,694,o),
(289,694,cs),
(269,694,o),
(260,693,o),
(250,691,c),
(261,731,l),
(450,731,l),
(475,843,l),
(184,843,l),
(126,636,l),
(171,595,l),
(186,601,o),
(214,606,o),
(226,606,cs),
(268,606,o),
(294,593,o),
(294,562,cs),
(294,542,o),
(280,509,o),
(214,509,cs),
(177,509,o),
(129,518,o),
(94,538,c),
(94,433,l),
(130,413,o),
(183,407,o),
(234,407,cs)
);
}
);
width = 414;
}
);
script = "";
subCategory = Small;
unicode = 8309;
},
{
category = Number;
glyphname = sevensuperior;
layers = (
{
layerId = "84606D06-D269-45BD-896C-8402F9D7AD38";
shapes = (
{
closed = 1;
nodes = (
(262,415,l),
(488,753,l),
(508,844,l),
(149,844,l),
(125,732,l),
(330,732,l),
(103,415,l)
);
}
);
width = 414;
}
);
script = "";
subCategory = Small;
unicode = 8311;
},
{
category = Number;
glyphname = eightsuperior;
layers = (
{
layerId = "84606D06-D269-45BD-896C-8402F9D7AD38";
shapes = (
{
closed = 1;
nodes = (
(363,407,o),
(449,454,o),
(449,549,cs),
(449,602,o),
(413,626,o),
(384,646,c),
(427,663,o),
(463,693,o),
(463,743,cs),
(463,814,o),
(410,856,o),
(308,856,cs),
(227,856,o),
(139,819,o),
(139,732,cs),
(139,696,o),
(160,665,o),
(186,649,c),
(122,629,o),
(79,592,o),
(79,530,cs),
(79,464,o),
(136,407,o),
(252,407,cs)
);
},
{
closed = 1;
nodes = (
(233,499,o),
(217,515,o),
(217,535,cs),
(217,563,o),
(240,584,o),
(265,587,c),
(286,578,o),
(307,560,o),
(307,536,cs),
(307,517,o),
(292,499,o),
(261,499,cs)
);
},
{
closed = 1;
nodes = (
(289,705,o),
(272,721,o),
(272,738,cs),
(272,754,o),
(284,766,o),
(304,766,cs),
(330,766,o),
(336,748,o),
(336,739,cs),
(336,723,o),
(325,709,o),
(302,697,c)
);
}
);
width = 414;
}
);
script = "";
subCategory = Small;
unicode = 8312;
},
{
category = Symbol;
glyphname = objectReplacementCharacter;
layers = (
{
layerId = "84606D06-D269-45BD-896C-8402F9D7AD38";
shapes = (
{
closed = 1;
nodes = (
(385,160,o),
(425,219,o),
(425,307,cs),
(425,396,o),
(385,454,o),
(297,454,cs),
(209,454,o),
(169,396,o),
(169,307,cs),
(169,219,o),
(209,160,o),
(297,160,cs)
);
},
{
closed = 1;
nodes = (
(192,-187,l),
(192,-134,l),
(98,-134,l),
(98,-39,l),
(44,-39,l),
(44,-187,l)
);
},
{
closed = 1;
nodes = (
(98,19,l),
(98,151,l),
(44,151,l),
(44,19,l)
);
},
{
closed = 1;
nodes = (
(383,-187,l),
(383,-134,l),
(251,-134,l),
(251,-187,l)
);
},
{
closed = 1;
nodes = (
(98,210,l),
(98,343,l),
(44,343,l),
(44,210,l)
);
},
{
closed = 1;
nodes = (
(575,-187,l),
(575,-134,l),
(442,-134,l),
(442,-187,l)
);
},
{
closed = 1;
nodes = (
(766,-187,l),
(766,-134,l),
(633,-134,l),
(633,-187,l)
);
},
{
closed = 1;
nodes = (
(98,402,l),
(98,534,l),
(44,534,l),
(44,402,l)
);
},
{
closed = 1;
nodes = (
(252,211,o),
(231,247,o),
(231,307,cs),
(231,367,o),
(252,403,o),
(297,403,cs),
(343,403,o),
(363,367,o),
(363,307,cs),
(363,247,o),
(343,211,o),
(297,211,cs)
);
},
{
closed = 1;
nodes = (
(98,593,l),
(98,687,l),
(192,687,l),
(192,741,l),
(44,741,l),
(44,593,l)
);
},
{
closed = 1;
nodes = (
(972,-187,l),
(972,-39,l),
(919,-39,l),
(919,-134,l),
(824,-134,l),
(824,-187,l)
);
},
{
closed = 1;
nodes = (
(526,214,l),
(526,289,l),
(560,289,ls),
(594,289,o),
(604,274,o),
(604,253,cs),
(604,229,o),
(594,214,o),
(562,214,cs)
);
},
{
closed = 1;
nodes = (
(567,164,ls),
(628,164,o),
(666,195,o),
(666,247,cs),
(666,292,o),
(643,307,o),
(614,313,c),
(614,317,l),
(642,322,o),
(658,345,o),
(658,377,cs),
(658,431,o),
(621,450,o),
(550,450,cs),
(466,450,l),
(466,164,l)
);
},
{
closed = 1;
nodes = (
(526,337,l),
(526,400,l),
(555,400,ls),
(585,400,o),
(598,391,o),
(598,369,cs),
(598,348,o),
(588,337,o),
(558,337,cs)
);
},
{
closed = 1;
nodes = (
(972,19,l),
(972,151,l),
(919,151,l),
(919,19,l)
);
},
{
closed = 1;
nodes = (
(383,687,l),
(383,741,l),
(251,741,l),
(251,687,l)
);
},
{
closed = 1;
nodes = (
(788,161,o),
(828,190,o),
(828,256,cs),
(828,450,l),
(767,450,l),
(767,254,ls),
(767,221,o),
(749,212,o),
(725,212,cs),
(712,212,o),
(702,214,o),
(692,216,c),
(692,166,l),
(701,163,o),
(714,161,o),
(731,161,cs)
);
},
{
closed = 1;
nodes = (
(972,210,l),
(972,343,l),
(919,343,l),
(919,210,l)
);
},
{
closed = 1;
nodes = (
(575,687,l),
(575,741,l),
(442,741,l),
(442,687,l)
);
},
{
closed = 1;
nodes = (
(972,402,l),
(972,534,l),
(919,534,l),
(919,402,l)
);
},
{
closed = 1;
nodes = (
(766,687,l),
(766,741,l),
(633,741,l),
(633,687,l)
);
},
{
closed = 1;
nodes = (
(972,593,l),
(972,741,l),
(824,741,l),
(824,687,l),
(919,687,l),
(919,593,l)
);
}
);
width = 1000;
}
);
script = "";
subCategory = Other;
unicode = 65532;
},
{
category = Symbol;
glyphname = replacementCharacter;
layers = (
{
layerId = "84606D06-D269-45BD-896C-8402F9D7AD38";
shapes = (
{
closed = 1;
nodes = (
(958,302,l),
(499,760,l),
(42,302,l),
(499,-156,l)
);
},
{
closed = 1;
nodes = (
(445,-21,o),
(415,-2,o),
(415,45,cs),
(415,94,o),
(445,112,o),
(484,112,cs),
(520,112,o),
(552,94,o),
(552,45,cs),
(552,-2,o),
(520,-21,o),
(484,-21,cs)
);
},
{
closed = 1;
nodes = (
(428,208,ls),
(428,260,o),
(448,292,o),
(498,332,cs),
(542,366,o),
(557,383,o),
(557,421,cs),
(557,451,o),
(537,472,o),
(496,472,cs),
(460,472,o),
(420,459,o),
(374,433,c),
(334,520,l),
(383,550,o),
(442,568,o),
(498,568,cs),
(604,568,o),
(670,516,o),
(670,427,cs),
(670,361,o),
(641,328,o),
(584,282,cs),
(540,248,o),
(531,235,o),
(531,202,cs),
(531,179,l),
(428,179,l)
);
}
);
width = 1000;
}
);
script = "";
subCategory = Other;
unicode = 65533;
},
{
category = Letter;
glyphname = thetaSymbol;
layers = (
{
anchors = (
{
name = center;
pos = (409,379);
}
);
layerId = "84606D06-D269-45BD-896C-8402F9D7AD38";
shapes = (
{
closed = 1;
nodes = (
(532,-10,o),
(619,146,o),
(659,344,c),
(724,344,l),
(755,486,l),
(681,486,l),
(681,492,o),
(682,504,o),
(682,513,cs),
(682,652,o),
(625,769,o),
(456,769,cs),
(314,769,o),
(212,697,o),
(212,559,cs),
(212,457,o),
(297,356,o),
(468,341,c),
(456,214,o),
(403,132,o),
(332,132,cs),
(295,132,o),
(278,153,o),
(278,179,cs),
(278,193,o),
(282,214,o),
(286,236,cs),
(290,261,o),
(295,288,o),
(295,308,cs),
(295,359,o),
(261,399,o),
(195,399,cs),
(128,399,o),
(89,378,o),
(64,363,c),
(64,237,l),
(74,244,o),
(88,254,o),
(101,254,cs),
(114,254,o),
(117,246,o),
(117,231,cs),
(117,221,o),
(115,209,o),
(112,196,cs),
(109,180,o),
(105,161,o),
(105,140,cs),
(105,68,o),
(162,-10,o),
(310,-10,cs)
);
},
{
closed = 1;
nodes = (
(426,491,o),
(398,527,o),
(398,565,cs),
(398,607,o),
(415,627,o),
(446,627,cs),
(475,627,o),
(493,598,o),
(493,538,cs),
(493,524,o),
(492,499,o),
(490,486,c)
);
}
);
width = 753;
}
);
script = greek;
subCategory = Lowercase;
unicode = 977;
},
{
category = Letter;
glyphname = UpsilonhookSymbol;
layers = (
{
anchors = (
{
name = center;
pos = (389,360);
},
{
name = top;
pos = (314,714);
},
{
name = topleft;
pos = (21,714);
}
);
layerId = "84606D06-D269-45BD-896C-8402F9D7AD38";
shapes = (
{
closed = 1;
nodes = (
(327,0,l),
(387,278,l),
(560,531,ls),
(582,564,o),
(613,570,o),
(634,570,cs),
(648,570,o),
(664,565,o),
(669,563,c),
(699,703,l),
(672,715,o),
(629,720,o),
(600,720,cs),
(536,720,o),
(465,701,o),
(428,637,cs),
(321,449,l),
(277,714,l),
(80,714,l),
(197,275,l),
(136,0,l)
);
}
);
width = 641;
}
);
metricLeft = "=Y";
metricRight = "=T";
script = greek;
subCategory = Uppercase;
unicode = 978;
},
{
category = Letter;
glyphname = piSymbol;
layers = (
{
anchors = (
{
name = center;
pos = (583,271);
}
);
layerId = "84606D06-D269-45BD-896C-8402F9D7AD38";
shapes = (
{
closed = 1;
nodes = (
(417,-10,o),
(464,30,o),
(506,112,c),
(512,112,l),
(520,28,o),
(569,-10,o),
(661,-10,cs),
(823,-10,o),
(919,68,o),
(952,249,cs),
(965,310,o),
(967,364,o),
(963,411,c),
(1070,411,l),
(1100,553,l),
(96,553,l),
(66,411,l),
(171,411,l),
(156,377,o),
(144,338,o),
(134,289,cs),
(101,108,o),
(163,-10,o),
(324,-10,cs)
);
},
{
closed = 1;
nodes = (
(320,138,o),
(302,180,o),
(321,287,cs),
(330,331,o),
(343,373,o),
(360,411,c),
(776,411,l),
(779,368,o),
(778,318,o),
(766,264,cs),
(751,193,o),
(733,138,o),
(675,138,cs),
(635,138,o),
(612,166,o),
(627,237,cs),
(649,341,l),
(467,341,l),
(445,237,ls),
(429,163,o),
(398,138,o),
(362,138,cs)
);
}
);
width = 1078;
}
);
metricLeft = "=|t";
metricRight = "=t";
script = greek;
subCategory = Lowercase;
unicode = 982;
},
{
category = Symbol;
glyphname = lowringmod;
layers = (
{
layerId = "84606D06-D269-45BD-896C-8402F9D7AD38";
shapes = (
{
closed = 1;
nodes = (
(144,-309,o),
(202,-262,o),
(202,-184,cs),
(202,-109,o),
(143,-61,o),
(70,-61,cs),
(-8,-61,o),
(-60,-109,o),
(-60,-185,cs),
(-60,-262,o),
(-8,-309,o),
(70,-309,cs)
);
},
{
closed = 1;
nodes = (
(42,-226,o),
(28,-210,o),
(28,-185,cs),
(28,-160,o),
(46,-144,o),
(70,-144,cs),
(93,-144,o),
(111,-160,o),
(111,-185,cs),
(111,-210,o),
(93,-226,o),
(70,-226,cs)
);
}
);
width = 333;
}
);
script = "";
subCategory = Modifier;
unicode = 755;
},
{
category = Letter;
glyphname = Ohorn;
kernLeft = O.right;
kernRight = Ohorn;
layers = (
{
anchors = (
{
name = bottom;
pos = (343,0);
},
{
name = center;
pos = (477,375);
},
{
name = top;
pos = (437,714);
}
);
layerId = "84606D06-D269-45BD-896C-8402F9D7AD38";
shapes = (
{
closed = 1;
nodes = (
(588,-10,o),
(706,228,o),
(706,450,cs),
(706,474,o),
(704,497,o),
(700,519,c),
(788,553,o),
(862,621,o),
(903,747,c),
(897,760,l),
(712,760,l),
(702,697,o),
(672,649,o),
(656,628,c),
(612,689,o),
(538,725,o),
(438,725,cs),
(173,725,o),
(51,487,o),
(51,265,cs),
(51,99,o),
(143,-10,o),
(325,-10,cs)
);
},
{
closed = 1;
nodes = (
(277,148,o),
(244,189,o),
(244,266,cs),
(244,410,o),
(315,567,o),
(422,567,cs),
(481,567,o),
(513,522,o),
(513,448,cs),
(513,284,o),
(438,148,o),
(342,148,cs)
);
}
);
width = 803;
}
);
script = latin;
subCategory = Uppercase;
unicode = 416;
},
{
category = Letter;
glyphname = ohorn;
kernLeft = o.right;
kernRight = o.hornleft;
layers = (
{
anchors = (
{
name = bottom;
pos = (295,0);
},
{
name = center;
pos = (414,312);
},
{
name = top;
pos = (355,553);
}
);
layerId = "84606D06-D269-45BD-896C-8402F9D7AD38";
shapes = (
{
closed = 1;
nodes = (
(459,-10,o),
(566,161,o),
(566,350,cs),
(566,362,o),
(565,374,o),
(564,386,c),
(697,426,o),
(753,502,o),
(787,623,c),
(781,635,l),
(603,635,l),
(593,581,o),
(573,513,o),
(523,493,c),
(487,538,o),
(429,563,o),
(353,563,cs),
(148,563,o),
(41,392,o),
(41,203,cs),
(41,67,o),
(118,-10,o),
(254,-10,cs)
);
},
{
closed = 1;
nodes = (
(249,132,o),
(234,154,o),
(234,197,cs),
(234,306,o),
(275,421,o),
(331,421,cs),
(357,421,o),
(373,399,o),
(373,356,cs),
(373,247,o),
(331,132,o),
(275,132,cs)
);
}
);
width = 707;
}
);
script = latin;
subCategory = Lowercase;
unicode = 417;
},
{
category = Letter;
glyphname = Uhorn;
kernLeft = U.right;
kernRight = Uhorn;
layers = (
{
anchors = (
{
name = bottom;
pos = (346,0);
},
{
name = center;
pos = (510,375);
},
{
name = top;
pos = (429,714);
}
);
layerId = "84606D06-D269-45BD-896C-8402F9D7AD38";
shapes = (
{
closed = 1;
nodes = (
(476,-10,o),
(574,85,o),
(611,259,cs),
(665,514,l),
(848,519,o),
(920,633,o),
(960,747,c),
(954,760,l),
(769,760,l),
(763,693,o),
(744,648,o),
(690,628,c),
(708,714,l),
(517,714,l),
(424,278,ls),
(404,185,o),
(369,150,o),
(312,150,cs),
(271,150,o),
(253,173,o),
(253,212,cs),
(253,229,o),
(256,249,o),
(260,268,cs),
(355,714,l),
(164,714,l),
(67,263,ls),
(63,242,o),
(61,220,o),
(61,200,cs),
(61,83,o),
(142,-10,o),
(281,-10,cs)
);
}
);
width = 810;
}
);
script = latin;
subCategory = Uppercase;
unicode = 431;
},
{
category = Letter;
glyphname = uhorn;
kernLeft = n.right;
kernRight = uhorn.left;
layers = (
{
anchors = (
{
name = bottom;
pos = (325,0);
},
{
name = center;
pos = (458,312);
},
{
name = top;
pos = (362,553);
}
);
layerId = "84606D06-D269-45BD-896C-8402F9D7AD38";
shapes = (
{
closed = 1;
nodes = (
(263,-10,o),
(309,15,o),
(345,77,c),
(349,77,l),
(343,0,l),
(494,0,l),
(576,388,l),
(759,394,o),
(830,506,o),
(870,621,c),
(864,634,l),
(678,634,l),
(666,562,o),
(656,521,o),
(600,504,c),
(611,553,l),
(422,553,l),
(365,284,ls),
(344,185,o),
(308,141,o),
(275,141,cs),
(255,141,o),
(238,155,o),
(238,183,cs),
(238,206,o),
(243,235,o),
(247,252,cs),
(310,553,l),
(121,553,l),
(59,259,ls),
(52,224,o),
(47,184,o),
(47,147,cs),
(47,62,o),
(90,-10,o),
(193,-10,cs)
);
}
);
width = 768;
}
);
script = latin;
subCategory = Lowercase;
unicode = 432;
},
